<?xml version="1.0" standalone="no"?>
<!DOCTYPE svg PUBLIC "-//W3C//DTD SVG 20010904//EN"
 "http://www.w3.org/TR/2001/REC-SVG-20010904/DTD/svg10.dtd">
<svg version="1.0" xmlns="http://www.w3.org/2000/svg"
 width="700.000000pt" height="700.000000pt" viewBox="0 0 700.000000 700.000000"
 preserveAspectRatio="xMidYMid meet">
<metadata>
Created by potrace 1.11, written by Peter Selinger 2001-2013
</metadata>
<g transform="translate(0.000000,700.000000) scale(0.100000,-0.100000)"
fill="#000000" stroke="none">
<path d="M4977 6394 c-1 -1 -42 -4 -92 -8 -110 -9 -124 -10 -240 -31 -314 -56
-615 -178 -854 -348 -201 -143 -328 -278 -486 -520 -40 -62 -83 -124 -96 -139
l-24 -27 -115 50 c-63 28 -131 57 -150 66 -19 9 -37 17 -40 17 -3 1 -32 14
-65 29 -166 78 -452 155 -675 182 -200 24 -480 20 -655 -10 -37 -7 -132 -25
-162 -31 -65 -13 -274 -88 -355 -128 -119 -57 -255 -148 -338 -224 -136 -125
-362 -498 -463 -767 -58 -152 -107 -349 -124 -496 -10 -84 -10 -356 1 -439 17
-143 87 -415 116 -455 4 -5 13 -28 20 -50 30 -93 158 -324 260 -470 218 -309
575 -651 960 -919 88 -61 329 -216 336 -216 3 0 18 -8 32 -19 99 -68 472 -259
720 -367 494 -216 1114 -401 1472 -440 25 -3 51 -7 58 -9 59 -20 454 -24 550
-6 2 1 1 9 -2 19 -3 9 -8 35 -11 57 -4 22 -9 51 -12 65 -3 14 -7 104 -8 200
-6 304 49 510 192 727 61 93 198 238 298 314 64 50 260 179 271 179 3 0 18 8
32 19 15 10 86 53 158 94 317 183 512 326 697 511 130 130 137 138 213 231
162 196 388 577 472 795 23 59 61 179 68 214 2 12 6 32 9 46 15 73 19 141 19
290 0 198 -10 306 -45 465 -118 542 -416 990 -849 1279 -219 146 -480 238
-744 261 -72 7 -343 14 -349 9z"/>
</g>
</svg>
