<svg id="Layer_1" data-name="Layer 1" xmlns="http://www.w3.org/2000/svg" viewBox="0 0 265.5 221.5"><defs><style>.cls-1{fill:#f29ec4;}.cls-2{fill:#f6f6f6;}</style></defs><title>favicon</title><path class="cls-1" d="M23,46.28c20.35-20,55.49-20.78,80.77-11l16.93,7.5c2.25-2.14,4.29-6.11,6.21-9C143.3,8.78,176-.54,204.36,3.21,231.67,6.75,259,33.1,262.21,71.34c1.39,16.93-2.25,26.25-9.11,39l-8.57,13.5C221,155.65,199.22,155.33,182,174.08c-9.32,10.18-13.39,25.07-9.53,44.78C122.94,227.11-57.78,153.08,23,46.28"/><path class="cls-2" d="M118.76,50.78c-5.14-2.14-10.5-5-17.35-6.53C-12.15,24-29.07,184.15,161.94,210.61c-3.43-9.86-3.21-22.82.43-29.78,12.32-24.1,33.64-31.6,50.35-44.56q19.93-15.59,27.64-33.74C246,89,248.6,72,241.1,54.1c-7.07-16.93-20-25.5-32.35-29.89C157.86,5.68,104.09,54.53,135.37,92.77c1.93,2.36,6.75,6.21,7.5,7.93C135.48,102.41,125,92,121.66,83.88c-5.14-12.75-2.89-22.71-2.89-33.1"/></svg>