<?xml version="1.0" encoding="utf-8"?>
<!-- Generator: Adobe Illustrator 18.0.0, SVG Export Plug-In . SVG Version: 6.00 Build 0)  -->
<!DOCTYPE svg PUBLIC "-//W3C//DTD SVG 1.1//EN" "http://www.w3.org/Graphics/SVG/1.1/DTD/svg11.dtd">
<svg version="1.1" id="Layer_1" xmlns="http://www.w3.org/2000/svg" xmlns:xlink="http://www.w3.org/1999/xlink" x="0px" y="0px"
	 viewBox="0 0 1319.1 428.1" enable-background="new 0 0 1319.1 428.1" xml:space="preserve">
<path fill-rule="evenodd" clip-rule="evenodd" fill="#F29EC4" d="M1175.4,290.9c0.9,0.7,1.9,1.2,3.1,1.2c7.6,0,18.4-9,23.6-13.8
	c10.9-9.9,20.2-21.3,27.8-33.9c3.7-6.2,10.2-18,8.2-25.6c-0.9-3.4-2.5-4.2-6-4.2c-10.8,0-20.2,6.8-27.5,14.1
	c-10.1,10.2-18.2,21.8-24.3,34.8c-2.3,4.9-8.5,18.8-7.1,24.4C1173.7,289.2,1174.4,290.1,1175.4,290.9 M1005.8,214.6
	c-10.1,0-19.2,7.9-25.5,15c-9.9,11.1-18.3,23.4-24.9,36.7c-1.8,3.6-8.6,17.5-8.6,20.9c0.3,1.3,1.5,2.2,2.6,2.9
	c2.2,1.3,4.5,1.9,7.1,1.9c9.8,0,19.5-6.6,26.6-12.7c10.6-9.1,19.2-19.8,25.8-32c3.4-6.4,9.1-18.2,7.1-25.7c-0.5-2.1-1.7-3.6-3.4-4.9
	C1010.5,215.3,1008.3,214.6,1005.8,214.6z M785.4,214.6c-10.1,0-19.2,7.9-25.5,15c-9.9,11.1-18.3,23.4-24.9,36.7
	c-1.8,3.6-8.6,17.5-8.6,20.9c0.3,1.3,1.5,2.2,2.6,2.9c2.2,1.3,4.5,1.9,7.1,1.9c9.8,0,19.5-6.6,26.6-12.7c10.6-9.1,19.2-19.8,25.8-32
	c3.4-6.4,9.1-18.2,7.1-25.7c-0.5-2.1-1.7-3.6-3.4-4.9C790.1,215.3,788,214.6,785.4,214.6z M348.7,208.3
	c-6.4,7.3-13.1,14.5-19.7,21.5c-9.3,9.9-18.8,19.8-28.4,29.4c8.8,5.6,18,10.8,27.4,15c8.4,3.8,17.2,6.5,26.2,8.3
	c2.3-13.1,3.2-26.4,1.8-39.6C354.8,231.2,352.2,219.6,348.7,208.3z M363.2,192.3c5,13.6,9.2,28,11,42.4c0.6,4.8,0.9,9.7,1,14.5
	c1.2-1.9,2.4-3.8,3.7-5.7c6.3-9.7,12.6-19.3,19.1-28.9c8.1-12,16.3-24,24.5-36c16.6-24.4,33-49,49.4-73.4L477,97
	c10.3-15.2,22.5-30.3,33.9-44.8c5.3-6.8,10.7-13.6,16.1-20.4c-7.7,4.5-14.9,9.7-21,14.4c-19.5,15.1-38,31.7-55.3,49.3
	c-17.2,17.5-34.1,35.5-50.3,54C388,163.7,375.6,178,363.2,192.3z M340.8,188.7c-8.3-17.3-20.1-32.4-34.2-45.5
	c-13.6-12.6-29.7-21.5-48.7-21.5c-7.9,0-17.6,1.4-22.5,8.4c-4.2,6.1-6.7,12.7-6.8,20.1c-0.1,5.6,0,12.5,1.4,17.9
	c4,15.5,10.3,30.2,19.7,43.3c9.7,13.4,22.6,25.8,35.4,36.7C304.2,229.1,322.7,208.8,340.8,188.7z M529.1,229.1
	c6.7-6.4,13.5-12.6,20.5-18.2c9.8-7.9,21.7-14.5,34.6-14.5c9.8,0,17,5.1,19.4,14.7c2,8,1.3,16.7-1,25.3c3.3-3,6.6-6,9.9-9
	c8.7-7.9,18-15.3,28-21.6c7.7-4.9,17.2-9.4,26.5-9.4c5,0,9.4,2,12.8,5.5c3.8,3.6,5.9,8.4,7.1,13.4c2.5,10,1.7,20-2.3,29.4
	c-4.8,11.2-14.6,21.6-23.6,29.8c-4.2,3.8-7.8,8.1-11,12.8c-0.6,1-2,3.1-2.9,4.8c0.5,0.1,1.1,0.1,1.3,0.1c8.2,0,17.8-7.7,23.5-12.9
	c11.3-10.3,22.1-21.5,32.5-32.5c1.2-2.5,2.6-4.9,4.1-7.2c8.7-13.2,20.5-23.4,34.3-31c12.5-6.9,26.4-12.1,40.8-12.1
	c15.4,0,26.2,7.7,30,22.7c2.4,9.4,1.2,19.1-1.9,28.2c3.1-0.6,6-1.8,8.6-3.7c-0.4-2.3,0.3-4.5,1.9-6.2c6.5-6.6,13-13.2,19.3-20
	c5.2-5.5,10.6-10.9,16-16.2c-1.7-5.2-1.9-10.7,0.2-16c2.7-6.8,8.1-11.2,15.6-11.2c3.9,0,7.4,1.1,10.7,3.2c3.5,2.2,6.1,5.3,7.1,9.4
	c0.9,3.5,0.7,7.2-1,10.2c0.9-0.1,1.7-0.2,2.5-0.2c4.9,0,8.3,3.6,10.7,7.4c2.3,3.6,3.8,7.7,4.9,11.9c1.6,6.4-1,12.9-4.2,18.4
	c-5.3,9.1-10.9,18-16.6,26.8c-5.4,8.4-11.1,17.1-16,25.8c-0.5,0.9-1.8,3.4-2.3,5.2c5.3-1,19.6-13.2,23-16.2
	c12-10.6,23.6-21.8,34.8-33.3c0.6-1,1.3-2.1,1.9-3.1c8.7-13.2,20.5-23.4,34.3-31c12.5-6.9,26.4-12.1,40.8-12.1
	c15.4,0,26.2,7.7,30,22.7c2.4,9.4,1.2,19.1-1.9,28.2c3.2-0.6,6-1.8,8.6-3.7c-0.4-2.2,0.2-4.2,1.8-5.9l44.2-48.9
	c2.7-4.7,5.3-9.3,7.9-14c2.6-4.7,6.4-10.4,12.5-10.4c2.9,0,5.6,0.8,7.9,2.2c3.1,1.8,5.1,4.6,6,8.1c1.7,6.6-2.7,12-7.9,16.1
	c5,5.7,9.8,11.7,13.8,17.9c5.2,8.2,9,17.5,11.9,26.8c0.1,0.3,0.2,0.6,0.2,1c0.6,3.6,1.1,7.2,1.5,10.8c2.9,0.2,6,0.1,8.6-1
	c0.4-0.2,0.8-0.4,1.2-0.6c3.7-9.4,9.5-17.6,16.9-24.6c8.5-7.9,18.3-13.8,29.1-18c11-4.3,22.5-6.6,34.3-6.6c5.7,0,11.6,0.9,16.4,4.1
	c2.5,1.7,4.6,3.9,6.1,6.3l3.1-5.2c1.2-2.1,3.2-3.3,5.6-3.5l22.6-1.7c2.7-0.2,5.1,1,6.5,3.2c1.5,2.3,1.6,4.9,0.3,7.3l-5,9.1
	c-3.4,5.6-6.6,11.3-9.8,17c-2.2,3.8-4.4,7.6-6.8,11.5c-4.2,6.2-24.5,36.8-27.5,46.9c2.7-1,6-3.2,7.6-4.3c6.6-4.6,12.7-10,18.5-15.6
	c8-7.8,15.7-15.8,23.4-23.8c5.1-5.3,10.3-10.7,15.3-16.1c1.8-2,4.4-2.7,7-2c2.6,0.7,4.5,2.5,5.1,5.1l1.2,4.7c0.6,2.4,0,4.8-1.7,6.6
	l-11,11.8c-12.4,13.4-25.6,27.3-39.4,39.4c-8.3,7.3-18.3,13-29.7,13c-9.2,0-14.9-5.9-17.1-14.5c-0.7-2.7-1.1-5.6-1.3-8.6
	c-11.6,11.7-26.2,23-40.1,23c-7.7,0-14.4-3.1-20-8.4c-6.3-5.9-10-14-12.1-22.3c-1.1-4.5-1.7-9-1.8-13.6c-2.7,0.1-5.5-0.2-8.2-0.6
	c-3,8.7-8.3,16.1-15.4,22.4c-8.5,7.4-18.1,13.2-28.8,17c-8.9,3.1-18.5,5.5-28,5.5c-7.6,0-15.1-1.4-21.9-5.1
	c-6.6-3.6-11.4-9.1-13.3-16.4c-1.5-5.9-1.3-12,2.2-16.9c3.8-5.5,10.2-7.3,16.5-7.3c4.6,0,9,1.2,12.7,3.8c4.1,2.6,6.7,6.4,7.9,11.1
	c1.2,4.6,0,9-3.2,12.5c7.8-0.7,14.5-4.9,20.2-10.4c8.2-7.9,13.8-17.7,17.2-28.5c3.4-10.8,4.1-21.7,1.3-32.7
	c-1.5-5.9-4.5-11.5-8.1-16.5l-32.6,35.9c0.1,1.4-0.2,2.7-0.9,4c-7.9,13.7-19.8,22-35.9,22c-0.4,0-0.7,0-1-0.1
	c-1.3-0.2-2.6-0.4-3.9-0.6c-0.1,0-0.2,0-0.2,0c-16,21.8-39,45.1-67.6,45.1c-5.4,0-10.5-1.5-15.3-4c-4.7-2.6-8.9-6-12.1-10.3
	c-3.3-4.4-5.6-9.3-6.9-14.6c-0.4-1.7-0.8-3.4-1-5.1c-15.6,15.1-37.7,34.1-52.3,34.1c-9,0-14.5-6.1-16.6-14.5c-2.3-9-3-18.3-1.3-27.5
	c1.8-10,6.4-19.6,11.8-28.2l14.8-22.6c-2.6-0.2-5.1-0.7-7.4-1.7c-8,8.5-16.1,16.9-24.3,25.2c-0.1,1-0.4,1.9-0.9,2.8
	c-7.9,13.7-19.8,22-35.9,22c-0.4,0-0.7,0-1-0.1c-1.3-0.2-2.6-0.4-3.9-0.6c-0.1,0-0.2,0-0.2,0c-16,21.8-39,45.1-67.6,45.1
	c-5.4,0-10.5-1.5-15.3-4c-4.7-2.6-8.9-6-12.1-10.3c-3.3-4.4-5.6-9.3-6.9-14.6c-0.2-1-0.5-1.9-0.7-2.9c-5.1,5.2-10.2,10.3-15.5,15.2
	c-9.9,9.1-22.2,16.7-36,16.7c-10.5,0-17.7-5.9-20.3-16.1c-2.5-9.6-1.5-19.1,2.1-28.3c4.5-11.2,12.8-22.5,20.3-31.8
	c2.4-2.9,10.9-13.7,13.2-19c-5.8,2.1-17.8,11-20.9,13.4c-15,11.4-29.1,24.1-42.7,37.1c-12.9,12.4-25.6,25.4-36.8,39.3
	c-1.4,1.7-3.3,2.6-5.5,2.6h-23.3c-2.7,0-5-1.4-6.3-3.7c-1.3-2.4-1.2-5,0.3-7.3l30.9-46.9c3.3-4.6,6.5-9.3,9.8-13.9
	c3.7-5.4,7.4-10.8,10.7-16.5c0.5-0.8,1.4-2.4,2.1-3.9c-11.2,1.3-26.1,14.8-33.2,21.8c-19.6,19.1-38,39.7-55.6,60.4l-6.1,7.4
	c-1.4,1.7-3.3,2.6-5.5,2.6h-23.6c-2.7,0-5-1.4-6.2-3.7c-1.3-2.3-1.2-5,0.2-7.3l41.4-64.8c0.1-0.1,0.1-0.2,0.2-0.3
	c1.7-2.3,6.4-8.9,9.5-14.1c-1.1,0.7-2.1,1.4-2.7,1.8c-5.6,4.2-10.8,9.1-15.7,14.1c-6,6-11.9,12.1-17.6,18.4c-0.6,0.7-1.3,1.2-2,1.6
	c-9,10.9-19.8,20.8-30.7,29.7c-14.3,11.7-30.7,19.8-49.1,21.1l-5.4,12.2c-1.2,2.6-3.6,4.3-6.5,4.3H348c-2.5,0-4.7-1.2-6.1-3.4
	c-1.3-2.2-1.4-4.7-0.3-6.9l5.5-11c-9.8-2.2-19.5-5.1-28.6-9.3c-10.8-4.9-21.4-11.2-31.4-17.7c-11,8.4-22.2,16.5-33.8,24
	c-12.4,8.1-25.7,14.8-39.5,20.2c-14.7,5.7-30.1,8.6-45.8,8.6c-14.2,0-28.8-2.4-41.3-9.5c-11.1-6.3-18.9-15.4-22.1-27.8
	c-2-7.9-1.5-15.9,2.5-23.1c4.2-7.5,11.1-11.3,19.6-11.3c5.1,0,10,1.4,13.9,4.5c3.3,2.5,6.2,5.8,7.2,9.9c2.8,11.1-4.7,17.3-15.2,17.3
	c-3.8,0-7.1-0.9-10-2.6c0.1,0.9,0.3,1.8,0.5,2.8c1.8,7.1,6.5,11.8,12.8,15.3c9.1,5,20.4,6.3,30.6,6.3c13.6,0,26.8-2.6,39.5-7.5
	c12.8-4.9,25.1-11.1,36.6-18.7c9.7-6.5,19.2-13.3,28.4-20.4c-13.1-11.6-26-24.5-36.2-38.4c-10.1-13.8-17.3-29-21.5-45.6
	c-4.2-16.3-4.6-33.3,2.2-49c7.4-17.1,23.1-23.4,41-23.4c22.2,0,41.6,8.6,58.5,22.8c15.9,13.4,28.6,29.8,38.8,47.9
	c20.6-23.4,41.4-46.7,62.7-69.5c16.5-17.6,33.5-34.9,51.3-51.1c14.1-12.9,29.5-25.5,45.8-35.4c13.3-8.1,27.7-14.5,43-17.9
	c2-0.4,3.8-0.1,5.5,1l3.3,2.2c1.8,1.2,2.8,2.8,3.1,4.9c0.3,2.1-0.2,4-1.6,5.6l-6,7.2c-16.6,20.7-32.9,41.6-48.2,63.2
	c-15.2,21.4-29.6,43.4-43.6,65.5c-14.6,23.2-28.6,46.7-41.8,70.7c-11.5,20.8-22.4,42-33,63.3c4.3-1.3,8.5-3.2,12.3-5.2
	c10.2-5.4,19.6-12.4,28.1-20.3c8.9-8.2,17-17.2,24.3-26.9c0.9-1.2,2.1-2.1,3.4-2.5c6.4-7.2,13.2-14.3,20.3-20.7
	c7.4-6.6,16.4-11.7,26.6-11.7c10.5,0,16.5,7.6,18.9,17.2C529.5,218.8,529.8,224,529.1,229.1z"/>
<path fill="#9C9D9D" d="M1270.4,354.7l-2.4,1.1h-1.8l-10.2,6.8l-5.8,6.8l-1.6,4l0.4,2.4l11.2-1.1l15.1-4.1l3.9-2.6l4.4-2.8l-0.2-1.1
	l1.8-1.5l-1.2-6.6l-2.3-1.1H1270.4z M1269.9,351.8h11.4l2.3,1.3h4.7l7.8,4.1l1.2,6.6l-2.1,1.1l0.3,1.5l-6.1,4h-2.6l-21.9,5.3
	l-2.3,1.5h-9.1l-3.9,2.8l7.5,4l2.8,1.1h9.1l8.9-2.4l12.4-3.2l-5.4,4.5l-8.9,2.6l-2.1,1.3h-6.8l-2.4,1.3h-15.6l-2.6-1.3h-4.7
	l-0.2-1.3l-4.9-1.5l-0.5-2.6l-2.3-1.3l-1.4-7.9l1.8-1.3l-0.5-2.6l6.1-6.8h2.1l1.8-2.8h2.3l6.1-4l6.6-1.1L1269.9,351.8z
	 M1210.8,326.4h6.5l4.7,1.3l3.1,2.6l0.9,5.3l-2.4,1.3l0.2,1.3h-1.8l-7.6,1.3l-3.9-1.3l-4.9-2.6l-0.9-5.3l1.6-1.5l-0.2-1.1
	L1210.8,326.4z M1201.3,351.8h15.9l0.7,3.8l-8.3,29.2l2.4,0.4h4.4l4.5-2.4l10.2-4l0.4,2.4l-6.1,4h-2.3l-3.9,2.8h-4.2l-2.4,1.3h-13.5
	l-5.1-2.6l-1.4-7.9l2.1-1.5l-0.7-4L1201.3,351.8z M1147.5,351.8h3.9l-7.8,22l1.7,0.9l1-1.5l8.5-12.1l13.4-8.1h2.1l2.4-1.3h8.3
	l3.1,1.3h1.8l3.6,2.6l1.4,8.1l-14.7,1.9l1-1.7l-0.3-1.7l-3.5-6.8h-2.6l-13.1,8.3l0.2,1.1l-5.5,4l-2.1,4.3l-4,2.4l-6.7,13.6h-15.9
	l9.9-36.2h11.7L1147.5,351.8z M1089.6,354.7l-2.4,1.1h-1.8l-10.2,6.8l-5.8,6.8l-1.6,4l0.4,2.4l11.2-1.1l15.1-4.1l3.9-2.6l4.4-2.8
	l-0.2-1.1l1.8-1.5l-1.2-6.6l-2.3-1.1H1089.6z M1089.1,351.8h11.4l2.3,1.3h4.7l7.8,4.1l1.2,6.6l-2.1,1.1l0.3,1.5l-6.1,4h-2.6
	l-21.9,5.3l-2.3,1.5h-9.1l-3.9,2.8l7.5,4l2.8,1.1h9.1l8.9-2.4l12.4-3.2l-5.4,4.5l-8.9,2.6l-2.1,1.3h-6.8l-2.4,1.3h-15.6l-2.6-1.3
	h-4.7l-0.2-1.3l-4.9-1.5l-0.5-2.6l-2.3-1.3l-1.4-7.9l1.8-1.3l-0.5-2.6l6.1-6.8h2.1l1.8-2.8h2.3l6.1-4l6.6-1.1L1089.1,351.8z
	 M1024.3,369.3h-2.3l0.4,2.4h2.3L1024.3,369.3z M1012.2,394.8l-8.4,4h-1.8l-15,9.4l-5.6,6.6l1.7,9.4l2.6,1.3h9.4l2.1-1.3h1.8
	l-0.3-1.5l4.5-2.4l9.4-23L1012.2,394.8z M1009.5,351.8h25.5l2.3,1.3h4.7l0.9,5.1h-4.2l-15-4H1012l-1.8,1.3h-4.9l-12,8.3l0.2,1.1
	l-4.4,2.8l-1.1,4l-2.1,1.5l0.7,4l-1.5,6.2l5.2,1.7h4.4l2.4-1.1h2.3l16.5-10.7l7.7-7.9l2.6-5.7l12.6,2.1l-5,23l1.9,0.4l17.7-4.3
	l-3.6,3.2l-17.3,5.3l-2.4,1.1l0.5,2.8l-12,23l-4,2.4l-6.3,5.5l-8.9,2.4l-1.6,1.5h-11.7l-2.6-1.5h-2.1l-5.4-4l-1.1-6.4l2.1-1.5
	l-0.4-2.4l3.9-2.8l-0.2-1.3l12.6-8.1l23.3-10.7l6.4-16.6l-0.9-0.9l-3.4,2.8l0.2,1.1l-14.7,9.4h-2.3l-3.9,2.8h-4.9l-1.6,1.3h-14
	l-2.3-1.3h-2.3l-5.1-4l-1.4-8.1l1.9-1.1l-0.5-2.8l5.8-5.5l5.8-5.3l4.5-2.6h2.3l3.9-2.8l9.2-1.1L1009.5,351.8z M905.6,369.3h-2.3
	l0.4,2.4h2.3L905.6,369.3z M904.5,351.8h4.7l-3.7,16.9l0.6,0.6l7.4-8.1l12.1-8.1h2.3l1.8-1.3h13.8l2.3,1.3h2.6l6,5.8l-1,8.9
	l-5.1,10.7l-1.2,4.9l4.5,1.7h0.5l2.4-1.1l14-4.5l-9.1,7.2L952,388l-1.8,1.3H939l-2.8-1.3h-2.1l-5.9-5.6l6.1-19.8l1-6.2l-4.3-2.1
	l-0.5,1.3h-3.1l-11.5,8.3l0.2,1.1l-3.9,2.8l-14.6,21.5h-15.9l9.4-36.2h11.7L904.5,351.8z M858.4,326.4h6.5l4.7,1.3l3.1,2.6l0.9,5.3
	l-2.4,1.3l0.2,1.3h-1.8l-7.6,1.3l-3.9-1.3l-4.9-2.6l-0.9-5.3l1.6-1.5l-0.2-1.1L858.4,326.4z M848.9,351.8h15.9l0.7,3.8l-8.3,29.2
	l2.4,0.4h4.4l4.5-2.4l10.2-4l0.4,2.4l-6.1,4h-2.3l-3.9,2.8h-4.2l-2.4,1.3h-13.5l-5.1-2.6l-1.4-7.9l2.1-1.5l-0.7-4L848.9,351.8z
	 M639.7,368l-2.4,1.3h-6.8l-8.4,4l0.3,1.5l-1.9,1.1l0.9,5.3l4.9,2.8l7.2,2.6h4.9l2.1,1.3h23.4l1.8-1.3l15.9-2.6h4.7l3.7-2.8l7.1-1.1
	l3.8-3.4l-26.3-6.2l-7.2-1.1h-6.8l-2.6-1.3H639.7z M786.7,268.2h13l3.1,1.3h3.9l8.5,4.1l0.2,1.3l4.8,5.3l2.4,13.4l-1.3,1.3l1,5.5
	l-2.1,1.3l0.5,2.6l-3.2,6.8l-3.1,1.3h-8.8L804,314h-5.2l-0.7-4.1l8.3-10.5l-0.7-4.1l1.1-4l3.4-8.7l-2.5-0.8l-1-5.5l-7.7-5.5h-9.4
	l-4.7,2.6H783l-8.4,8.3l-4.2,2.4l-13.4,28.2l-1.4,5.5L742.4,349l-17,21.5h-2.1l-2.2,0.6l2.5,0.9h2.1l21.5,4l2.8,1.3h9.1l14,1.5
	l2.6,1.3h16.4l-3.3,7.9l-2.1,1.3H775l-20.7-2.6l-24.1-4.1l-18.1-4l-3.4,2.6l-28.7,6.8l-1.8,1.3H669l-2.4,1.1h-25.5l-2-1.1h-7.3
	l-9.6-4.1l-8.2-5.1l-0.9-5.3l1.8-4.3h2.1l2.2-2.4l10.5-4l11.2-2.8h27.5l2.6,1.3h7l16.6,2.8l18.4,4l0.8-1.3l4.2-4l4.6-12.2l12.3-34.8
	l-0.2-1.3l3.5-6.8l-0.3-1.7l1.6-4l14.8-20.3l15-9.2h1.8l4.7-2.6L786.7,268.2z"/>
<path fill-rule="evenodd" clip-rule="evenodd" fill="#F29EC4" d="M19.1,157.3c19-18.7,51.8-19.4,75.4-10.3l15.8,7
	c2.1-2,4-5.7,5.8-8.4c15.3-23.3,45.8-32,72.3-28.5c25.5,3.3,51,27.9,54,63.6c1.3,15.8-2.1,24.5-8.5,36.4l-8,12.6
	c-22,29.7-42.3,29.4-58.4,46.9c-8.7,9.5-12.5,23.4-8.9,41.8C112.4,326.1-56.3,257,19.1,157.3"/>
<path fill-rule="evenodd" clip-rule="evenodd" fill="#F6F6F6" d="M108.6,161.5c-4.8-2-9.8-4.7-16.2-6.1
	C-13.7,136.5-29.5,286,148.8,310.7c-3.2-9.2-3-21.3,0.4-27.8c11.5-22.5,31.4-29.5,47-41.6c12.4-9.7,21-20.2,25.8-31.5
	c5.3-12.6,7.7-28.5,0.7-45.2c-6.6-15.8-18.7-23.8-30.2-27.9c-47.5-17.3-97.7,28.3-68.5,64c1.8,2.2,6.3,5.8,7,7.4
	c-6.9,1.6-16.7-8.1-19.8-15.7C106.4,180.5,108.6,171.2,108.6,161.5"/>
<path fill="#9C9D9D" d="M592.6,361.8c0,7.1-5.8,12.9-12.9,12.9c-7.1,0-12.9-5.8-12.9-12.9c0-7.1,5.8-12.9,12.9-12.9
	C586.9,348.8,592.6,354.6,592.6,361.8"/>
<path fill="#9C9D9D" d="M124.4,361.8c0,7.1-5.8,12.9-12.9,12.9c-7.1,0-12.9-5.8-12.9-12.9c0-7.1,5.8-12.9,12.9-12.9
	C118.6,348.8,124.4,354.6,124.4,361.8"/>
<rect x="115" y="357.9" fill-rule="evenodd" clip-rule="evenodd" fill="#9C9D9D" width="463.7" height="7.8"/>
</svg>
