<svg id="Layer_1" data-name="Layer 1" xmlns="http://www.w3.org/2000/svg" viewBox="0 0 186 186"><defs><style>.cls-1{fill:#fc78a8;}</style></defs><title>bathing-icon</title><path class="cls-1" d="M151,116.3a1.48,1.48,0,0,0-.08-.45l0-.07a1.49,1.49,0,0,0-.2-.36c-.12-.16-12.13-15.78-25.05-31.21-14.47-17.28-22.37-25.13-26.84-28.7,7.36,0,16.54-1.14,19.58-6,1.44-2.29,1.39-5.07-.14-8.27-2.11-4.41-5.08-5.34-7.19-5.34-7,0-15,9.88-18.5,14.65-3.48-4.77-11.53-14.65-18.5-14.65-2.11,0-5.08.93-7.19,5.34-1.53,3.2-1.58,6-.14,8.27,3.11,4.94,12.63,6,20.06,6h.31c-4.47,3.58-12.37,11.43-26.84,28.7-12.92,15.43-24.93,31.05-25.05,31.21a1.49,1.49,0,0,0-.2.36l0,.07a1.48,1.48,0,0,0-.08.45v21.82a1.5,1.5,0,0,0,.36,1c5.83,6.88,16,11,27.29,11,10.92,0,21-4,26.87-10.5a5.94,5.94,0,0,0,7.06,0c5.83,6.51,16,10.5,26.87,10.5,11.26,0,21.46-4.1,27.29-11a1.5,1.5,0,0,0,.36-1V116.3ZM111.1,38.93c1.85,0,3.31,1.19,4.48,3.63,1.07,2.24,1.17,4,.3,5.37-1.83,2.91-8.22,4.57-17.52,4.57-1.28,0-2.44,0-3.4-.07C98.72,47.33,106,38.93,111.1,38.93ZM86.84,52.51h0c-9.31,0-15.69-1.67-17.52-4.57-.87-1.38-.77-3.14.3-5.37,1.17-2.44,2.64-3.63,4.48-3.63,5.15,0,12.39,8.4,16.13,13.51C89.29,52.48,88.13,52.51,86.84,52.51Zm6.16,3c4.66,0,27.23,25.84,48.46,52.85a41.19,41.19,0,0,0-18.06-4c-10.92,0-21,4-26.87,10.5a5.94,5.94,0,0,0-7.06,0c-5.83-6.51-16-10.5-26.87-10.5a41.18,41.18,0,0,0-18.06,4C65.77,81.35,88.34,55.51,93,55.51Zm55.05,82.05c-5.26,5.88-14.64,9.51-24.65,9.51-10.68,0-20.46-4-25.52-10.55a1.5,1.5,0,0,0-1.11-.58H96.7a1.5,1.5,0,0,0-1.09.47A3.64,3.64,0,0,1,93,137.75a3.78,3.78,0,0,1-2.61-1.34,1.5,1.5,0,0,0-2.28.11c-5.06,6.51-14.84,10.55-25.52,10.55-10,0-19.39-3.63-24.65-9.51V116.89c5.26-5.88,14.64-9.51,24.65-9.51,10.68,0,20.46,4,25.52,10.55a1.5,1.5,0,0,0,1.11.58,1.53,1.53,0,0,0,1.16-.47A3.77,3.77,0,0,1,93,116.7,3.64,3.64,0,0,1,95.61,118a1.52,1.52,0,0,0,1.16.47,1.5,1.5,0,0,0,1.11-.58c5.06-6.51,14.84-10.55,25.52-10.55,10,0,19.39,3.63,24.65,9.51Z"/><path class="cls-1" d="M80.12,123.4a1,1,0,0,1-.58-.18c-.14-.1-14.64-10.16-30.22-3.52a1,1,0,0,1-.78-1.84c16.63-7.08,31.54,3.28,32.16,3.73a1,1,0,0,1-.58,1.82Z"/><path class="cls-1" d="M60.64,138.57a30.63,30.63,0,0,1-12.1-2.47,1,1,0,0,1,.78-1.84c15.61,6.65,30.07-3.42,30.22-3.52a1,1,0,0,1,1.16,1.63A37.61,37.61,0,0,1,60.64,138.57Z"/><path class="cls-1" d="M124.57,138.82a37.61,37.61,0,0,1-20.06-6.2,1,1,0,0,1,1.16-1.63c.14.1,14.64,10.16,30.22,3.52a1,1,0,0,1,.78,1.84A30.64,30.64,0,0,1,124.57,138.82Z"/><path class="cls-1" d="M105.09,123.65a1,1,0,0,1-.58-1.82c.63-.44,15.53-10.82,32.16-3.73a1,1,0,0,1-.78,1.84c-15.61-6.65-30.08,3.42-30.22,3.52A1,1,0,0,1,105.09,123.65Z"/></svg>