<?xml version="1.0" encoding="utf-8"?>
<!-- Generator: Adobe Illustrator 18.0.0, SVG Export Plug-In . SVG Version: 6.00 Build 0)  -->
<!DOCTYPE svg PUBLIC "-//W3C//DTD SVG 1.1//EN" "http://www.w3.org/Graphics/SVG/1.1/DTD/svg11.dtd">
<svg version="1.1" id="Layer_1" xmlns="http://www.w3.org/2000/svg" xmlns:xlink="http://www.w3.org/1999/xlink" x="0px" y="0px"
	 viewBox="0 0 265 150" enable-background="new 0 0 265 150" xml:space="preserve">
<g>
	<path fill-rule="evenodd" clip-rule="evenodd" d="M63.5,63.9c-2.3-1.8-5.2-2.8-8.3-2.8c-7.4,0-13.5,6-13.5,13.5
		c0,7.4,6,13.5,13.5,13.5c3.1,0,6-1.1,8.3-2.8l1.5,1.8c-2.7,2.1-6.1,3.4-9.8,3.4c-8.8,0-15.8-7.1-15.8-15.8
		c0-8.8,7.1-15.8,15.8-15.8c3.8,0,7.3,1.3,10,3.5L63.5,63.9z"/>
	<rect x="90.7" y="58.7" fill-rule="evenodd" clip-rule="evenodd" width="2.3" height="31.2"/>
	<polygon fill-rule="evenodd" clip-rule="evenodd" points="105,91.3 95.3,70.5 98.1,70.5 105,85.6 112,70.5 114.7,70.5 	"/>
	<rect x="117.5" y="70.5" fill-rule="evenodd" clip-rule="evenodd" width="2.3" height="19.4"/>
	<circle fill-rule="evenodd" clip-rule="evenodd" cx="118.7" cy="60.2" r="1.4"/>
	<path fill-rule="evenodd" clip-rule="evenodd" d="M124.1,89.9V70.5h2.3v1.7c0,0,1.5-2.4,5.5-2.4c4,0,7.8,3.3,7.8,7.6
		c0,4.3,0,12.4,0,12.4h-2.4c0,0,0-9.8,0-12c0-2.3-1.6-5.6-5.6-5.6c-4,0-5.3,3.5-5.3,4.9c0,1.4,0,12.7,0,12.7H124.1z"/>
	<polygon fill-rule="evenodd" clip-rule="evenodd" points="151,58.7 151,89.9 153.2,89.9 153.2,76.5 155.5,74.2 166.6,89.9 
		169.5,89.9 157,72.2 169.6,58.7 166.4,58.7 153.2,72.9 153.2,58.7 	"/>
	<rect x="173.1" y="58.7" fill-rule="evenodd" clip-rule="evenodd" width="2.3" height="31.2"/>
	<rect x="203.3" y="70.5" fill-rule="evenodd" clip-rule="evenodd" width="2.3" height="19.4"/>
	<circle fill-rule="evenodd" clip-rule="evenodd" cx="204.5" cy="60.2" r="1.4"/>
	<path fill-rule="evenodd" clip-rule="evenodd" d="M210,89.9V70.5h2.3v1.7c0,0,1.5-2.4,5.5-2.4c4,0,7.8,3.3,7.8,7.6
		c0,4.3,0,12.4,0,12.4h-2.4c0,0,0-9.8,0-12c0-2.3-1.6-5.6-5.6-5.6c-4,0-5.3,3.5-5.3,4.9c0,1.4,0,12.7,0,12.7H210z"/>
	<path fill-rule="evenodd" clip-rule="evenodd" d="M181.7,78c0.9-3.4,4-5.9,7.7-5.9c3.7,0,6.8,2.5,7.7,5.9H181.7z M199.6,80
		c0-5.7-4.6-10.3-10.3-10.3c-5.7,0-10.3,4.6-10.3,10.3c0,5.7,4.6,10.3,10.3,10.3c4,0,7.6-2.4,9.3-5.7l-2.1-1
		c-1.3,2.6-4.1,4.4-7.2,4.4c-4.9,0-7.8-3.7-8-8H199.6z"/>
	<path fill-rule="evenodd" clip-rule="evenodd" d="M67.8,80.3c0-4.5,3.6-8.1,8.1-8.1c4.5,0,8.1,3.6,8.1,8.1c0,4.5-3.6,8.1-8.1,8.1
		C71.5,88.5,67.8,84.8,67.8,80.3z M84.2,86.7c-1.9,2.5-4.9,4-8.2,4c-5.7,0-10.4-4.6-10.4-10.4C65.6,74.6,70.2,70,76,70
		c3.4,0,6.3,1.6,8.2,4.1v-3.5h2.2v19.4h-2.2L84.2,86.7z"/>
</g>
</svg>
