<?xml version="1.0" encoding="utf-8"?>
<!-- Generator: Adobe Illustrator 18.0.0, SVG Export Plug-In . SVG Version: 6.00 Build 0)  -->
<!DOCTYPE svg PUBLIC "-//W3C//DTD SVG 1.1//EN" "http://www.w3.org/Graphics/SVG/1.1/DTD/svg11.dtd">
<svg version="1.1" id="Layer_1" xmlns="http://www.w3.org/2000/svg" xmlns:xlink="http://www.w3.org/1999/xlink" x="0px" y="0px"
	 viewBox="0 0 265 164.6" enable-background="new 0 0 265 164.6" xml:space="preserve">
<title>ck-logo</title>
<g>
	<path id="path2492" d="M68.8,72.5c-2.2-1.7-4.9-2.6-7.6-2.7c-3.2,0.1-6.3,1.4-8.7,3.6c-2.2,2.3-3.4,5.4-3.6,8.6
		c0.1,3.2,1.4,6.2,3.6,8.6c2.4,2.2,5.5,3.4,8.7,3.5c2.7-0.1,5.4-1,7.6-2.6l1.6,1.6c-2.7,2-5.9,3.2-9.2,3.3
		c-3.8-0.1-7.5-1.7-10.3-4.3c0,0-4.3-4.2-4.3-10.1c0.1-3.8,1.7-7.3,4.3-10.1c0,0,4.3-4.3,10.3-4.3c3.3,0.1,6.5,1.2,9.2,3.2
		L68.8,72.5"/>
	<path id="path2496" d="M80.4,77.8c-2.5,0.1-4.9,1-6.7,2.7c-3.6,3.5-3.7,9.3-0.2,12.9c0.1,0.1,0.1,0.1,0.2,0.2
		c1.8,1.7,4.2,2.6,6.7,2.7c4.5,0,7.5-3.8,7.5-3.8v3.3H90V78.3H88v3C86.1,79.2,83.3,77.9,80.4,77.8z M80.4,79.8
		c1.9,0.1,3.7,0.8,5.2,2c2.8,2.7,2.9,7.2,0.2,10.1c-0.1,0.1-0.1,0.2-0.2,0.2c-1.4,1.3-3.3,2.1-5.2,2.1c-4,0-7.3-3.2-7.4-7.3
		c0.1-1.9,0.9-3.8,2.2-5.2C76.7,80.6,78.5,79.9,80.4,79.8z"/>
	<path id="path2498" d="M119.8,70.3c-0.7,0-1.3-0.5-1.3-1.2c0,0,0,0,0,0c0,0,0-1.4,1.3-1.4c0.7,0,1.4,0.6,1.4,1.3c0,0,0,0,0,0
		C121.2,69.8,120.6,70.3,119.8,70.3C119.9,70.3,119.9,70.3,119.8,70.3"/>
	<path id="path2500" d="M96.3,67.7v28.1h-2.2V67.7H96.3"/>
	<path id="path2502" d="M107.2,92l6.4-13.7h2.3L107.2,97l-8.9-18.6h2.4L107.2,92"/>
	<path id="path2504" d="M126.9,80c1.3-1.5,3.1-2.3,5.1-2.3c1.9,0.1,3.7,0.8,5.1,2c1.3,1.3,2,3.1,2.1,5v11.1H137V84.8
		c0-1.3-0.6-2.6-1.5-3.6c-1-0.9-2.2-1.4-3.6-1.5c-1.3,0-2.6,0.5-3.6,1.4c-0.9,1-1.5,2.4-1.5,3.8v11.1h-2.1V78.3h2.1V80"/>
	<path id="path2506" d="M120.9,78.3v17.5h-2.1V78.3H120.9"/>
	<path id="path2508" d="M166.8,67.8l-11.4,12.1l11.3,15.9H164l-10.2-14.4l-2.1,2.1v12.2h-2.1V67.7h2.1v12.8l12-12.7H166.8"/>
	<path id="path2510" d="M172.1,67.7v28.1h-2.2V67.7H172.1"/>
	<path id="path2512" d="M184.9,77.8c-2.5,0.1-4.9,1-6.7,2.7c-1.7,1.8-2.6,4.1-2.7,6.6c0.1,2.4,1,4.7,2.7,6.4
		c1.8,1.7,4.2,2.6,6.7,2.7c3.6-0.1,6.9-2,8.6-5.2l-1.9-0.8c-2.1,4-6.7,4-6.7,4c-1.9-0.1-3.7-0.8-5.1-2c-1.3-1.3-2.1-3.1-2.2-5h16.8
		V87c-0.1-2.5-1.1-4.8-2.8-6.6C189.7,78.8,187.4,77.9,184.9,77.8z M184.9,79.7c1.6,0.1,3.2,0.6,4.5,1.6c1.2,1,2.2,2.3,2.7,3.8h-14.2
		c0.5-1.5,1.4-2.8,2.5-3.8C181.7,80.3,183.3,79.8,184.9,79.7L184.9,79.7z"/>
	<path id="path2516" d="M197.6,69.1c0,0,0-1.4,1.3-1.4c0.7,0,1.3,0.5,1.3,1.2c0,0,0,0.1,0,0.1c0,0.7-0.6,1.3-1.3,1.3
		C198.2,70.3,197.7,69.8,197.6,69.1"/>
	<path id="path2518" d="M206.2,78.3V80c1.3-1.5,3.1-2.3,5.1-2.3c1.9,0.1,3.7,0.8,5.1,2c1.3,1.3,2,3.1,2.1,5v11.1h-2.2V84.8
		c0-1.3-0.5-2.6-1.4-3.6c-1-0.9-2.3-1.4-3.6-1.5c-1.3,0-2.5,0.5-3.5,1.4c-0.9,1-1.5,2.4-1.5,3.8v11.1H204V78.3H206.2"/>
	<path id="path2520" d="M199.9,78.3v17.5h-2.1V78.3H199.9"/>
</g>
</svg>
