<svg id="Layer_1" data-name="Layer 1" xmlns="http://www.w3.org/2000/svg" viewBox="0 0 300 186"><title>ck-logo</title><path id="path2492" d="M82.21,82.54a14.33,14.33,0,0,0-8.11-2.88,14.24,14.24,0,0,0-9.22,3.85,14.34,14.34,0,0,0-3.81,9.13,14.23,14.23,0,0,0,3.81,9.13,14.44,14.44,0,0,0,9.22,3.73,14.73,14.73,0,0,0,8.11-2.76l1.72,1.68a17.33,17.33,0,0,1-9.83,3.49,16.93,16.93,0,0,1-10.94-4.57s-4.55-4.45-4.55-10.7a16.38,16.38,0,0,1,4.55-10.7s4.55-4.57,10.94-4.57a17.76,17.76,0,0,1,9.83,3.37l-1.72,1.8"/><path id="path2496" d="M94.62,88.19a11.17,11.17,0,0,0-7.13,2.88,9.71,9.71,0,0,0,0,13.94,11.22,11.22,0,0,0,7.13,2.88c4.79,0,8-4,8-4v3.49h2.21V88.79h-2.21V92A11.08,11.08,0,0,0,94.62,88.19Zm0,2.16a9,9,0,0,1,5.53,2.16,7.57,7.57,0,0,1,0,10.94,8.68,8.68,0,0,1-5.53,2.28A7.89,7.89,0,0,1,86.76,98a8.49,8.49,0,0,1,2.34-5.53A8.76,8.76,0,0,1,94.62,90.35Z"/><path id="path2498" d="M136.54,80.26a1.32,1.32,0,0,1-1.35-1.32s0-1.44,1.35-1.44A1.43,1.43,0,0,1,138,78.94a1.35,1.35,0,0,1-1.48,1.32"/><path id="path2500" d="M111.47,77.49v29.93h-2.34V77.49h2.34"/><path id="path2502" d="M123.14,103.34l6.76-14.54h2.46l-9.22,19.83-9.46-19.83h2.58l6.88,14.54"/><path id="path2504" d="M144,90.6a7.07,7.07,0,0,1,5.41-2.4,8.53,8.53,0,0,1,5.41,2.16,8.09,8.09,0,0,1,2.21,5.29v11.78h-2.21V95.64a5.91,5.91,0,0,0-1.6-3.85,5.62,5.62,0,0,0-3.81-1.56,6.29,6.29,0,0,0-3.81,1.44,6,6,0,0,0-1.6,4v11.78h-2.21V88.79H144v1.8"/><path id="path2506" d="M137.65,88.79v18.63h-2.21V88.79h2.21"/><path id="path2508" d="M186.45,77.62,174.28,90.48l12,16.95H183.5L172.68,92.16l-2.21,2.28v13h-2.21V77.49h2.21V91.08l12.78-13.46h3.2"/><path id="path2510" d="M192.1,77.49v29.93h-2.34V77.49h2.34"/><path id="path2512" d="M205.74,88.19a11.17,11.17,0,0,0-7.13,2.88,10.76,10.76,0,0,0-2.83,7,10.42,10.42,0,0,0,2.83,6.85,11.22,11.22,0,0,0,7.13,2.88,10.52,10.52,0,0,0,9.1-5.53l-2-.84c-2.21,4.21-7.13,4.21-7.13,4.21a8.43,8.43,0,0,1-5.41-2.16A7.87,7.87,0,0,1,198,98.17h17.82V98a10.34,10.34,0,0,0-3-7A11.22,11.22,0,0,0,205.74,88.19Zm0,2a8.47,8.47,0,0,1,4.79,1.68,8.69,8.69,0,0,1,2.83,4H198.24a9,9,0,0,1,2.7-4A8.75,8.75,0,0,1,205.74,90.23Z"/><path id="path2516" d="M219.26,78.94s0-1.44,1.35-1.44A1.35,1.35,0,0,1,222,78.94a1.35,1.35,0,0,1-2.7,0"/><path id="path2518" d="M228.36,88.79v1.8a6.77,6.77,0,0,1,5.41-2.4,8.53,8.53,0,0,1,5.41,2.16,8.09,8.09,0,0,1,2.21,5.29v11.78h-2.34V95.64a6.21,6.21,0,0,0-1.48-3.85,6,6,0,0,0-3.81-1.56A6.08,6.08,0,0,0,230,91.68a6,6,0,0,0-1.6,4v11.78H226V88.79h2.34"/><path id="path2520" d="M221.72,88.79v18.63h-2.21V88.79h2.21"/></svg>