<?xml version="1.0" encoding="utf-8"?>
<!-- Generator: Adobe Illustrator 18.0.0, SVG Export Plug-In . SVG Version: 6.00 Build 0)  -->
<!DOCTYPE svg PUBLIC "-//W3C//DTD SVG 1.1//EN" "http://www.w3.org/Graphics/SVG/1.1/DTD/svg11.dtd">
<svg version="1.1" id="Layer_1" xmlns="http://www.w3.org/2000/svg" xmlns:xlink="http://www.w3.org/1999/xlink" x="0px" y="0px"
	 viewBox="0 0 265 164.6" enable-background="new 0 0 265 164.6" xml:space="preserve">
<g>
	<path id="path2492" d="M69.9,72.5c0,0-3.3-2.8-7.5-2.8c0,0-5,0-8.5,3.6c0,0-3.5,3.6-3.5,8.6c0,0,0,5,3.5,8.6c0,0,3.5,3.5,8.5,3.5
		c0,0,4.1,0,7.5-2.6l1.6,1.6c0,0-4,3.3-9,3.3c0,0-5.9,0-10.1-4.3c0,0-4.1-4.1-4.1-10.1c0,0,0-5.9,4.1-10.1c0,0,4.1-4.3,10.1-4.3
		c0,0,5.1,0,9,3.1L69.9,72.5"/>
	<path id="path2496" d="M81.3,77.9c-3.9,0-6.6,2.8-6.6,2.8c-2.8,2.8-2.8,6.6-2.8,6.6c0,3.9,2.8,6.6,2.8,6.6c2.8,2.8,6.6,2.8,6.6,2.8
		c4.4,0,7.4-3.8,7.4-3.8v3.3h2V78.6h-2v3C85.8,77.9,81.3,77.9,81.3,77.9z M81.3,79.9c3,0,5.1,2,5.1,2c2.1,2.1,2.1,5.3,2.1,5.3
		c0,3-2.1,5.1-2.1,5.1c-2.1,2.1-5.1,2.1-5.1,2.1c-3,0-5.1-2.1-5.1-2.1c-2.1-2.1-2.1-5.1-2.1-5.1c0-3,2.1-5.3,2.1-5.3
		C78.3,79.9,81.3,79.9,81.3,79.9z"/>
	<path id="path2498" d="M120,70.3c0,0-1.3,0-1.3-1.3c0,0,0-1.4,1.3-1.4c0,0,1.4,0,1.4,1.4C121.4,69.1,121.4,70.3,120,70.3"/>
	<path id="path2500" d="M96.9,67.7v28.2h-2.1V67.7H96.9"/>
	<path id="path2502" d="M107.6,92.1l6.3-13.8h2.3L107.6,97l-8.8-18.7h2.4L107.6,92.1"/>
	<path id="path2504" d="M126.9,80.1c0,0,1.8-2.3,5-2.3c0,0,3,0,5,2c0,0,2,2,2,5V96h-2V84.9c0,0,0-2.1-1.5-3.6c0,0-1.4-1.5-3.5-1.5
		c0,0-2,0-3.5,1.4c0,0-1.5,1.5-1.5,3.8V96h-2V78.5h2V80.1"/>
	<path id="path2506" d="M121,78.4v17.5h-2V78.4H121"/>
	<path id="path2508" d="M166,67.8L154.7,80l11.1,16h-2.6l-10-14.4l-2,2.1V96h-2V67.7h2v12.8L163,67.8H166"/>
	<path id="path2510" d="M171.3,67.7v28.2h-2.1V67.7H171.3"/>
	<path id="path2512" d="M183.9,77.9c-3.9,0-6.6,2.8-6.6,2.8c-2.6,2.6-2.6,6.6-2.6,6.6c0,3.9,2.6,6.5,2.6,6.5
		c2.8,2.8,6.6,2.8,6.6,2.8c5.9,0,8.4-5.3,8.4-5.3l-1.8-0.8c-2,4-6.6,4-6.6,4c-3,0-5-2-5-2c-2.1-2-2.1-5-2.1-5h16.4v-0.1
		c0-4-2.8-6.6-2.8-6.6C187.7,77.9,183.9,77.9,183.9,77.9z M183.9,79.7c2.5,0,4.4,1.6,4.4,1.6c1.9,1.5,2.6,3.8,2.6,3.8h-14
		c0.6-2.3,2.5-3.8,2.5-3.8C181.5,79.7,183.9,79.7,183.9,79.7z"/>
	<path id="path2516" d="M196.3,69.1c0,0,0-1.4,1.3-1.4c0,0,1.3,0,1.3,1.4c0,0,0,1.3-1.3,1.3C197.6,70.3,196.3,70.3,196.3,69.1"/>
	<path id="path2518" d="M204.7,78.4v1.8c0,0,1.6-2.3,5-2.3c0,0,3,0,5,2c0,0,2,2,2,5V96h-2.1V84.9c0,0,0-2.1-1.4-3.6
		c0,0-1.5-1.5-3.5-1.5c0,0-2.1,0-3.5,1.4c0,0-1.5,1.5-1.5,3.8V96h-2.1V78.5h2.1"/>
	<path id="path2520" d="M198.6,78.4v17.5h-2V78.4H198.6"/>
</g>
</svg>
