<?xml version="1.0" encoding="utf-8"?>
<!-- Generator: Adobe Illustrator 18.0.0, SVG Export Plug-In . SVG Version: 6.00 Build 0)  -->
<!DOCTYPE svg PUBLIC "-//W3C//DTD SVG 1.1//EN" "http://www.w3.org/Graphics/SVG/1.1/DTD/svg11.dtd">
<svg version="1.1" id="Layer_1" xmlns="http://www.w3.org/2000/svg" xmlns:xlink="http://www.w3.org/1999/xlink" x="0px" y="0px"
	 viewBox="0 0 265 164.6" enable-background="new 0 0 265 164.6" xml:space="preserve">
<title>ck-logo</title>
<g>
	<path id="path2492" d="M63.6,71.7c-2.4-1.8-5.3-2.8-8.2-2.9c-3.5,0.1-6.8,1.5-9.4,3.9c-2.4,2.5-3.7,5.8-3.9,9.3
		c0.1,3.5,1.5,6.8,3.9,9.3c2.6,2.3,5.9,3.7,9.4,3.8c3-0.1,5.8-1.1,8.2-2.8l1.7,1.7c-2.9,2.2-6.4,3.4-10,3.5
		c-4.1-0.2-8.1-1.8-11.1-4.6c0,0-4.6-4.5-4.6-10.9c0.2-4.1,1.8-7.9,4.6-10.9c0,0,4.6-4.6,11.1-4.6c3.6,0.1,7.1,1.3,10,3.4L63.6,71.7
		"/>
	<path id="path2496" d="M76.2,77.5c-2.7,0.1-5.3,1.1-7.3,2.9c-3.9,3.8-4,10-0.2,14c0.1,0.1,0.1,0.1,0.2,0.2c2,1.8,4.6,2.8,7.3,2.9
		c4.9,0,8.1-4.1,8.1-4.1V97h2.2V78.1h-2.2v3.3C82.3,79,79.3,77.6,76.2,77.5z M76.2,79.7c2.1,0.1,4.1,0.8,5.6,2.2
		c3.1,2.9,3.2,7.8,0.2,10.9c-0.1,0.1-0.2,0.2-0.2,0.2c-1.5,1.4-3.5,2.2-5.6,2.3c-4.4,0-7.9-3.5-8-7.9c0.1-2.1,0.9-4.1,2.4-5.6
		C72.1,80.5,74.1,79.7,76.2,79.7z"/>
	<path id="path2498" d="M118.8,69.4c-0.7,0-1.4-0.6-1.4-1.3c0,0,0,0,0,0c0,0,0-1.5,1.4-1.5c0.8,0,1.5,0.6,1.5,1.4c0,0,0,0,0,0
		C120.3,68.8,119.7,69.4,118.8,69.4C118.9,69.4,118.8,69.4,118.8,69.4"/>
	<path id="path2500" d="M93.3,66.6V97h-2.4V66.6H93.3"/>
	<path id="path2502" d="M105.2,92.9l6.9-14.8h2.5l-9.4,20.2l-9.6-20.2h2.6L105.2,92.9"/>
	<path id="path2504" d="M126.4,79.9c1.4-1.6,3.4-2.5,5.5-2.4c2,0.1,4,0.8,5.5,2.2c1.4,1.5,2.2,3.4,2.2,5.4v12h-2.2v-12
		c0-1.5-0.6-2.9-1.6-3.9c-1-1-2.4-1.6-3.9-1.6c-1.4,0-2.8,0.6-3.9,1.5c-1,1.1-1.6,2.6-1.6,4.1v12h-2.2v-19h2.2V79.9"/>
	<path id="path2506" d="M119.9,78.1V97h-2.2V78.1H119.9"/>
	<path id="path2508" d="M169.6,66.7l-12.4,13.1l12.2,17.2h-2.8l-11-15.5l-2.2,2.3v13.2h-2.2V66.6h2.2v13.8l13-13.7H169.6"/>
	<path id="path2510" d="M175.3,66.6V97h-2.4V66.6H175.3"/>
	<path id="path2512" d="M189.2,77.5c-2.7,0.1-5.3,1.1-7.3,2.9c-1.8,1.9-2.8,4.5-2.9,7.1c0.1,2.6,1.1,5.1,2.9,7
		c2,1.8,4.6,2.8,7.3,2.9c3.9-0.1,7.4-2.2,9.3-5.6l-2-0.9c-2.2,4.3-7.3,4.3-7.3,4.3c-2-0.1-4-0.8-5.5-2.2c-1.4-1.4-2.3-3.4-2.3-5.4
		h18.1v-0.2c-0.1-2.7-1.2-5.2-3.1-7.1C194.4,78.6,191.8,77.6,189.2,77.5z M189.2,79.5c1.8,0.1,3.5,0.7,4.9,1.7
		c1.3,1.1,2.3,2.5,2.9,4.1h-15.4c0.5-1.6,1.5-3,2.7-4.1C185.7,80.2,187.4,79.6,189.2,79.5L189.2,79.5z"/>
	<path id="path2516" d="M202.9,68.1c0,0,0-1.5,1.4-1.5c0.8,0,1.4,0.6,1.4,1.3c0,0,0,0.1,0,0.1c0,0.8-0.6,1.4-1.4,1.4
		C203.6,69.5,203,68.8,202.9,68.1"/>
	<path id="path2518" d="M212.2,78.1v1.8c1.4-1.6,3.4-2.5,5.5-2.4c2,0.1,4,0.8,5.5,2.2c1.4,1.5,2.2,3.4,2.2,5.4v12h-2.4v-12
		c0-1.4-0.6-2.8-1.5-3.9c-1.1-1-2.4-1.5-3.9-1.6c-1.4,0-2.8,0.6-3.8,1.5c-1,1.1-1.6,2.6-1.6,4.1v12h-2.4v-19H212.2"/>
	<path id="path2520" d="M205.4,78.1V97h-2.2V78.1H205.4"/>
</g>
</svg>
