<?xml version="1.0" encoding="utf-8"?>
<!-- Generator: Adobe Illustrator 18.0.0, SVG Export Plug-In . SVG Version: 6.00 Build 0)  -->
<!DOCTYPE svg PUBLIC "-//W3C//DTD SVG 1.1//EN" "http://www.w3.org/Graphics/SVG/1.1/DTD/svg11.dtd">
<svg version="1.1" id="Layer_1" xmlns="http://www.w3.org/2000/svg" xmlns:xlink="http://www.w3.org/1999/xlink" x="0px" y="0px"
	 viewBox="0 0 265 164.6" enable-background="new 0 0 265 164.6" xml:space="preserve">
<g>
	<path fill="#231F20" d="M192.6,99.6c0.6,0.9,0.4,2.1-0.5,2.6c0,0-12.4,7.5-21.5,10.7c-8.9,3.2-17.7,5-25.2,5.4
		c-7.5,0.5-16.2,2.3-25.2,5.4c-8.9,3.2-21.5,10.7-21.5,10.7c-0.9,0.5-2.1,0.3-2.7-0.5c0,0-6.1-8.7-8.4-15.4
		c-2.3-6.7-3.5-13.3-3.4-19.2c0.1-5.8-0.9-12.4-3.4-19.2S72.4,65,72.4,65c-0.6-0.9-0.4-2.1,0.5-2.6c0,0,12.4-7.5,21.5-10.7
		c8.9-3.2,17.7-5,25.2-5.4c7.5-0.5,16.2-2.3,25.2-5.4c8.9-3.2,21.5-10.7,21.5-10.7c0.9-0.5,2.1-0.3,2.7,0.6c0,0,6.1,8.7,8.4,15.4
		s3.5,13.3,3.4,19.2c-0.1,5.8,0.9,12.4,3.4,19.2C186.5,90.8,192.6,99.6,192.6,99.6L192.6,99.6z"/>
	<path fill="#FFFFFF" d="M107.1,79.1H96.5v7.6c0,1.3,0.1,2.1,0.5,2.5s1,0.5,2.1,0.5h0.3v0.9h-8.5v-0.9H91c1,0,1.7-0.3,2.1-0.5
		c0.4-0.4,0.5-1.2,0.5-2.5V71.4c0-1.3-0.1-2.1-0.5-2.5s-1-0.5-2.1-0.5h-0.3v-0.9h8.5v0.9H99c-1,0-1.7,0.3-2.1,0.5
		c-0.4,0.4-0.5,1.2-0.5,2.5v6.5h10.6v-6.5c0-1.3-0.1-2.1-0.5-2.5s-1-0.5-2.1-0.5h-0.3v-0.9h8.5v0.9h-0.3c-1,0-1.7,0.3-2.1,0.5
		c-0.4,0.4-0.5,1.2-0.5,2.5v15.3c0,1.3,0.1,2.1,0.5,2.5c0.3,0.4,1,0.5,2.1,0.5h0.3v0.9h-8.5v-0.9h0.3c1,0,1.7-0.3,2.1-0.6
		c0.4-0.4,0.5-1.2,0.5-2.5V79.1L107.1,79.1z"/>
	<path fill="#FFFFFF" d="M122.2,87.9c-0.9,1-1.9,1.6-3.1,1.6c-0.6,0-1.3-0.3-1.7-0.8c-0.5-0.5-0.8-1.2-0.8-1.8c0-1,0.4-1.9,1-2.5
		c0.8-0.6,2.2-1.3,4.5-1.9l0.9-0.3v3C123.1,86.2,122.7,87.2,122.2,87.9L122.2,87.9z M124.3,90.3c0.5,0.5,1.2,0.9,2.1,0.9
		c0.9,0,1.9-0.3,3-0.8v-0.9c-0.4,0-0.6,0.1-1,0.1c-0.9,0-1.6-0.3-1.9-0.9c-0.3-0.6-0.5-1.8-0.5-3.6V78c0-1.6-0.4-2.7-1.2-3.4
		s-1.9-1-3.6-1c-2.1,0-3.8,0.5-5,1.6c-1.4,1-2.1,2.2-2.1,3.4v0.4l3.2-1v-0.8c0-0.8,0.3-1.4,0.6-1.8c0.5-0.4,1.2-0.6,2.1-0.6
		c0.9,0,1.7,0.3,2.2,0.6c0.4,0.3,0.6,0.6,0.8,1c0.1,0.4,0.1,1.2,0.1,2.2v2.3l-2.1,0.6c-2.7,0.8-4.5,1.6-5.7,2.5
		c-1.2,0.9-1.7,1.9-1.7,3.2c0,1.2,0.4,2.1,1,2.8c0.8,0.8,1.7,1.2,2.7,1.2c1,0,2.1-0.3,3.1-0.9c1-0.5,1.9-1.4,2.7-2.6
		C123.5,88.9,123.8,89.7,124.3,90.3L124.3,90.3z"/>
	<path fill="#FFFFFF" d="M134.2,77.9v8.8c0,1.3,0.1,2.1,0.5,2.5c0.4,0.4,1,0.5,2.1,0.5h0.3v0.9h-8.4v-0.9h0.3c1,0,1.7-0.3,2.1-0.5
		c0.4-0.4,0.5-1.2,0.5-2.5V80c0-1.4-0.1-2.2-0.3-2.6c-0.3-0.4-0.8-0.8-1.7-1.2l-0.9-0.4v-0.3l5.6-2.1V77c1.2-1.2,2.3-2.1,3.4-2.6
		s2.1-0.9,3-0.9c1.3,0,2.5,0.5,3.4,1.4c0.9,0.9,1.4,2.7,1.4,5.2v6.6c0,1.3,0.1,2.1,0.5,2.5c0.4,0.4,1,0.5,2.1,0.5h0.3v0.9h-8.3v-0.9
		h0.3c1,0,1.7-0.3,2.1-0.6c0.3-0.4,0.5-1.2,0.5-2.5v-6.7c0-1.4-0.3-2.6-0.8-3.2c-0.5-0.6-1.3-1-2.3-1c-0.8,0-1.7,0.1-2.5,0.5
		C136.1,76.7,135.2,77.2,134.2,77.9L134.2,77.9z"/>
	<path fill="#FFFFFF" d="M152.6,76.1c0.9-1.2,1.9-1.7,3.2-1.7c1,0,1.8,0.4,2.5,1.3c0.6,0.8,1,1.9,1,3.2c0,0.9-0.3,1.4-0.9,1.6
		c-0.6,0.3-2.1,0.4-4.3,0.4h-3.1C151.2,78.8,151.7,77.2,152.6,76.1L152.6,76.1z M157.4,89.3c-1.8,0-3.4-0.6-4.5-1.9
		c-1.2-1.3-1.8-3-1.8-4.9c0-0.1,0-0.4,0-0.6h11.4v-0.5c0-2.5-0.5-4.4-1.7-5.7c-1.2-1.4-2.7-2.1-4.8-2.1c-2.3,0-4.3,0.9-5.7,2.5
		c-1.6,1.7-2.3,3.8-2.3,6.3s0.8,4.7,2.5,6.3c1.6,1.7,3.6,2.5,6.1,2.5c2.1,0,4.1-0.6,6.3-1.9v-1.4C160.9,88.8,159.1,89.3,157.4,89.3
		L157.4,89.3z"/>
	<path fill="#FFFFFF" d="M164.4,89.9l-0.4-4.3h1.2v0.3c0.4,2.7,1.8,4.1,4.3,4.1c1,0,1.9-0.4,2.6-0.9c0.8-0.6,1.2-1.4,1.2-2.3
		c0-0.5-0.1-1-0.5-1.4c-0.4-0.4-1.3-1-2.7-1.8l-1.4-0.8c-2.7-1.4-4-3.1-4-4.9c0-1.3,0.5-2.5,1.6-3.2s2.3-1.2,4-1.2
		c1.4,0,3,0.3,4.8,0.9v3.5h-1.2v-0.3c-0.1-0.5-0.1-0.9-0.3-1.3c-0.1-0.4-0.3-0.6-0.5-0.9c-0.3-0.3-0.5-0.5-0.9-0.8
		c-0.4-0.3-1-0.4-1.8-0.4c-0.8,0-1.6,0.3-2.1,0.8c-0.5,0.5-0.8,1.2-0.8,1.8c0,1.2,1,2.2,3.1,3.4l1.6,0.9c1.6,0.9,2.6,1.7,3.2,2.3
		c0.5,0.8,0.9,1.6,0.9,2.7c0,1.4-0.5,2.6-1.7,3.5c-1.2,0.9-2.7,1.3-4.7,1.3C167.4,91.1,165.7,90.7,164.4,89.9L164.4,89.9z"/>
</g>
</svg>
