<?xml version="1.0" encoding="utf-8"?>
<!-- Generator: Adobe Illustrator 18.0.0, SVG Export Plug-In . SVG Version: 6.00 Build 0)  -->
<!DOCTYPE svg PUBLIC "-//W3C//DTD SVG 1.1//EN" "http://www.w3.org/Graphics/SVG/1.1/DTD/svg11.dtd">
<svg version="1.1" id="Layer_1" xmlns="http://www.w3.org/2000/svg" xmlns:xlink="http://www.w3.org/1999/xlink" x="0px" y="0px"
	 viewBox="0 0 187.1 163.2" enable-background="new 0 0 187.1 163.2" xml:space="preserve">
<g>
	<path fill-rule="evenodd" clip-rule="evenodd" d="M186.6,108.6c0.9,1.3,0.6,3.1-0.8,4c0,0-19.3,11.6-33.2,16.6
		c-13.9,4.9-27.4,7.8-39,8.5c-11.7,0.8-25.1,3.6-39,8.5c-13.9,5-33.2,16.6-33.2,16.6c-1.4,0.8-3.3,0.4-4.2-0.9
		c0,0-9.4-13.5-13.1-23.9c-3.7-10.4-5.4-20.7-5.2-29.7c0.2-9-1.5-19.3-5.2-29.7C9.9,68.1,0.5,54.6,0.5,54.6c-0.9-1.3-0.6-3.1,0.8-4
		c0,0,19.3-11.6,33.2-16.6c13.9-4.9,27.4-7.8,39-8.5c11.7-0.8,25.1-3.6,39-8.5c13.9-5,33.2-16.6,33.2-16.6c1.4-0.8,3.3-0.4,4.2,0.9
		c0,0,9.4,13.5,13.1,23.9c3.7,10.4,5.4,20.7,5.2,29.7c-0.2,9,1.5,19.3,5.2,29.7C177.2,95.1,186.6,108.6,186.6,108.6L186.6,108.6z"/>
	<path fill-rule="evenodd" clip-rule="evenodd" fill="#FFFFFF" d="M54,76.9l-16.3,0l0,11.9c0,1.9,0.3,3.2,0.8,3.8
		c0.5,0.6,1.6,0.9,3.2,0.9H42l0,1.4l-13.3,0l0-1.4h0.4c1.6,0,2.7-0.3,3.2-0.9c0.5-0.6,0.8-1.9,0.7-3.8l0-23.7c0-1.9-0.3-3.2-0.8-3.8
		c-0.5-0.6-1.6-0.9-3.2-0.9h-0.4l0-1.5l13.3,0l0,1.5h-0.3c-1.6,0-2.7,0.3-3.2,0.9c-0.5,0.6-0.8,1.8-0.8,3.8l0,10.1l16.3,0L54,65
		c0-1.9-0.3-3.2-0.8-3.8c-0.5-0.6-1.6-0.9-3.2-0.9l-0.3,0l0-1.5l13.3,0l0,1.5h-0.4c-1.6,0-2.7,0.3-3.2,0.9c-0.5,0.6-0.8,1.9-0.7,3.8
		l0,23.7c0,1.9,0.3,3.2,0.8,3.8c0.5,0.6,1.6,0.9,3.2,0.9l0.4,0l0,1.4l-13.3,0l0-1.4h0.4c1.6,0,2.7-0.3,3.2-0.9
		c0.5-0.6,0.8-1.9,0.8-3.8L54,76.9L54,76.9z"/>
	<path fill-rule="evenodd" clip-rule="evenodd" fill="#FFFFFF" d="M77.4,90.4c-1.5,1.6-3.1,2.4-4.8,2.4c-1,0-1.9-0.4-2.7-1.2
		c-0.8-0.8-1.1-1.8-1.2-2.9c0-1.7,0.6-3,1.7-3.9c1.1-0.9,3.5-1.9,7-3.1l1.3-0.4l0,4.6C78.8,87.8,78.4,89.3,77.4,90.4L77.4,90.4z
		 M80.7,94.2c0.8,0.9,1.8,1.3,3.1,1.3c1.5,0,3-0.4,4.5-1.3l0-1.4c-0.6,0.1-1.1,0.1-1.5,0.1c-1.5,0-2.4-0.5-2.9-1.4
		c-0.5-0.9-0.7-2.8-0.8-5.6l0-11c0-2.4-0.6-4.1-1.7-5.2c-1.2-1.1-3-1.6-5.7-1.6c-3.1,0-5.8,0.8-7.9,2.4c-2.1,1.7-3.2,3.4-3.2,5.3
		v0.7l5-1.6v-1.2c0-1.2,0.4-2.1,1.1-2.7c0.7-0.6,1.8-0.9,3.2-0.9c1.4,0,2.5,0.3,3.5,1c0.6,0.4,1,1,1.2,1.6c0.2,0.6,0.3,1.7,0.3,3.3
		l0,3.6l-3.2,0.9c-4.1,1.2-7.1,2.4-8.9,3.8c-1.8,1.4-2.7,3-2.7,4.9c0,1.7,0.6,3.2,1.7,4.3c1.1,1.1,2.5,1.7,4.2,1.7
		c1.7,0,3.3-0.4,4.8-1.3c1.5-0.9,3-2.2,4.3-4C79.4,92,80,93.3,80.7,94.2L80.7,94.2z"/>
	<path fill-rule="evenodd" clip-rule="evenodd" fill="#FFFFFF" d="M96.1,75l0,13.7c0,1.9,0.3,3.2,0.8,3.8c0.5,0.6,1.6,0.9,3.3,0.9
		h0.3l0,1.4l-12.9,0v-1.4h0.4c1.6,0,2.6-0.3,3.1-0.9c0.5-0.6,0.8-1.9,0.7-3.8l0-10.4c0-2.1-0.2-3.5-0.5-4.1
		c-0.3-0.6-1.2-1.2-2.5-1.8l-1.3-0.6l0-0.3l8.6-3.2l0,5.3c1.8-1.8,3.6-3.1,5.3-4c1.7-0.9,3.2-1.3,4.7-1.3c2.1,0,3.8,0.7,5.2,2.1
		c1.4,1.5,2.1,4.1,2.1,8l0,10.3c0,1.9,0.3,3.2,0.8,3.8c0.5,0.6,1.6,0.9,3.2,0.9h0.3l0,1.4l-12.9,0l0-1.4h0.4c1.6,0,2.7-0.3,3.2-0.9
		c0.5-0.6,0.8-1.9,0.7-3.8l0-10.4c0-2.3-0.4-3.9-1.1-5c-0.8-1-2-1.5-3.7-1.5c-1.2,0-2.5,0.3-3.9,0.8C99,73.1,97.6,73.9,96.1,75
		L96.1,75z"/>
	<path fill-rule="evenodd" clip-rule="evenodd" fill="#FFFFFF" d="M124.5,72.2c1.3-1.8,3-2.7,4.9-2.7c1.6,0,2.9,0.6,3.9,1.9
		c1,1.3,1.5,2.9,1.5,5c0,1.3-0.5,2.1-1.4,2.5c-0.9,0.3-3.1,0.5-6.6,0.5l-4.8,0C122.4,76.4,123.2,74,124.5,72.2L124.5,72.2z
		 M131.9,92.5c-2.8,0-5.2-1-7.1-3c-1.9-2-2.9-4.5-2.9-7.5c0-0.2,0-0.6,0-1.1l17.7,0v-0.7c0-3.8-0.9-6.7-2.7-8.8
		c-1.8-2.1-4.3-3.2-7.5-3.2c-3.6,0-6.5,1.3-8.9,3.9c-2.4,2.6-3.5,5.9-3.5,9.8c0,4,1.2,7.2,3.7,9.8c2.5,2.6,5.6,3.8,9.5,3.8
		c3.2,0,6.5-1,9.8-2.9l0-2.2C137.3,91.8,134.6,92.5,131.9,92.5L131.9,92.5z"/>
	<path fill-rule="evenodd" clip-rule="evenodd" fill="#FFFFFF" d="M142.8,93.6l-0.6-6.5l1.9,0l0.1,0.5c0.7,4.2,2.9,6.4,6.5,6.4
		c1.6,0,3-0.5,4.1-1.5c1.1-1,1.7-2.2,1.7-3.6c0-0.9-0.3-1.6-0.9-2.3c-0.6-0.6-2-1.6-4.3-2.8l-2.2-1.2c-4.2-2.3-6.3-4.8-6.3-7.7
		c0-2.1,0.8-3.8,2.3-5c1.5-1.2,3.6-1.8,6.3-1.8c2.2,0,4.7,0.5,7.4,1.4l0,5.4l-1.9,0l-0.1-0.4c-0.1-0.7-0.3-1.4-0.4-1.9
		c-0.2-0.5-0.4-1-0.8-1.4c-0.3-0.4-0.8-0.8-1.5-1.1c-0.6-0.3-1.6-0.5-2.8-0.5c-1.3,0-2.4,0.4-3.2,1.1c-0.8,0.7-1.2,1.7-1.2,2.9
		c0,1.7,1.6,3.5,4.9,5.3l2.4,1.3c2.4,1.3,4,2.5,4.9,3.6c0.9,1.1,1.3,2.5,1.3,4.1c0,2.3-0.9,4.1-2.7,5.4c-1.8,1.4-4.2,2.1-7.2,2.1
		C147.5,95.4,144.9,94.8,142.8,93.6L142.8,93.6z"/>
</g>
</svg>
