<?xml version="1.0" encoding="utf-8"?>
<!-- Generator: Adobe Illustrator 18.0.0, SVG Export Plug-In . SVG Version: 6.00 Build 0)  -->
<!DOCTYPE svg PUBLIC "-//W3C//DTD SVG 1.1//EN" "http://www.w3.org/Graphics/SVG/1.1/DTD/svg11.dtd">
<svg version="1.1" id="Layer_1" xmlns="http://www.w3.org/2000/svg" xmlns:xlink="http://www.w3.org/1999/xlink" x="0px" y="0px"
	 viewBox="67.5 49 265 150" enable-background="new 67.5 49 265 150" xml:space="preserve">
<g>
	<path d="M268.4,143.8c0.7,1,0.4,2.3-0.6,2.9c0,0-14.2,8.6-24.4,12.2c-10.2,3.6-20.1,5.7-28.7,6.2c-8.6,0.6-18.5,2.6-28.7,6.2
		c-10.3,3.7-24.4,12.2-24.4,12.2c-1,0.6-2.4,0.3-3.1-0.6c0,0-6.9-9.9-9.6-17.6c-2.7-7.6-4-15.2-3.8-21.8c0.1-6.6-1.1-14.2-3.8-21.8
		c-2.6-7.6-9.6-17.6-9.6-17.6c-0.7-1-0.4-2.3,0.6-2.9c0,0,14.2-8.6,24.4-12.2c10.2-3.6,20.1-5.7,28.7-6.2c8.6-0.6,18.5-2.6,28.7-6.2
		c10.3-3.7,24.4-12.2,24.4-12.2c1-0.6,2.4-0.3,3.1,0.6c0,0,6.9,9.9,9.6,17.6c2.7,7.6,4,15.2,3.8,21.8c-0.1,6.6,1.1,14.2,3.8,21.8
		C261.5,133.9,268.4,143.8,268.4,143.8L268.4,143.8z"/>
	<path fill="#FFFFFF" d="M171,120.5h-12v8.7c0,1.4,0.2,2.3,0.6,2.8c0.3,0.5,1.2,0.6,2.3,0.6h0.2v1h-9.8v-1h0.3c1.2,0,2-0.2,2.3-0.6
		c0.3-0.5,0.5-1.4,0.5-2.8l-0.1-17.4c0-1.4-0.2-2.3-0.6-2.7c-0.3-0.4-1.2-0.6-2.3-0.6h-0.3v-1h9.8v1h-0.2c-1.2,0-2,0.2-2.3,0.6
		c-0.3,0.4-0.6,1.3-0.6,2.7v7.4h12v-7.4c0-1.4-0.2-2.3-0.6-2.7c-0.3-0.4-1.2-0.6-2.3-0.6h-0.2v-1h9.8v1h-0.3c-1.2,0-2,0.2-2.3,0.6
		c-0.3,0.5-0.5,1.3-0.5,2.8l0.1,17.4c0,1.4,0.2,2.3,0.6,2.8c0.3,0.5,1.2,0.6,2.3,0.6h0.3v1h-9.8v-1h0.2c1.2,0,2-0.2,2.3-0.6
		c0.3-0.5,0.6-1.4,0.6-2.8L171,120.5L171,120.5z"/>
	<path fill="#FFFFFF" d="M188.1,130.4c-1,1.2-2.3,1.8-3.5,1.8c-0.8,0-1.4-0.3-2-0.9c-0.6-0.6-0.8-1.3-0.9-2.1c0-1.2,0.4-2.2,1.2-2.9
		s2.6-1.4,5.2-2.3l1-0.3v3.4C189.2,128.6,188.8,129.6,188.1,130.4L188.1,130.4z M190.6,133.2c0.6,0.6,1.3,1,2.3,1
		c1.1,0,2.2-0.3,3.3-0.9v-1c-0.4,0.1-0.8,0.1-1.1,0.1c-1,0-1.8-0.3-2.2-1c-0.3-0.7-0.5-2-0.5-4.1v-8c0-1.7-0.4-3-1.3-3.8
		c-0.9-0.8-2.2-1.2-4.1-1.2c-2.3,0-4.3,0.6-5.8,1.8c-1.6,1.2-2.4,2.5-2.4,3.9v0.5l3.7-1.2v-0.9c0-0.9,0.2-1.6,0.8-2
		c0.5-0.5,1.3-0.6,2.3-0.6c1,0,1.9,0.2,2.6,0.8c0.5,0.3,0.8,0.7,0.9,1.2s0.2,1.3,0.2,2.4v2.7l-2.3,0.7c-3,0.9-5.2,1.8-6.5,2.8
		c-1.3,1-2,2.2-2,3.6c0,1.3,0.4,2.3,1.2,3.2c0.8,0.9,1.9,1.3,3.1,1.3s2.4-0.3,3.6-1c1.1-0.6,2.2-1.6,3.1-2.9
		C189.6,131.6,190,132.6,190.6,133.2L190.6,133.2z"/>
	<path fill="#FFFFFF" d="M201.9,119.1v10c0,1.4,0.2,2.3,0.6,2.8c0.4,0.5,1.2,0.6,2.4,0.6h0.2v1h-9.5v-1h0.3c1.2,0,1.9-0.2,2.3-0.6
		c0.3-0.5,0.5-1.3,0.5-2.8v-7.6c0-1.6-0.1-2.6-0.3-3c-0.2-0.5-0.9-0.9-1.9-1.3l-1-0.4v-0.2l6.3-2.4v3.9c1.3-1.3,2.6-2.3,3.8-3
		s2.4-1,3.4-1c1.5,0,2.8,0.5,3.8,1.6c1,1,1.6,3,1.6,5.9v7.6c0,1.4,0.2,2.3,0.6,2.8c0.3,0.5,1.2,0.6,2.4,0.6h0.2v1h-9.5v-1h0.3
		c1.2,0,2-0.2,2.3-0.6c0.3-0.5,0.5-1.4,0.5-2.8v-7.6c0-1.7-0.3-2.9-0.8-3.7s-1.5-1.1-2.7-1.1c-0.9,0-1.9,0.2-2.9,0.6
		C204,117.7,202.9,118.3,201.9,119.1L201.9,119.1z"/>
	<path fill="#FFFFFF" d="M222.8,117.1c1-1.3,2.2-2,3.6-2c1.2,0,2.1,0.5,2.9,1.4c0.8,0.9,1.1,2.2,1.1,3.7c0,1-0.3,1.6-1,1.8
		c-0.7,0.2-2.3,0.4-4.8,0.4h-3.5C221.2,120.2,221.8,118.4,222.8,117.1L222.8,117.1z M228.2,132c-2,0-3.8-0.8-5.2-2.2
		c-1.4-1.5-2.1-3.3-2.1-5.5c0-0.2,0-0.4,0-0.8h13v-0.5c0-2.8-0.6-5-2-6.5c-1.3-1.6-3.1-2.3-5.5-2.3c-2.6,0-4.8,0.9-6.5,2.9
		c-1.7,1.9-2.6,4.3-2.6,7.2c0,2.9,0.9,5.3,2.7,7.2c1.8,1.9,4.1,2.8,6.9,2.8c2.3,0,4.7-0.7,7.2-2.2v-1.6
		C232.2,131.5,230.2,132,228.2,132L228.2,132z"/>
	<path fill="#FFFFFF" d="M236.2,132.8l-0.4-4.8h1.3l0.1,0.3c0.5,3.1,2.1,4.7,4.8,4.7c1.2,0,2.2-0.3,3-1.1c0.8-0.8,1.3-1.6,1.3-2.6
		c0-0.6-0.2-1.2-0.6-1.7c-0.4-0.5-1.5-1.2-3.1-2l-1.6-0.9c-3.1-1.7-4.7-3.6-4.7-5.7c0-1.5,0.6-2.7,1.7-3.7c1.1-0.9,2.7-1.3,4.6-1.3
		c1.6,0,3.4,0.3,5.4,1v4h-1.3l-0.1-0.3c-0.1-0.5-0.2-1-0.3-1.4c-0.1-0.4-0.3-0.8-0.6-1s-0.6-0.6-1.1-0.8c-0.5-0.2-1.2-0.3-2-0.3
		c-0.9,0-1.7,0.3-2.3,0.8c-0.6,0.5-0.9,1.3-0.9,2.1c0,1.3,1.2,2.6,3.6,3.9l1.8,1c1.7,1,3,1.9,3.6,2.7c0.6,0.8,1,1.9,1,3
		c0,1.6-0.6,3-2,4c-1.3,1-3.1,1.5-5.2,1.5C239.7,134.1,237.8,133.7,236.2,132.8L236.2,132.8z"/>
</g>
</svg>
