<?xml version="1.0" encoding="utf-8"?>
<!-- Generator: Adobe Illustrator 18.0.0, SVG Export Plug-In . SVG Version: 6.00 Build 0)  -->
<!DOCTYPE svg PUBLIC "-//W3C//DTD SVG 1.1//EN" "http://www.w3.org/Graphics/SVG/1.1/DTD/svg11.dtd">
<svg version="1.1" id="Layer_1" xmlns="http://www.w3.org/2000/svg" xmlns:xlink="http://www.w3.org/1999/xlink" x="0px" y="0px"
	 viewBox="0 0 400 248" enable-background="new 0 0 400 248" xml:space="preserve">
<g>
	<path fill-rule="evenodd" clip-rule="evenodd" d="M320.9,155.1c1.2,1.7,0.7,3.9-1.1,5c0,0-24.3,14.7-41.9,20.9
		c-17.5,6.2-34.5,9.8-49.3,10.7c-14.7,1-31.7,4.5-49.3,10.7c-17.6,6.3-41.9,21-41.9,21c-1.8,1.1-4.2,0.5-5.3-1.1
		c0,0-11.8-17-16.5-30.2c-4.7-13.1-6.8-26.1-6.6-37.5c0.2-11.4-1.9-24.3-6.6-37.5C97.9,104,86,86.9,86,86.9c-1.2-1.7-0.7-3.9,1.1-5
		c0,0,24.3-14.7,41.9-20.9c17.5-6.2,34.5-9.8,49.3-10.7c14.7-1,31.7-4.5,49.3-10.7c17.6-6.3,41.9-20.9,41.9-20.9
		c1.8-1.1,4.2-0.6,5.3,1.1c0,0,11.8,17,16.5,30.2c4.7,13.1,6.8,26.1,6.6,37.5c-0.2,11.4,1.9,24.3,6.6,37.5
		C309,138,320.9,155.1,320.9,155.1L320.9,155.1z"/>
	<path fill-rule="evenodd" clip-rule="evenodd" fill="#FFFFFF" d="M153.6,115l-20.6,0l0,15c0,2.4,0.3,4,1,4.8c0.6,0.8,2,1.1,4,1.1
		h0.4l0,1.8l-16.8,0l0-1.8h0.5c2,0,3.4-0.4,4-1.1c0.6-0.8,0.9-2.4,0.9-4.8l-0.1-29.9c0-2.4-0.3-4-1-4.7c-0.6-0.7-2-1.1-4-1.1h-0.5
		l0-1.8l16.8,0l0,1.8h-0.4c-2,0-3.4,0.4-4,1.1c-0.6,0.7-1,2.3-1,4.7l0,12.7l20.6,0l0-12.7c0-2.4-0.3-4-1-4.7c-0.6-0.7-2-1.1-4-1.1
		l-0.4,0l0-1.8l16.8,0l0,1.8h-0.5c-2,0-3.4,0.4-4,1.1c-0.6,0.8-0.9,2.3-0.9,4.8l0.1,29.9c0,2.4,0.3,4,1,4.8c0.6,0.8,2,1.1,4,1.1
		l0.5,0l0,1.8l-16.8,0l0-1.8h0.4c2,0,3.4-0.4,4-1.1c0.6-0.8,1-2.4,1-4.8L153.6,115L153.6,115z"/>
	<path fill-rule="evenodd" clip-rule="evenodd" fill="#FFFFFF" d="M183.1,132.1c-1.8,2.1-3.9,3.1-6,3.1c-1.3,0-2.4-0.5-3.4-1.5
		c-1-1-1.4-2.2-1.5-3.6c0-2.1,0.7-3.8,2.1-4.9c1.4-1.1,4.4-2.4,8.9-3.9l1.7-0.5l0,5.8C184.9,128.9,184.3,130.7,183.1,132.1
		L183.1,132.1z M187.3,136.9c1,1.1,2.3,1.7,3.9,1.7c1.9,0,3.8-0.5,5.7-1.6l0-1.7c-0.7,0.1-1.3,0.1-1.9,0.1c-1.8,0-3.1-0.6-3.7-1.7
		c-0.6-1.2-0.9-3.5-0.9-7l0-13.8c0-3-0.7-5.2-2.2-6.6c-1.5-1.3-3.8-2-7.1-2c-4,0-7.3,1-10,3.1c-2.7,2.1-4.1,4.3-4.1,6.7v0.9l6.3-2
		v-1.5c0-1.5,0.4-2.7,1.3-3.4c0.9-0.8,2.2-1.1,4-1.1c1.7,0,3.2,0.4,4.4,1.3c0.8,0.5,1.3,1.2,1.5,2c0.2,0.8,0.4,2.2,0.4,4.2l0,4.6
		l-4,1.2c-5.2,1.5-8.9,3.1-11.2,4.8c-2.3,1.7-3.4,3.8-3.4,6.2c0,2.2,0.7,4,2.1,5.5c1.4,1.5,3.2,2.2,5.3,2.2c2.1,0,4.2-0.6,6.1-1.7
		c1.9-1.1,3.7-2.8,5.4-5C185.6,134.1,186.3,135.8,187.3,136.9L187.3,136.9z"/>
	<path fill-rule="evenodd" clip-rule="evenodd" fill="#FFFFFF" d="M206.7,112.7l0,17.2c0,2.4,0.3,4,1,4.8c0.7,0.8,2,1.1,4.1,1.1h0.4
		l0,1.8l-16.3,0v-1.8h0.5c2,0,3.3-0.4,4-1.1c0.6-0.8,0.9-2.3,0.9-4.8l0-13.1c0-2.7-0.2-4.4-0.6-5.2c-0.4-0.8-1.5-1.5-3.2-2.2
		l-1.7-0.7l0-0.4l10.9-4.1l0,6.7c2.3-2.3,4.5-4,6.6-5.1c2.1-1.1,4.1-1.7,5.9-1.7c2.6,0,4.8,0.9,6.6,2.7c1.8,1.8,2.7,5.2,2.7,10.1
		l0,13c0,2.4,0.3,4,1,4.8c0.6,0.8,2,1.1,4.1,1.1h0.4l0,1.8l-16.3,0l0-1.8h0.5c2,0,3.4-0.4,4-1.1c0.6-0.8,0.9-2.4,0.9-4.8l0-13.1
		c0-2.9-0.5-5-1.4-6.3c-0.9-1.3-2.5-1.9-4.6-1.9c-1.6,0-3.2,0.3-4.9,1C210.3,110.3,208.5,111.3,206.7,112.7L206.7,112.7z"/>
	<path fill-rule="evenodd" clip-rule="evenodd" fill="#FFFFFF" d="M242.6,109.2c1.7-2.2,3.7-3.4,6.2-3.4c2,0,3.6,0.8,4.9,2.4
		c1.3,1.6,1.9,3.7,1.9,6.3c0,1.7-0.6,2.7-1.7,3.1c-1.2,0.4-3.9,0.7-8.3,0.7l-6,0C239.9,114.5,240.9,111.4,242.6,109.2L242.6,109.2z
		 M251.9,134.8c-3.5,0-6.5-1.3-8.9-3.8c-2.4-2.6-3.6-5.7-3.6-9.5c0-0.3,0-0.7,0-1.4l22.4,0v-0.9c0-4.8-1.1-8.5-3.4-11.2
		c-2.3-2.7-5.4-4-9.5-4c-4.5,0-8.2,1.6-11.2,4.9c-3,3.3-4.5,7.4-4.5,12.3c0,5,1.6,9.1,4.7,12.4c3.1,3.2,7.1,4.8,11.9,4.8
		c4,0,8.1-1.2,12.4-3.7l0-2.7C258.7,133.9,255.3,134.8,251.9,134.8L251.9,134.8z"/>
	<path fill-rule="evenodd" clip-rule="evenodd" fill="#FFFFFF" d="M265.6,136.2l-0.7-8.2l2.3,0l0.1,0.6c0.8,5.4,3.6,8,8.3,8
		c2,0,3.7-0.6,5.2-1.9c1.4-1.3,2.2-2.8,2.2-4.5c0-1.1-0.4-2.1-1.1-2.9c-0.7-0.8-2.5-2-5.4-3.5l-2.8-1.5c-5.3-2.9-8-6.1-8-9.7
		c0-2.6,1-4.7,2.9-6.3c1.9-1.5,4.6-2.3,7.9-2.3c2.8,0,5.9,0.6,9.3,1.8l0,6.8l-2.3,0l-0.1-0.6c-0.1-0.9-0.3-1.7-0.6-2.4
		c-0.2-0.7-0.6-1.3-1-1.8c-0.4-0.5-1.1-1-1.9-1.4c-0.8-0.4-2-0.6-3.5-0.6c-1.6,0-3,0.5-4,1.4c-1,0.9-1.6,2.2-1.6,3.6
		c0,2.2,2.1,4.4,6.2,6.7l3.1,1.7c3,1.7,5.1,3.2,6.2,4.6c1.1,1.4,1.7,3.2,1.7,5.2c0,2.8-1.1,5.1-3.4,6.9c-2.3,1.7-5.3,2.6-9,2.6
		C271.6,138.4,268.3,137.7,265.6,136.2L265.6,136.2z"/>
</g>
</svg>
