<svg id="Layer_1" data-name="Layer 1" xmlns="http://www.w3.org/2000/svg" viewBox="0 0 300 186"><defs><style>.cls-1{fill:#231f20;}.cls-1,.cls-2{fill-rule:evenodd;}.cls-2{fill:#fff;}</style></defs><title>hanes-logo</title><path class="cls-1" d="M211,110.69a1.8,1.8,0,0,1-.55,2.6s-12.63,7.63-21.76,10.88a96.56,96.56,0,0,1-25.58,5.58,96.86,96.86,0,0,0-25.58,5.58c-9.13,3.25-21.76,10.88-21.76,10.88a2.11,2.11,0,0,1-2.78-.59s-6.15-8.85-8.59-15.69A55.74,55.74,0,0,1,101,110.46,55.62,55.62,0,0,0,97.59,91C95.16,84.15,89,75.31,89,75.31a1.8,1.8,0,0,1,.56-2.6s12.63-7.63,21.75-10.88a96.71,96.71,0,0,1,25.58-5.58,96.76,96.76,0,0,0,25.58-5.58c9.13-3.25,21.76-10.88,21.76-10.88a2.11,2.11,0,0,1,2.78.59s6.15,8.84,8.59,15.69A55.67,55.67,0,0,1,199,75.53,55.62,55.62,0,0,0,202.41,95c2.44,6.85,8.59,15.69,8.59,15.69Z"/><path class="cls-2" d="M124.09,89.9l-10.71,0v7.77a4.12,4.12,0,0,0,.51,2.47,2.72,2.72,0,0,0,2.09.59h.23v.94l-8.71,0v-.94h.24a2.74,2.74,0,0,0,2.08-.59,4.19,4.19,0,0,0,.49-2.48l0-15.54a4.15,4.15,0,0,0-.5-2.47,2.73,2.73,0,0,0-2.09-.58h-.24v-1l8.71,0v1H116a2.75,2.75,0,0,0-2.09.59,4.1,4.1,0,0,0-.5,2.47v6.6l10.71,0v-6.6a4.11,4.11,0,0,0-.51-2.46,2.75,2.75,0,0,0-2.09-.58h-.23v-1l8.71,0v1h-.24a2.73,2.73,0,0,0-2.08.59,4.15,4.15,0,0,0-.49,2.47l0,15.54a4.18,4.18,0,0,0,.5,2.48,2.72,2.72,0,0,0,2.09.58H130v.94h-8.71v-.94h.23a2.73,2.73,0,0,0,2.09-.59,4.13,4.13,0,0,0,.49-2.48V89.9Z"/><path class="cls-2" d="M139.44,98.76a4.19,4.19,0,0,1-3.14,1.6,2.34,2.34,0,0,1-1.77-.8,2.68,2.68,0,0,1-.76-1.89,3.09,3.09,0,0,1,1.1-2.56,15.89,15.89,0,0,1,4.62-2l.86-.27v3a4.22,4.22,0,0,1-.92,2.9Zm2.17,2.49a2.59,2.59,0,0,0,2,.86,6,6,0,0,0,3-.84v-.9a7.69,7.69,0,0,1-1,.08,2,2,0,0,1-1.93-.91,9,9,0,0,1-.49-3.66V88.69A4.49,4.49,0,0,0,142,85.27a5.38,5.38,0,0,0-3.7-1,8.27,8.27,0,0,0-5.17,1.6,4.51,4.51,0,0,0-2.1,3.46v.45l3.26-1.05v-.76a2.21,2.21,0,0,1,.69-1.79,3.16,3.16,0,0,1,2.09-.6,3.74,3.74,0,0,1,2.28.68,1.92,1.92,0,0,1,.79,1,8.55,8.55,0,0,1,.19,2.18v2.38l-2.08.61a18.46,18.46,0,0,0-5.81,2.49,4,4,0,0,0-.64,6.07,3.73,3.73,0,0,0,2.78,1.12,6.21,6.21,0,0,0,3.16-.87,10,10,0,0,0,2.82-2.6,4.89,4.89,0,0,0,1,2.59Z"/><path class="cls-2" d="M151.67,88.66l0,9a4.08,4.08,0,0,0,.51,2.48,2.84,2.84,0,0,0,2.13.58h.2v.94h-8.48v-.94h.27a2.68,2.68,0,0,0,2.05-.59,4.18,4.18,0,0,0,.49-2.48V90.79a7.23,7.23,0,0,0-.31-2.68,3.25,3.25,0,0,0-1.65-1.17l-.86-.38v-.23l5.64-2.12v3.5a16.1,16.1,0,0,1,3.45-2.65,6.46,6.46,0,0,1,3.06-.88,4.5,4.5,0,0,1,3.42,1.4Q163,87,163,90.84V97.6a4.15,4.15,0,0,0,.51,2.48,2.78,2.78,0,0,0,2.11.58h.21v.94l-8.47,0v-.94h.24a2.7,2.7,0,0,0,2.08-.59,4.19,4.19,0,0,0,.49-2.48V90.79a5.58,5.58,0,0,0-.74-3.25,2.78,2.78,0,0,0-2.41-1,7,7,0,0,0-2.55.53,12.62,12.62,0,0,0-2.79,1.59Z"/><path class="cls-2" d="M170.32,86.86a3.91,3.91,0,0,1,3.22-1.76,3.08,3.08,0,0,1,2.53,1.25,5.1,5.1,0,0,1,1,3.25,1.53,1.53,0,0,1-.9,1.63,16,16,0,0,1-4.3.35h-3.14a9.25,9.25,0,0,1,1.59-4.73Zm4.84,13.31a6.08,6.08,0,0,1-4.63-2,7,7,0,0,1-1.88-4.93c0-.13,0-.37,0-.71l11.62,0V92a8.72,8.72,0,0,0-1.76-5.79,6.06,6.06,0,0,0-4.91-2.07,7.57,7.57,0,0,0-5.83,2.56,9.14,9.14,0,0,0-2.32,6.41,8.88,8.88,0,0,0,2.44,6.42,8.23,8.23,0,0,0,6.2,2.51,13,13,0,0,0,6.44-1.91V98.72a11.55,11.55,0,0,1-5.38,1.45Z"/><path class="cls-2" d="M182.27,100.9l-.37-4.28h1.21l0,.31q.66,4.17,4.29,4.16a4,4,0,0,0,2.68-1,3,3,0,0,0,1.12-2.35,2.22,2.22,0,0,0-.58-1.5,12.29,12.29,0,0,0-2.79-1.83l-1.44-.78q-4.13-2.25-4.14-5a3.92,3.92,0,0,1,1.51-3.26,6.47,6.47,0,0,1,4.11-1.21,14.25,14.25,0,0,1,4.83.95v3.52h-1.21l0-.29a7,7,0,0,0-.29-1.25,2.79,2.79,0,0,0-.53-.92,3.23,3.23,0,0,0-1-.73,4,4,0,0,0-1.83-.33,3,3,0,0,0-2.09.74,2.43,2.43,0,0,0-.81,1.89q0,1.69,3.21,3.45l1.6.88A11.42,11.42,0,0,1,193,94.42a4.51,4.51,0,0,1-.88,6.26,7.57,7.57,0,0,1-4.69,1.35,10.76,10.76,0,0,1-5.18-1.13Z"/></svg>