<?xml version="1.0" encoding="utf-8"?>
<!-- Generator: Adobe Illustrator 21.0.2, SVG Export Plug-In . SVG Version: 6.00 Build 0)  -->
<svg version="1.1" id="Layer_1" xmlns="http://www.w3.org/2000/svg" xmlns:xlink="http://www.w3.org/1999/xlink" x="0px" y="0px"
	 viewBox="0 0 30 45" width="30" height="45" style="enable-background:new 0 0 30 45;" xml:space="preserve">
<style type="text/css">
	.st0{fill:#E676A9;}
</style>
<g>
	<path class="st0" d="M15,0C6.7,0,0,6.7,0,15c0,1.1,0.1,2.3,0.4,3.3c0,0.1,0.1,0.3,0.1,0.4c0.1,0.3,0.1,0.5,0.2,0.8
		c0.1,0.3,0.2,0.6,0.3,1c0.1,0.3,0.2,0.6,0.4,0.8c0,0,0,0.1,0,0.1c0.1,0.2,0.2,0.5,0.4,0.7l0.3,0.6L15,45l12.8-22.2l0.3-0.6
		c0.1-0.2,0.3-0.5,0.4-0.7c0,0,0-0.1,0-0.1c0.1-0.3,0.3-0.6,0.4-0.8c0.1-0.3,0.2-0.6,0.3-1c0.1-0.3,0.2-0.5,0.2-0.8
		c0-0.1,0.1-0.3,0.1-0.4c0.2-1.1,0.4-2.2,0.4-3.3C30,6.7,23.3,0,15,0z M15,27.5C8.1,27.5,2.5,21.9,2.5,15S8.1,2.5,15,2.5
		S27.5,8.1,27.5,15S21.9,27.5,15,27.5z M15,22.5l-0.3-0.2c-0.3-0.2-6.8-4.5-6.8-8.4c0-2.8,2-4.2,3.9-4.2c1.2,0,2.4,0.6,3.2,1.6
		c0.8-1,2-1.6,3.2-1.6c1.9,0,3.9,1.4,3.9,4.2c0,3.9-6.5,8.2-6.8,8.4L15,22.5z"/>
</g>
</svg>
