<?xml version="1.0" encoding="utf-8"?>
<!-- Generator: Adobe Illustrator 21.0.2, SVG Export Plug-In . SVG Version: 6.00 Build 0)  -->
<svg version="1.1" id="Layer_1" xmlns="http://www.w3.org/2000/svg" xmlns:xlink="http://www.w3.org/1999/xlink" x="0px" y="0px"
	 viewBox="0 0 45 67.5" width="45" height="68" style="enable-background:new 0 0 45 67.5;" xml:space="preserve">
<style type="text/css">
	.st0{fill:#E676A9;}
</style>
<g>
	<path class="st0" d="M22.5,0C10,0,0,10,0,22.5c0,1.7,0.2,3.4,0.6,4.9c0.1,0.2,0.1,0.5,0.2,0.7c0.1,0.4,0.2,0.8,0.3,1.2
		c0.1,0.4,0.3,1,0.4,1.5c0.2,0.5,0.3,0.9,0.6,1.2c0,0,0,0.1,0.1,0.1c0.2,0.3,0.3,0.8,0.6,1.1l0.5,0.9l19.2,33.3l19.2-33.3l0.6-0.9
		c0.2-0.3,0.3-0.7,0.6-1.1v-0.1c0.2-0.4,0.3-0.8,0.6-1.2c0.2-0.4,0.3-0.9,0.6-1.5c0.1-0.5,0.2-0.8,0.3-1.2c0-0.2,0.1-0.4,0.1-0.7
		c0.3-1.6,0.6-3.3,0.6-4.9C45,10,34.9,0,22.5,0z M22.5,41.3c-10.3,0-18.8-8.4-18.8-18.8S12.2,3.7,22.5,3.7s18.8,8.4,18.8,18.8
		S32.9,41.3,22.5,41.3z M22.5,33.8l-0.4-0.3c-0.5-0.2-10.2-6.8-10.2-12.6c0-4.2,2.9-6.3,5.9-6.3c1.9,0,3.6,0.9,4.8,2.4
		c1.2-1.5,2.9-2.4,4.8-2.4c2.9,0,5.9,2.1,5.9,6.3c0,5.9-9.8,12.3-10.2,12.6L22.5,33.8z"/>
</g>
</svg>
