<?xml version="1.0" encoding="utf-8"?>
<!-- Generator: Adobe Illustrator 21.0.2, SVG Export Plug-In . SVG Version: 6.00 Build 0)  -->
<svg version="1.1" id="Layer_1" xmlns="http://www.w3.org/2000/svg" xmlns:xlink="http://www.w3.org/1999/xlink" x="0px" y="0px"
	 viewBox="0 0 40 60" width="40" height="60" style="enable-background:new 0 0 40 60;" xml:space="preserve">
<style type="text/css">
	.st0{fill:#E676A9;}
</style>
<g>
	<path class="st0" d="M20,0C8.9,0,0,8.9,0,20c0,1.5,0.2,3,0.5,4.4c0.1,0.2,0.1,0.4,0.2,0.6c0.1,0.4,0.2,0.7,0.3,1.1
		c0.1,0.4,0.3,0.9,0.4,1.3c0.2,0.4,0.3,0.8,0.5,1.1c0,0,0,0.1,0.1,0.1c0.2,0.3,0.3,0.7,0.5,1l0.4,0.8L20,60l17.1-29.6l0.5-0.8
		c0.2-0.3,0.3-0.6,0.5-1c0,0,0-0.1,0-0.1c0.2-0.4,0.3-0.7,0.5-1.1c0.2-0.4,0.3-0.8,0.5-1.3c0.1-0.4,0.2-0.7,0.3-1.1
		c0-0.2,0.1-0.4,0.1-0.6C39.8,23,40,21.5,40,20C40,8.9,31,0,20,0z M20,36.7c-9.2,0-16.7-7.5-16.7-16.7S10.8,3.3,20,3.3
		S36.7,10.8,36.7,20S29.2,36.7,20,36.7z M20,30l-0.4-0.3c-0.4-0.2-9.1-6-9.1-11.2c0-3.7,2.6-5.6,5.2-5.6c1.7,0,3.2,0.8,4.3,2.1
		c1.1-1.3,2.6-2.1,4.3-2.1c2.6,0,5.2,1.9,5.2,5.6c0,5.2-8.7,10.9-9.1,11.2L20,30z"/>
</g>
</svg>
