<svg id="Layer_1" data-name="Layer 1" xmlns="http://www.w3.org/2000/svg" viewBox="0 0 118.39 106.61"><defs><style>.cls-1{fill:#fc78a8;}</style></defs><title>lenceria-icon</title><path class="cls-1" d="M58.71,79.21a1.49,1.49,0,0,1-.84-.26l-4.93-3.33a1.5,1.5,0,0,1,1.68-2.49l4.93,3.33a1.5,1.5,0,0,1-.84,2.74Z"/><path class="cls-1" d="M59.19,79.21a1.5,1.5,0,0,1-.84-2.74l4.93-3.33A1.5,1.5,0,0,1,65,75.62L60,78.95A1.49,1.49,0,0,1,59.19,79.21Z"/><path class="cls-1" d="M1.5,61.83a1.48,1.48,0,0,1-.29,0A1.5,1.5,0,0,1,0,60.33V1.5A1.5,1.5,0,0,1,2.8.74c6,10.23,7.89,23.89,5.52,39.5A98.33,98.33,0,0,1,2.89,60.9,1.5,1.5,0,0,1,1.5,61.83ZM3,8.09V50.78C5.77,40.45,8.75,23,3,8.09Z"/><path class="cls-1" d="M26,89.76c-21.82,0-26-28.69-26-29a1.5,1.5,0,0,1,.12-.83c.26-.56,6.48-13.67,24.64-13.67s28.52,16.57,29,17.28a1.5,1.5,0,0,1,.19,1.14C53.86,64.95,47.74,89.76,26,89.76Zm-23-28.93c.6,3.49,5.18,25.93,23,25.93,8.05,0,14.68-3.77,19.7-11.22a40.46,40.46,0,0,0,5.09-10.92c-1.9-2.75-11.42-15.33-26.06-15.33S4.18,58.79,3.06,60.82Z"/><path class="cls-1" d="M116.88,61.83a1.5,1.5,0,0,1-1.39-.93,98.3,98.3,0,0,1-5.42-20.65c-1.66-10.89-2-26.58,5.52-39.5a1.5,1.5,0,0,1,2.79.76V60.33a1.5,1.5,0,0,1-1.21,1.47A1.48,1.48,0,0,1,116.88,61.83Zm-1.5-53.74c-5.76,14.94-2.77,32.39,0,42.71Z"/><path class="cls-1" d="M92.35,89.76c-21.7,0-27.82-24.81-27.88-25.06a1.5,1.5,0,0,1,.19-1.14c.44-.71,10.92-17.28,29-17.28S118,59.39,118.25,59.95a1.5,1.5,0,0,1,.12.83C118.33,61.07,114.17,89.76,92.35,89.76ZM67.55,64.62a40.46,40.46,0,0,0,5.09,10.92c5,7.44,11.65,11.22,19.7,11.22,17.8,0,22.38-22.47,23-25.94-1.11-2.08-7-11.54-21.72-11.54S69.45,61.87,67.55,64.62Z"/><path class="cls-1" d="M65.92,65.85H52.46a1.5,1.5,0,0,1,0-3H65.92a1.5,1.5,0,0,1,0,3Z"/><path class="cls-1" d="M108.06,106.61H10.33a1.5,1.5,0,0,1-1.49-1.35C8.83,105.18,8,97,7,90.07,5.92,82.57.11,61.18.05,61a1.5,1.5,0,1,1,2.89-.79c.24.89,5.91,21.78,7,29.47.75,5.28,1.43,11.32,1.72,14h95c.29-3,1-10.43,1.8-15.47.84-5.52,6.7-27,6.95-28a1.5,1.5,0,1,1,2.89.79c-.06.22-6.06,22.27-6.87,27.62-1,6.34-1.9,16.55-1.91,16.66A1.5,1.5,0,0,1,108.06,106.61Z"/><path class="cls-1" d="M52.36,65.34h-.08l-3-.22A1,1,0,0,1,48.37,64a1,1,0,0,1,1.07-.92l3,.22a1,1,0,0,1-.07,2Zm-6-.44H46.3l-3-.22a1,1,0,1,1,.15-2l3,.22a1,1,0,0,1-.07,2Zm-6-.44h-.08l-3-.22a1,1,0,0,1-.92-1.07,1,1,0,0,1,1.07-.92l3,.22a1,1,0,0,1-.07,2Zm-6-.44h-.08l-3-.22a1,1,0,0,1-.92-1.07,1,1,0,0,1,1.07-.92l3,.22a1,1,0,0,1-.07,2Zm-6-.44h-.08l-3-.22a1,1,0,0,1-.92-1.07,1,1,0,0,1,1.07-.92l3,.22a1,1,0,0,1-.07,2Zm-6-.44h-.08l-3-.22a1,1,0,0,1-.92-1.07,1,1,0,0,1,1.07-.92l3,.22a1,1,0,0,1-.07,2Zm-6-.44h-.08l-3-.22a1,1,0,0,1,.15-2l3,.22a1,1,0,0,1-.07,2Zm-6-.44H10.4l-3-.22a1,1,0,0,1-.92-1.07A1,1,0,0,1,7.56,60l3,.22a1,1,0,0,1-.07,2Zm-6-.44H4.42l-3-.22A1,1,0,0,1,.5,60.5a1,1,0,0,1,1.07-.92l3,.22a1,1,0,0,1-.07,2Z"/><path class="cls-1" d="M66,65.34a1,1,0,0,1-.07-2l3-.22A1,1,0,0,1,70,64a1,1,0,0,1-.92,1.07l-3,.22Zm6-.44a1,1,0,0,1-.07-2l3-.22a1,1,0,1,1,.15,2l-3,.22Zm6-.44a1,1,0,0,1-.07-2l3-.22a1,1,0,0,1,1.07.92,1,1,0,0,1-.92,1.07l-3,.22ZM84,64a1,1,0,0,1-.07-2l3-.22a1,1,0,0,1,.15,2L84,64Zm6-.44a1,1,0,0,1-.07-2l3-.22a1,1,0,0,1,1.07.92A1,1,0,0,1,93,63.34l-3,.22Zm6-.44a1,1,0,0,1-.07-2l3-.22a1,1,0,0,1,1.07.92A1,1,0,0,1,99,62.9l-3,.22Zm6-.44a1,1,0,0,1-.07-2l3-.22a1,1,0,0,1,.15,2l-3,.22Zm6-.44a1,1,0,0,1-.07-2l3-.22a1,1,0,0,1,1.07.92A1,1,0,0,1,111,62l-3,.22Zm6-.44a1,1,0,0,1-.07-2l3-.22a1,1,0,0,1,.15,2l-3,.22Z"/></svg>