<svg id="Layer_1" data-name="Layer 1" xmlns="http://www.w3.org/2000/svg" viewBox="0 0 186 186"><defs><style>.cls-1{fill:#fc78a8;}</style></defs><title>lenceria-icon</title><path class="cls-1" d="M92.49,119.89a1.55,1.55,0,0,1-.87-.27l-5.12-3.46a1.56,1.56,0,1,1,1.74-2.58L93.37,117a1.56,1.56,0,0,1-.87,2.85Z"/><path class="cls-1" d="M93,119.89a1.56,1.56,0,0,1-.87-2.85l5.12-3.46A1.56,1.56,0,1,1,99,116.16l-5.12,3.46A1.54,1.54,0,0,1,93,119.89Z"/><path class="cls-1" d="M33.11,101.85a1.54,1.54,0,0,1-.3,0,1.56,1.56,0,0,1-1.26-1.53V39.22a1.56,1.56,0,0,1,2.9-.79c6.21,10.62,8.19,24.8,5.73,41a102.08,102.08,0,0,1-5.63,21.44A1.56,1.56,0,0,1,33.11,101.85Zm1.56-55.79V90.38C37.54,79.66,40.63,61.55,34.66,46.06Z"/><path class="cls-1" d="M58.58,130.84c-22.65,0-27-29.78-27-30.08a1.56,1.56,0,0,1,.13-.86c.27-.58,6.73-14.19,25.58-14.19s29.61,17.2,30.06,17.94a1.56,1.56,0,0,1,.19,1.18C87.47,105.09,81.11,130.84,58.58,130.84Zm-23.85-30c.63,3.63,5.38,26.92,23.85,26.92,8.36,0,15.24-3.92,20.46-11.65a42,42,0,0,0,5.29-11.34c-2-2.85-11.86-15.92-27.05-15.92S35.88,98.7,34.73,100.81Z"/><path class="cls-1" d="M152.89,101.85a1.56,1.56,0,0,1-1.44-1,102,102,0,0,1-5.63-21.44c-1.72-11.3-2.12-27.59,5.73-41a1.56,1.56,0,0,1,2.9.79v61.07a1.56,1.56,0,0,1-1.26,1.53A1.54,1.54,0,0,1,152.89,101.85Zm-1.56-55.79c-6,15.51-2.88,33.62,0,44.33Z"/><path class="cls-1" d="M127.42,130.84c-22.52,0-28.89-25.76-28.95-26a1.56,1.56,0,0,1,.19-1.18c.45-.73,11.34-17.94,30.06-17.94S154,99.32,154.31,99.9a1.56,1.56,0,0,1,.13.86C154.39,101.06,150.07,130.84,127.42,130.84Zm-25.74-26.1A42,42,0,0,0,107,116.08c5.21,7.73,12.1,11.65,20.45,11.65,18.48,0,23.23-23.33,23.85-26.93-1.16-2.15-7.28-12-22.55-12S103.65,101.89,101.68,104.74Z"/><path class="cls-1" d="M100,106H86a1.56,1.56,0,0,1,0-3.11h14a1.56,1.56,0,0,1,0,3.11Z"/><path class="cls-1" d="M143.73,148.34H42.27a1.56,1.56,0,0,1-1.55-1.4c0-.09-.9-8.61-1.92-15.77-1.11-7.79-7.14-30-7.2-30.22a1.56,1.56,0,1,1,3-.82c.25.92,6.14,22.61,7.28,30.59.78,5.48,1.49,11.75,1.78,14.49h98.64c.3-3.14,1.07-10.83,1.87-16.06.87-5.73,7-28.08,7.21-29a1.56,1.56,0,1,1,3,.82c-.06.23-6.3,23.11-7.14,28.67-1,6.58-2,17.19-2,17.29A1.56,1.56,0,0,1,143.73,148.34Z"/><path class="cls-1" d="M85.91,105.5h-.08l-3.11-.23a1,1,0,0,1-1-1.11,1,1,0,0,1,1.11-1l3.11.23a1,1,0,0,1-.08,2.07ZM79.7,105h-.08l-3.11-.23a1,1,0,1,1,.15-2.07l3.11.23A1,1,0,0,1,79.7,105Zm-6.21-.46h-.08l-3.11-.23a1,1,0,0,1-1-1.11,1,1,0,0,1,1.11-1l3.11.23a1,1,0,0,1-.08,2.07Zm-6.21-.46H67.2l-3.11-.23a1,1,0,0,1-1-1.11,1,1,0,0,1,1.11-1l3.11.23a1,1,0,0,1-.08,2.07Zm-6.21-.46H61l-3.11-.23a1,1,0,0,1-1-1.11,1,1,0,0,1,1.11-1l3.11.23a1,1,0,0,1-.08,2.07Zm-6.21-.46h-.08L51.67,103a1,1,0,0,1-1-1.11,1,1,0,0,1,1.11-1l3.11.23a1,1,0,0,1-.08,2.07Zm-6.21-.46h-.08l-3.11-.23a1,1,0,0,1,.15-2.07l3.11.23a1,1,0,0,1-.08,2.07Zm-6.21-.46h-.08L39.24,102a1,1,0,0,1-1-1.11,1,1,0,0,1,1.11-1l3.11.23a1,1,0,0,1-.08,2.07Zm-6.21-.46h-.08L33,101.58a1,1,0,0,1-1-1.11,1,1,0,0,1,1.11-1l3.11.23a1,1,0,0,1-.08,2.07Z"/><path class="cls-1" d="M100.09,105.5a1,1,0,0,1-.08-2.07l3.11-.23a1,1,0,0,1,1.11,1,1,1,0,0,1-1,1.11l-3.11.23Zm6.21-.46a1,1,0,0,1-.08-2.07l3.11-.23a1,1,0,1,1,.15,2.07l-3.11.23Zm6.21-.46a1,1,0,0,1-.08-2.07l3.11-.23a1,1,0,0,1,1.11,1,1,1,0,0,1-1,1.11l-3.11.23Zm6.21-.46a1,1,0,0,1-.08-2.07l3.11-.23a1,1,0,0,1,.15,2.07l-3.11.23Zm6.21-.46a1,1,0,0,1-.08-2.07l3.11-.23a1,1,0,0,1,1.11,1,1,1,0,0,1-1,1.11l-3.11.23Zm6.21-.46a1,1,0,0,1-.08-2.07l3.11-.23a1,1,0,0,1,1.11,1,1,1,0,0,1-1,1.11l-3.11.23Zm6.21-.46a1,1,0,0,1-.08-2.07l3.11-.23a1,1,0,0,1,.15,2.07l-3.11.23Zm6.21-.46a1,1,0,0,1-.08-2.07l3.11-.23a1,1,0,0,1,1.11,1,1,1,0,0,1-1,1.11l-3.11.23Zm6.21-.46a1,1,0,0,1-.08-2.07l3.11-.23a1,1,0,0,1,.15,2.07l-3.11.23Z"/></svg>