<svg id="Layer_1" data-name="Layer 1" xmlns="http://www.w3.org/2000/svg" viewBox="0 0 186 186"><defs><style>.cls-1{fill:#fc78a8;}</style></defs><title>lingerie-dress</title><path class="cls-1" d="M62.92,103.15a1,1,0,0,1-.26,0,30.54,30.54,0,0,1-5-1.83,1,1,0,1,1,.85-1.81,28.45,28.45,0,0,0,4.69,1.71,1,1,0,0,1-.26,2Z"/><path class="cls-1" d="M70.82,104.17q-1.59,0-3.15-.15a1,1,0,1,1,.19-2,35.11,35.11,0,0,0,15.52-2.22,1,1,0,1,1,.69,1.88A38.43,38.43,0,0,1,70.82,104.17Z"/><path class="cls-1" d="M122.9,103.15a1,1,0,0,1-.26-2,28.64,28.64,0,0,0,4.69-1.71,1,1,0,1,1,.85,1.81,30.48,30.48,0,0,1-5,1.83A1,1,0,0,1,122.9,103.15Z"/><path class="cls-1" d="M115,104.17a38.4,38.4,0,0,1-13.25-2.49,1,1,0,1,1,.69-1.88A35.07,35.07,0,0,0,118,102a1,1,0,0,1,.19,2Q116.6,104.17,115,104.17Z"/><path class="cls-1" d="M132.69,66.79a1.46,1.46,0,0,0,0-.22,1.52,1.52,0,0,0,0-.21V31a1.5,1.5,0,0,0-2.79-.76c-8.38,14.32-3.4,29.34-1,34.84C107.29,66.06,96.54,79.59,93,85.19,89.46,79.59,78.7,66,57.13,65.12c2.36-5.5,7.33-20.52-1-34.83a1.5,1.5,0,0,0-2.79.76V66.57a1.42,1.42,0,0,0,0,.21c.14,2.72,0,60.21,0,82.29a1.5,1.5,0,0,0,.44,1.06l.17.14a7.35,7.35,0,0,0,13.63,2.49,7.35,7.35,0,0,0,12.74,0,7.35,7.35,0,0,0,12.73,0,7.35,7.35,0,0,0,12.74,0,7.35,7.35,0,0,0,12.74,0,7.35,7.35,0,0,0,13.63-2.49l.17-.14a1.5,1.5,0,0,0,.44-1.06C132.65,127,132.55,69.53,132.69,66.79Zm-3-28.64v20.1A36.66,36.66,0,0,1,129.68,38.15Zm-38,50.69a1.5,1.5,0,0,0,2.72,0c.09-.2,9.51-20,35.33-20.75-.05,1.86-.05,5.22-.06,11.45,0,7.75,0,18.05,0,28.36,0,17.3.06,34.58.07,39.68H56.3c0-5.1,0-22.38.07-39.68,0-10.3,0-20.61,0-28.36,0-6.23,0-9.59-.06-11.45C82,68.82,91.25,88,91.64,88.84ZM56.29,38.17a36.76,36.76,0,0,1,0,20Zm4.87,116.29A5.36,5.36,0,0,1,56,150.59H66.29A5.36,5.36,0,0,1,61.16,154.45Zm12.73,0a5.36,5.36,0,0,1-5.13-3.87H79A5.36,5.36,0,0,1,73.9,154.45Zm12.74,0a5.36,5.36,0,0,1-5.13-3.87H91.76A5.36,5.36,0,0,1,86.63,154.45Zm12.74,0a5.36,5.36,0,0,1-5.13-3.87H104.5A5.36,5.36,0,0,1,99.37,154.45Zm12.73,0a5.36,5.36,0,0,1-5.13-3.87h10.27A5.36,5.36,0,0,1,112.1,154.45Zm12.74,0a5.36,5.36,0,0,1-5.13-3.87H130A5.36,5.36,0,0,1,124.84,154.45Z"/><path class="cls-1" d="M62,153.27H60.32a1,1,0,0,1,0-2H62a1,1,0,0,1,0,2Z"/><path class="cls-1" d="M125.68,153.27H124a1,1,0,0,1,0-2h1.68a1,1,0,1,1,0,2Z"/><path class="cls-1" d="M112.94,153.27h-1.68a1,1,0,0,1,0-2h1.68a1,1,0,0,1,0,2Z"/><path class="cls-1" d="M100.21,153.27H98.52a1,1,0,0,1,0-2h1.69a1,1,0,0,1,0,2Z"/><path class="cls-1" d="M87.47,153.27H85.79a1,1,0,0,1,0-2h1.68a1,1,0,1,1,0,2Z"/><path class="cls-1" d="M74.74,153.27H73.05a1,1,0,1,1,0-2h1.69a1,1,0,0,1,0,2Z"/></svg>