<svg xmlns="http://www.w3.org/2000/svg" viewBox="0 0 186 186"><defs><style>.cls-1{isolation:isolate;}.cls-2,.cls-3{fill:#6c69f7;}.cls-2{opacity:0.5;mix-blend-mode:multiply;}</style></defs><title>pantis-icon</title><g class="cls-1"><g id="Layer_1" data-name="Layer 1"><path class="cls-2" d="M93,128.8c-10.17,0-18.42,3.6-18.42,8h36.84C111.44,132.41,103.19,128.8,93,128.8Z"/><path class="cls-3" d="M111.42,138.35H74.58A1.5,1.5,0,0,1,73.08,137c0-.51-5.09-51.13-55.75-67.77a1.5,1.5,0,0,1-1-1.43V49.15a1.5,1.5,0,0,1,1.83-1.46A382,382,0,0,0,93,55.7a382,382,0,0,0,74.87-8,1.5,1.5,0,0,1,1.83,1.46V67.79a1.5,1.5,0,0,1-1,1.41c-46.55,16.47-55.71,67.39-55.8,67.9A1.5,1.5,0,0,1,111.42,138.35Zm-35.51-3h34.28c1.75-8.06,13.26-52.7,56.51-68.62V51c-7.78,1.62-39.2,7.7-73.7,7.7S27.08,52.63,19.3,51v15.7a82.35,82.35,0,0,1,47.82,41.37A89.18,89.18,0,0,1,75.91,135.35Z"/><path class="cls-3" d="M65.5,88.49a1,1,0,0,1-.82-.43A79.52,79.52,0,0,0,50.23,72.42a1,1,0,1,1,1.28-1.54,81.53,81.53,0,0,1,14.82,16,1,1,0,0,1-.82,1.57Z"/><path class="cls-3" d="M44.14,67.56a1,1,0,0,1-.57-.18C41.9,66.22,40.15,65.1,38.39,64a1,1,0,1,1,1-1.72c1.8,1.08,3.58,2.22,5.3,3.4a1,1,0,0,1-.57,1.82Z"/><path class="cls-3" d="M92.9,92h-.16c-5,0-12-8.93-13.51-11.76A9.6,9.6,0,0,1,78.37,73a7.63,7.63,0,0,1,3.77-4.62,8.74,8.74,0,0,1,11.06,2.34,8.74,8.74,0,0,1,11.14-1.89A7.44,7.44,0,0,1,108,74.34a10.09,10.09,0,0,1-1.41,6.45C104.71,83.87,97.75,92,92.9,92ZM86.27,70.32a5.74,5.74,0,0,0-2.72.69,4.69,4.69,0,0,0-2.31,2.84,6.58,6.58,0,0,0,.62,5c1.8,3.34,8,10.16,10.92,10.18l.11,1.5V89c3,0,9.14-6.48,11.06-9.73a7.19,7.19,0,0,0,1-4.52,4.45,4.45,0,0,0-2.17-3.34,5.74,5.74,0,0,0-7.87,2c-.14.24-.29.53-.44.85a1.5,1.5,0,0,1-2.74,0c-.14-.34-.28-.64-.42-.89A5.74,5.74,0,0,0,86.27,70.32Z"/></g></g></svg>