<svg xmlns="http://www.w3.org/2000/svg" viewBox="0 0 153.4 90.7"><defs><style>.cls-1{isolation:isolate;}.cls-2,.cls-3{fill:#6c69f7;}.cls-2{opacity:0.5;mix-blend-mode:multiply;}</style></defs><title>Artboard 1</title><g class="cls-1"><g id="Layer_1" data-name="Layer 1"><path class="cls-2" d="M76.72,81.15c-10.17,0-18.42,3.6-18.42,8H95.14C95.14,84.76,86.89,81.15,76.72,81.15Z"/><path class="cls-3" d="M95.12,90.7H58.28a1.5,1.5,0,0,1-1.49-1.37c0-.51-5.09-51.13-55.75-67.77a1.5,1.5,0,0,1-1-1.43V1.5A1.5,1.5,0,0,1,1.83,0a382,382,0,0,0,74.87,8,382,382,0,0,0,74.87-8A1.5,1.5,0,0,1,153.4,1.5V20.14a1.5,1.5,0,0,1-1,1.41C105.85,38,96.69,88.94,96.6,89.45A1.5,1.5,0,0,1,95.12,90.7Zm-35.51-3H93.89c1.75-8.06,13.26-52.7,56.51-68.62V3.36c-7.78,1.62-39.2,7.7-73.7,7.7S10.78,5,3,3.36v15.7A82.35,82.35,0,0,1,50.82,60.43,89.18,89.18,0,0,1,59.61,87.7Z"/><path class="cls-3" d="M49.2,40.84a1,1,0,0,1-.82-.43A79.52,79.52,0,0,0,33.93,24.77a1,1,0,1,1,1.28-1.54A81.53,81.53,0,0,1,50,39.27a1,1,0,0,1-.82,1.57Z"/><path class="cls-3" d="M27.84,19.91a1,1,0,0,1-.57-.18c-1.68-1.16-3.43-2.28-5.19-3.33a1,1,0,1,1,1-1.72c1.8,1.08,3.58,2.22,5.3,3.4a1,1,0,0,1-.57,1.82Z"/><path class="cls-3" d="M76.6,44.34h-.16c-5,0-12-8.93-13.51-11.76a9.6,9.6,0,0,1-.86-7.24,7.63,7.63,0,0,1,3.77-4.62,8.74,8.74,0,0,1,11.06,2.34A8.74,8.74,0,0,1,88,21.17a7.44,7.44,0,0,1,3.62,5.52,10.09,10.09,0,0,1-1.41,6.45C88.41,36.22,81.45,44.34,76.6,44.34ZM70,22.67a5.74,5.74,0,0,0-2.72.69,4.69,4.69,0,0,0-2.31,2.84,6.58,6.58,0,0,0,.62,5c1.8,3.34,8,10.16,10.92,10.18l.11,1.5v-1.5c3,0,9.14-6.48,11.06-9.73a7.19,7.19,0,0,0,1-4.52,4.45,4.45,0,0,0-2.17-3.34,5.74,5.74,0,0,0-7.87,2c-.14.24-.29.53-.44.85a1.5,1.5,0,0,1-2.74,0c-.14-.34-.28-.64-.42-.89A5.74,5.74,0,0,0,70,22.67Z"/></g></g></svg>