<?xml version="1.0" encoding="utf-8"?>
<!-- Generator: Adobe Illustrator 18.0.0, SVG Export Plug-In . SVG Version: 6.00 Build 0)  -->
<!DOCTYPE svg PUBLIC "-//W3C//DTD SVG 1.1//EN" "http://www.w3.org/Graphics/SVG/1.1/DTD/svg11.dtd">
<svg version="1.1" id="Layer_1" xmlns="http://www.w3.org/2000/svg" xmlns:xlink="http://www.w3.org/1999/xlink" x="0px" y="0px"
	 viewBox="0 0 400 248" enable-background="new 0 0 400 248" xml:space="preserve">
<g>
	<path d="M284.9,146.5c0.1-7.3,0.5-14.4,2.1-21.4c-2,0.4-3.8,0.9-5.7,1.3c0.3,2.2-0.4,4.2-1.2,6.1c-1,2.5-2.9,3.8-5.3,3.4
		c-2.9-0.4-4.7-2.2-4.8-5c-0.2-5,2.3-6.8,6.5-7.3c2.5-0.3,4.8-0.5,7.3-0.9c0.2,0,0.3-0.1,0.5-0.1c2.3-0.4,3.7-1.5,4-4.2
		c0.5-3.6,1.6-7.2,2.5-10.7c1.2-4.5,3.8-8.4,6.3-12.3c0.6-0.9,1.2-1.8,1.9-2.6c1-1.2,2.1-1.3,3.4-0.4c1.4,1,1.8,2.5,1.9,4
		c0.4,4-0.4,7.9-1.6,11.6c-1.8,6.3-6,10.8-11.4,14.4c-0.9,0.5-1.3,1.2-1.5,2.2c-1.4,6.9-2,13.8-2.2,20.8c0,0.3,0,0.4,0,0.8
		c0.5,0,1,0.1,1.4,0.1c15.1,0,30.1,0,45.1,0c0.4,0,0.9,0,1.2,0c0.8,0.1,1.2,0.6,1.3,1.4c0,0.8-0.4,1.3-1.2,1.5
		c-0.3,0.1-0.8,0.1-1.2,0.1c-15.1,0-30.3,0-45.5,0c-0.4,0-0.9,0-1.4,0c-0.1,2.3-0.2,4.4-0.3,6.6c-0.1,4.1-0.1,8.1-0.2,12.3
		c0,1-0.5,1.6-1.4,1.6c-0.8,0.1-1.6-0.4-1.6-1.4c-0.1-2.4,0-4.7,0-7.1c0.1-4,0.2-7.9,0.3-12c-0.5,0-1,0-1.5,0c-72.5,0-145,0-217.5,0
		c-0.4,0-0.9,0-1.2,0c-0.5-0.1-1-0.5-1-1.4s0.5-1.3,1.4-1.4c0.4-0.1,0.9,0,1.2,0c72.4,0,144.9,0,217.3,0
		C283.7,146.5,284.2,146.5,284.9,146.5z M291.4,119.1c6.7-4,12.5-17.9,9.7-23.3C295.2,102.4,292.8,110.4,291.4,119.1z M273.1,130.6
		c0.1,0.9,0.3,1.8,1.4,2.3c0.9,0.3,1.9,0.6,2.5-0.4c0.7-1.5,1.2-3.1,1.6-4.7c0.1-0.3-0.4-1-0.7-1.2
		C275.3,126.1,273.1,128,273.1,130.6z"/>
	<path d="M106.5,81.1c-9.9-0.3-19.1,2.5-27.7,7.2c-1.3,0.7-2.5,1.8-3.5,2.9c-1.8,2-2.1,4.4-0.9,6.9c0.6,1.2,1.6,2.4,2.5,3.5
		c0.5,0.8,0.6,1.6,0.1,2.2c-0.5,0.5-1.6,0.6-2.2-0.1c-2.6-2.7-4.4-5.8-4-9.7c0.3-2.7,1.8-4.9,3.8-6.5c1.5-1.2,3.1-2.2,4.7-3.1
		c10.1-5,20.7-7.1,31.9-6.2c7.6,0.6,14.9,1.9,21.8,5.1c4,1.8,7.6,4,10.3,7.5c4,5.1,4.3,10.5,1.4,16.1c-2.5,4.8-6.6,8.1-11.3,10.4
		c-3.2,1.5-6.7,2.5-10.1,3.8c-1.8,0.6-3.5,1.3-5.1,2.1c-1.6,0.8-1.8,1.5-1,3.2c1.6,3.4,4.2,6,7.3,8.1c3.4,2.4,7.2,4.1,11,5.5
		c1.2,0.4,1.6,1,1.4,1.9c-0.3,1-1.2,1.3-2.3,0.9c-5.6-2-10.8-4.7-15.3-8.6c-2-1.8-3.5-4-4.7-6.3c-1.6-3.4-1-5.7,2.4-7.3
		c2.5-1.2,5.3-2.2,8.1-2.9c5-1.5,9.7-3.5,13.5-7.2c1.5-1.5,2.9-3.2,3.8-5.1c2.6-4.8,1.6-9.9-2.2-13.8c-3.1-3.2-7-5.1-11.1-6.7
		C121.8,82,114.2,81.3,106.5,81.1z"/>
	<path d="M163.1,136.1c2.5-2,4.9-3.8,7.2-5.8c0.6-0.5,1.3-0.9,2.1-0.4c0.8,0.5,0.9,1.2,0.5,2c-0.1,0.2-0.1,0.4-0.2,0.6
		c-0.6,2.6,0.3,3.8,2.9,4.3c2.1,0.3,4.2,0.1,6.2-0.4c0.3-0.1,0.6-0.5,0.6-0.8c0-1.4,0.3-2.6,1.2-3.6c1.4-1.6,2.9-2.9,4.7-4.4
		c0.8-0.7,1.8-0.8,2.9-0.3c1,0.6,1.3,1.6,1.2,2.7c-0.2,2.5-1.4,4.5-3.4,6.2c-0.3,0.3-0.6,0.4-1,0.9c3.2,0.8,6.4,1.3,9.5,0.9
		c1.3-0.2,2.6-0.4,4-0.5c1-0.1,1.6,0.3,1.8,1.2c0.1,0.9-0.4,1.5-1.4,1.8c-4.9,1-9.9,1.2-14.6-0.5c-2.7-1-5-0.3-7.5-0.1
		c-1.8,0.2-3.7,0.1-5.4-0.2c-2.7-0.4-4.1-1.9-4.8-4.7c-0.3,0.2-0.4,0.3-0.7,0.4c-1.5,1.2-2.9,2.3-4.4,3.4c-2.2,1.6-4,0.9-4.3-1.8
		c-0.1-0.8-0.2-1.6-0.3-2.6c-0.3,0.3-0.5,0.3-0.7,0.5c-4.7,3.8-10,5.3-16,5.1c-1-0.1-1.9-0.3-2.8-0.7c-3.8-1.6-5.1-5.1-3.2-8.8
		c1.6-3.1,3.6-5.8,7.2-6.7c0.6-0.2,1.2-0.3,1.8-0.3c2.6-0.2,4.4,0.8,5.1,2.8c1,2.5,0.3,5.3-1.6,6.9c-1.3,1.2-2.9,1.6-4.5,1.8
		c-1.5,0.1-2.9-0.1-4.4-0.2c-0.3,0-0.7-0.1-1.2-0.1c1.2,1.8,2.7,2.4,4.5,2.4c6.8,0.1,12.3-2.5,16.6-7.9c0.2-0.3,0.4-0.7,0.7-0.8
		c0.5-0.2,1.2-0.3,1.6-0.1c0.4,0.3,0.7,0.9,0.8,1.4c0.1,0.4-0.2,1-0.4,1.5C162.7,132.6,163,134.2,163.1,136.1z M140,131.6
		c2.3,0.4,4.3,0.7,6.4,0.1c0.7-0.3,1.4-0.8,1.9-1.3c0.7-0.8,0.7-2.5,0.2-3.2c-0.7-0.9-1.6-0.7-2.6-0.6
		C142.9,126.9,141.4,129.1,140,131.6z M185.5,134.9c2-1,3.2-2.3,3.7-4.3C187.8,131.8,186.3,133,185.5,134.9z"/>
	<path d="M246.2,84.5c6.2,0.1,12,1.2,17.4,4.5c4,2.5,7,6,7.7,11c0.6,4-0.7,7.7-2.9,11c-2.2,3.2-5.1,5.7-8.1,8.1
		c-1.2,0.9-2.4,1.8-3.5,2.7c-0.4,0.3-0.9,0.7-1.3,1c-1.9,2-1.8,3.8,0.4,5.4c3.1,2.2,6.6,3.6,10.1,4.9c1.2,0.4,2.3,0.9,3.4,1.4
		c0.8,0.3,1,1.2,0.6,1.8c-0.3,0.8-1,1.2-1.8,0.8c-4.4-1.8-9.2-3.2-13.2-6c-0.6-0.4-1.2-0.9-1.8-1.3c-2.7-2.5-2.9-6-0.3-8.7
		c0.9-1,1.9-1.8,2.9-2.5c3.1-2.5,6.4-4.8,8.9-7.9c1.9-2.3,3.1-4.9,3.7-7.9c0.3-2.3-0.2-4.4-1.3-6.3c-1.8-2.9-4.4-5.1-7.5-6.4
		c-10.7-4.4-20.9-4-30.7,2.5c-1,0.7-1.9,1.6-2.8,2.4c-2.3,2-2.7,4.5-1.6,7.3c0.6,1.5,1.6,2.8,2.5,4.1c0.7,1,0.8,1.8,0,2.5
		c-0.7,0.6-1.6,0.4-2.4-0.5c-1.9-2.3-3.4-4.9-3.6-7.9c-0.3-3.4,1.2-6,3.6-8.2c5.1-4.5,11-6.9,17.7-7.7c0.7-0.1,1.4-0.2,2.1-0.2
		C244.9,84.5,245.6,84.5,246.2,84.5z"/>
	<path d="M302.6,130.4c1.4,1.4,3.2,2.1,5.1,2.5c1.6,0.3,3.2,0.4,4.9,0.6c1.2,0.1,1.8,0.6,1.8,1.6c-0.1,0.9-0.7,1.4-1.8,1.4
		c-2.9-0.1-6-0.5-8.7-1.8c-1.6-0.7-3.1-1.8-4.3-3.2c-0.2-0.3-0.7-0.4-1-0.3c-1.9,0.1-4,0.3-5.9,0.3c-1,0-1.6-0.6-1.6-1.5
		s0.6-1.4,1.6-1.5c1.6-0.1,3.1-0.2,4.7-0.3c0.6,0,1-0.2,1-1c0.6-4.2,4.4-7.3,8.7-7.3c2.3,0.1,3.4,1.8,2.5,3.8
		c-1.2,2.9-3.5,4.7-6.3,6c-0.3,0.1-0.4,0.2-0.7,0.3C302.7,130.4,302.7,130.4,302.6,130.4z M301.6,127.6c2.3-0.9,4-2.3,5.3-4.4
		C304.4,123.2,301.9,125.3,301.6,127.6z"/>
	<path d="M104.9,127.8c0.3-5.1,0.5-10.3,0.8-15.5c0.1-1.2,0.6-1.8,1.6-1.8c0.9,0,1.5,0.7,1.4,1.9c-0.3,7-0.7,13.9-1,20.9
		c-0.2,3.2-0.3,6.6-0.4,9.8c-0.1,1.2-0.6,1.8-1.6,1.8s-1.5-0.8-1.4-1.9C104.4,138,104.6,132.9,104.9,127.8L104.9,127.8z"/>
	<path d="M245.3,114.3c-0.8,8.2-1.3,16.6-3.1,24.6c-0.3,1.2-1,1.8-1.8,1.5c-0.9-0.2-1.3-1-1-2.2c1.8-7.9,2.3-16.2,3.1-24.3
		c0.1-1.2,0.7-1.8,1.6-1.8C244.9,112.4,245.3,113,245.3,114.3z"/>
	<path d="M162.4,154.7c1.2-0.3,2-0.1,2.7,1c1.9,2.5,4,4.8,6,7.5c0-2.9,0-5.6,0-8.4c0.6,0,1.2,0,1.8,0c0,3.7,0,7.3,0,11
		c-1.2,0.3-1.9,0.1-2.6-0.9c-1.9-2.5-4-4.8-6-7.5c0,2.9,0,5.7,0,8.4c-0.7,0-1.2,0-1.8,0C162.4,162,162.4,158.4,162.4,154.7z"/>
	<path d="M238.6,165.6c-1.6,0.4-2.5,0-3.1-1.2c-0.4-0.9-1.2-1.6-1.6-2.4c-0.7-1-1.8-1.2-2.9-0.9c0,1.5,0,2.9,0,4.5
		c-0.7,0-1.2,0-1.8,0c0-3.7,0-7.3,0-10.8c2.1,0,4.2-0.1,6.3,0.1c1.2,0.1,2,1,2.3,2.4c0.2,1.3-0.4,2.2-1.5,2.9
		c-0.3,0.3-0.8,0.4-1,0.5C236.1,162.3,237.3,163.9,238.6,165.6z M230.8,159.9c1.2-0.1,2.2-0.1,3.2-0.3c1-0.3,1.6-1.2,1.4-2.2
		c-0.2-1-0.9-1.5-1.8-1.6c-1-0.1-1.8,0-2.9,0C230.8,157.2,230.8,158.5,230.8,159.9z"/>
	<path d="M194.1,161.3c-1.2,0-2.1,0-3.1,0c0-0.3,0-0.7-0.1-1c1.6,0,3.2,0,4.9,0c0,1.6,0,3.4,0,5c-2,0.8-4,1-6.2,0.7
		c-2.4-0.4-4-2.1-4.3-4.4c-0.3-2.3-0.1-4.4,1.9-6c2.2-1.6,4.7-1.5,7-0.6c0.8,0.3,1.5,0.9,1.6,1.9c-0.8,0.1-1.4,0.2-2.1-0.6
		c-1.3-1.6-4.8-0.9-5.9,1c-1,1.8-1,3.8-0.1,5.7c1,1.8,2.6,2.1,4.4,1.9c1.9-0.2,1.9-0.2,1.9-2C194.1,162.3,194.1,161.9,194.1,161.3z"
		/>
	<path d="M272.8,155.9c-2.1,0-4.1,0-6.1,0c0,1.2,0,2.2,0,3.4c1.8,0,3.5,0,5.3,0c0,0.4,0,0.8,0,1.2c-1.8,0-3.5,0-5.3,0
		c0,1.3,0,2.5,0,4c2.2,0,4.4,0,6.6,0c0,0.5,0,0.9,0,1.3c-2.8,0-5.6,0-8.5,0c0-3.7,0-7.3,0-11c2.6,0,5.3,0,7.9,0
		C272.7,155.1,272.8,155.3,272.8,155.9z"/>
	<path d="M208.2,154.7c2.7,0,5.3,0,7.9,0c0,0.3,0,0.7,0.1,1.2c-2,0-4,0-6,0c0,1.2,0,2.2,0,3.4c1.8,0,3.4,0,5.3,0
		c0,0.4,0.1,0.7,0.1,1.2c-1.8,0-3.5,0-5.3,0c0,1.4,0,2.6,0,4c2.2,0,4.3,0,6.6,0c0,0.4,0,0.8,0.1,1.2c-2.9,0-5.7,0-8.5,0
		C208.2,162,208.2,158.4,208.2,154.7z"/>
	<path d="M198.3,112.9c0.9,0,1.4,0.4,1.6,1.2c0.1,0.9-0.3,1.5-1.2,1.6c-3.8,0.7-6.3,3.2-8.4,6.2c-0.5,0.7-1,1.2-1.9,0.9
		c-0.9-0.3-1.4-1.2-0.9-2c2.5-3.8,5.6-7,10.4-7.9C198,112.9,198.2,112.9,198.3,112.9z"/>
	<path d="M320.8,106.3c1,0,1.6,0.4,1.6,1.3c0.1,0.8-0.5,1.6-1.4,1.6c-3.4,0.3-6,2-8.1,4.7c-0.2,0.2-0.3,0.4-0.5,0.6
		c-0.7,0.5-1.4,0.5-2,0c-0.6-0.5-0.7-1.2-0.3-1.9C312.9,109,316.2,106.5,320.8,106.3z"/>
	<path d="M128.8,164.5c2.5,0,4.9,0,7.3,0c0,0.4,0,0.8,0,1.2c-2.9,0-6,0-9.1,0c0-3.7,0-7.3,0-11c0.6,0,1.2,0,1.8,0
		C128.8,157.9,128.8,161.2,128.8,164.5z"/>
	<path d="M331.8,87.8c-2.5,0-4.4-1.8-4.4-4.3c0-2.5,2-4.4,4.4-4.4c2.5,0,4.4,2,4.4,4.4C336.2,85.9,334.3,87.8,331.8,87.8z
		 M335.2,83.5c0-1.8-1.5-3.4-3.2-3.5c-1.8,0-3.4,1.6-3.4,3.4c0,1.8,1.5,3.4,3.2,3.4C333.5,86.9,335.2,85.3,335.2,83.5z"/>
	<path d="M149.7,165.7c-0.6,0-1.2,0-1.8,0c0-3.7,0-7.3,0-11c0.6,0,1.2,0,1.8,0C149.7,158.4,149.7,162,149.7,165.7z"/>
	<path d="M252,165.7c-0.6,0-1.2,0-1.8,0c0-3.7,0-7.3,0-11c0.5,0,1,0,1.8,0C252,158.4,252,161.9,252,165.7z"/>
	<path d="M331.3,85.7c-0.3,0-0.7,0-1,0c0-1.6,0-3.1,0-4.8c1.2,0.3,2.2,0.3,3.1,0.7c0.3,0.1,0,1.2-0.1,1.9c0.2,0.7,0.3,1.4,0.5,2.2
		c-0.6,0-1,0-1.3,0c-0.3-0.7,0.2-1.8-1-2C331.4,84.4,331.4,85.1,331.3,85.7z M331.4,83.3c0.4-0.3,1-0.5,1-0.8c0.1-0.7-0.4-0.7-1-0.6
		C331.4,82.3,331.4,82.6,331.4,83.3z"/>
</g>
</svg>
