<?xml version="1.0" encoding="utf-8"?>
<!-- Generator: Adobe Illustrator 21.0.0, SVG Export Plug-In . SVG Version: 6.00 Build 0)  -->
<svg version="1.1" id="Layer_1" xmlns="http://www.w3.org/2000/svg" xmlns:xlink="http://www.w3.org/1999/xlink" x="0px" y="0px"
	 viewBox="0 0 313 105.2" style="enable-background:new 0 0 313 105.2;" xml:space="preserve">
<style type="text/css">
	.st0{fill:#FFFFFF;}
</style>
<g>
	<path d="M253.4,78.2c0.1-8.3,0.6-16.4,2.4-24.4c-2.3,0.5-4.3,1-6.5,1.5c0.4,2.5-0.5,4.8-1.4,7c-1.1,2.8-3.4,4.3-6,3.9
		c-3.3-0.5-5.4-2.5-5.5-5.7c-0.2-5.7,2.6-7.8,7.4-8.4c2.8-0.3,5.5-0.6,8.3-1c0.2,0,0.4-0.1,0.6-0.1c2.6-0.5,4.2-1.7,4.6-4.8
		c0.6-4.1,1.8-8.2,2.8-12.2c1.3-5.2,4.3-9.6,7.2-14c0.7-1,1.4-2,2.2-3c1.1-1.4,2.4-1.5,3.9-0.5c1.6,1.1,2,2.8,2.2,4.6
		c0.5,4.6-0.5,9-1.8,13.3c-2.1,7.2-6.8,12.4-13,16.4c-1,0.6-1.5,1.3-1.7,2.5c-1.6,7.9-2.3,15.8-2.5,23.8c0,0.3,0,0.5,0,0.9
		c0.6,0,1.1,0.1,1.6,0.1c17.2,0,34.4,0,51.6,0c0.5,0,1,0,1.4,0c0.9,0.1,1.4,0.7,1.5,1.6c0,0.9-0.5,1.5-1.4,1.7
		c-0.4,0.1-0.9,0.1-1.3,0.1c-17.3,0-34.6,0-52,0c-0.5,0-1,0-1.6,0c-0.1,2.6-0.2,5.1-0.3,7.6c-0.1,4.7-0.1,9.3-0.2,14
		c0,1.1-0.6,1.8-1.6,1.9s-1.8-0.5-1.8-1.6c-0.1-2.7,0-5.4,0-8.1c0.1-4.5,0.2-9.1,0.4-13.8c-0.6,0-1.2,0-1.7,0
		c-82.9,0-165.7,0-248.6,0c-0.5,0-1,0-1.4,0C0.6,81.4,0,80.9,0,79.9s0.6-1.5,1.6-1.6c0.5-0.1,1,0,1.4,0c82.8,0,165.6,0,248.4,0
		C252,78.2,252.6,78.2,253.4,78.2z M260.8,46.8c7.7-4.5,14.3-20.4,11.1-26.7C265.1,27.7,262.4,36.9,260.8,46.8z M239.8,60
		c0.1,1,0.3,2.1,1.6,2.6c1,0.4,2.2,0.7,2.8-0.5c0.8-1.7,1.3-3.5,1.8-5.3c0.1-0.4-0.5-1.2-0.8-1.3C242.4,54.9,239.8,57,239.8,60z"/>
	<path d="M49.4,3.4c-11.3-0.3-21.8,2.8-31.6,8.2c-1.5,0.8-2.9,2.1-4,3.3c-2.1,2.3-2.4,5.1-1,7.9c0.7,1.4,1.8,2.7,2.8,4
		c0.6,0.9,0.7,1.8,0.1,2.5c-0.6,0.6-1.8,0.7-2.5-0.1c-3-3.1-5-6.6-4.5-11c0.3-3.1,2-5.6,4.4-7.4c1.7-1.3,3.5-2.5,5.4-3.5
		C30,1.6,42.1-0.8,55,0.2C63.7,0.9,72,2.4,80,6c4.5,2.1,8.7,4.6,11.8,8.6c4.5,5.8,4.9,12,1.6,18.4c-2.8,5.5-7.5,9.3-12.9,11.9
		c-3.7,1.7-7.7,2.9-11.5,4.3c-2,0.7-4,1.5-5.9,2.4s-2.1,1.7-1.2,3.7c1.8,3.9,4.8,6.9,8.3,9.2c3.9,2.7,8.2,4.7,12.6,6.3
		c1.4,0.5,1.9,1.2,1.6,2.2c-0.3,1.1-1.3,1.5-2.6,1c-6.4-2.3-12.4-5.3-17.5-9.8c-2.3-2-4-4.5-5.3-7.2c-1.9-3.8-1.1-6.5,2.7-8.4
		c2.9-1.4,6.1-2.5,9.2-3.4c5.7-1.7,11.1-4,15.4-8.2c1.7-1.7,3.3-3.7,4.4-5.8c3-5.5,1.9-11.3-2.5-15.8c-3.6-3.7-8-5.9-12.7-7.7
		C66.9,4.5,58.2,3.6,49.4,3.4z"/>
	<path d="M114.2,66.3c2.9-2.3,5.6-4.4,8.2-6.6c0.7-0.6,1.5-1,2.4-0.5c0.9,0.6,1,1.4,0.6,2.3c-0.1,0.2-0.1,0.5-0.2,0.7
		c-0.7,3,0.3,4.4,3.3,4.9c2.4,0.4,4.8,0.1,7.1-0.5c0.3-0.1,0.7-0.6,0.7-0.9c0-1.6,0.4-3,1.4-4.1c1.6-1.8,3.4-3.4,5.3-5
		c0.9-0.8,2.1-0.9,3.3-0.3c1.2,0.7,1.5,1.8,1.4,3.1c-0.2,2.9-1.6,5.2-3.8,7.1c-0.3,0.3-0.7,0.5-1.2,1c3.7,0.9,7.3,1.5,10.9,1
		c1.5-0.2,3-0.5,4.5-0.6c1.1-0.1,1.9,0.4,2,1.4s-0.5,1.7-1.6,2c-5.6,1.2-11.3,1.4-16.7-0.6c-3.1-1.1-5.7-0.3-8.5-0.1
		c-2.1,0.2-4.2,0.1-6.2-0.2c-3.1-0.5-4.7-2.2-5.5-5.4c-0.3,0.2-0.5,0.3-0.8,0.5c-1.7,1.3-3.3,2.6-5,3.9c-2.5,1.9-4.6,1-4.9-2.1
		c-0.1-0.9-0.2-1.9-0.3-3c-0.4,0.3-0.6,0.4-0.8,0.6c-5.3,4.4-11.4,6.1-18.2,5.8c-1.1-0.1-2.2-0.4-3.2-0.8c-4.4-1.8-5.9-5.8-3.7-10
		c1.8-3.5,4.1-6.6,8.2-7.7c0.7-0.2,1.3-0.3,2-0.4c3-0.2,5,0.9,5.9,3.2c1.1,2.8,0.3,6-1.8,7.9c-1.5,1.3-3.3,1.9-5.2,2
		c-1.7,0.1-3.3-0.1-5-0.2c-0.4,0-0.8-0.1-1.4-0.1c1.3,2,3.1,2.7,5.2,2.7c7.8,0.1,14.1-2.9,18.9-9.1c0.2-0.3,0.5-0.8,0.8-0.9
		c0.6-0.2,1.4-0.4,1.9-0.1c0.5,0.3,0.8,1,0.9,1.6c0.1,0.5-0.2,1.2-0.5,1.7C113.7,62.3,114,64.1,114.2,66.3z M87.7,61.1
		c2.6,0.5,4.9,0.8,7.3,0.1c0.8-0.3,1.6-0.9,2.2-1.5c0.8-0.9,0.8-2.8,0.2-3.7c-0.8-1-1.9-0.8-3-0.7C91,55.8,89.4,58.3,87.7,61.1z
		 M139.7,65c2.3-1.2,3.7-2.6,4.2-4.9C142.3,61.4,140.7,62.7,139.7,65z"/>
	<path d="M209.2,7.3c7.1,0.1,13.8,1.4,19.9,5.2c4.6,2.9,8,6.9,8.8,12.5c0.7,4.6-0.8,8.8-3.4,12.5c-2.5,3.7-5.9,6.5-9.3,9.3
		c-1.3,1-2.7,2-4,3.1c-0.5,0.4-1,0.8-1.5,1.2c-2.2,2.3-2.1,4.3,0.5,6.2c3.5,2.5,7.5,4.1,11.5,5.6c1.3,0.5,2.6,1,3.9,1.6
		c0.9,0.4,1.1,1.3,0.7,2.1c-0.4,0.9-1.2,1.3-2.1,0.9c-5.1-2.1-10.5-3.7-15.1-6.9c-0.7-0.5-1.4-1-2-1.5c-3.1-2.9-3.3-6.8-0.4-9.9
		c1-1.1,2.2-2,3.3-2.9c3.6-2.8,7.3-5.5,10.2-9c2.2-2.6,3.6-5.6,4.2-9c0.4-2.6-0.2-5-1.5-7.2c-2-3.4-5-5.8-8.6-7.3
		c-12.2-5-23.9-4.5-35.1,2.9c-1.2,0.8-2.2,1.8-3.2,2.7c-2.6,2.3-3.1,5.2-1.8,8.3c0.7,1.7,1.8,3.2,2.8,4.7c0.8,1.1,0.9,2.1,0,2.8
		c-0.8,0.7-1.8,0.5-2.7-0.6c-2.2-2.6-3.8-5.6-4.1-9c-0.4-3.9,1.3-6.9,4.1-9.4c5.8-5.2,12.6-7.9,20.2-8.8c0.8-0.1,1.6-0.2,2.4-0.2
		C207.7,7.3,208.4,7.3,209.2,7.3z"/>
	<path d="M273.6,59.8c1.6,1.6,3.7,2.4,5.9,2.9c1.8,0.4,3.7,0.5,5.6,0.7c1.4,0.1,2.1,0.7,2,1.8c-0.1,1-0.8,1.6-2.1,1.6
		c-3.4-0.1-6.8-0.6-9.9-2c-1.9-0.8-3.6-2-4.9-3.7c-0.2-0.3-0.8-0.5-1.2-0.4c-2.2,0.1-4.5,0.3-6.7,0.4c-1.2,0-1.9-0.7-1.9-1.7
		s0.7-1.6,1.9-1.7c1.8-0.1,3.6-0.2,5.4-0.3c0.7,0,1.1-0.2,1.2-1.1c0.7-4.8,5.1-8.4,9.9-8.3c2.6,0.1,3.9,2,2.8,4.4
		c-1.4,3.3-4,5.4-7.2,6.9c-0.3,0.1-0.5,0.2-0.8,0.3C273.7,59.7,273.7,59.7,273.6,59.8z M272.5,56.5c2.6-1,4.5-2.6,6-5
		C275.6,51.6,272.8,53.9,272.5,56.5z"/>
	<path d="M47.6,56.8c0.3-5.9,0.6-11.8,0.9-17.7c0.1-1.3,0.7-2,1.8-2c1,0,1.7,0.8,1.6,2.2c-0.4,8-0.8,15.9-1.2,23.9
		c-0.2,3.7-0.4,7.5-0.5,11.2c-0.1,1.4-0.7,2.1-1.8,2s-1.7-0.9-1.6-2.2C47,68.4,47.3,62.6,47.6,56.8L47.6,56.8z"/>
	<path d="M208.1,41.3c-0.9,9.4-1.5,18.9-3.6,28.2c-0.3,1.3-1.1,2-2.1,1.7c-1-0.2-1.5-1.1-1.2-2.5c2.1-9.1,2.6-18.5,3.6-27.8
		c0.1-1.4,0.8-2.1,1.8-2C207.6,39.2,208.1,39.9,208.1,41.3z"/>
	<path d="M113.3,87.6c1.3-0.4,2.3-0.1,3.1,1.1c2.2,2.8,4.5,5.5,6.9,8.5c0-3.3,0-6.4,0-9.6c0.7,0,1.3,0,2,0c0,4.2,0,8.3,0,12.5
		c-1.3,0.3-2.2,0.1-3-1c-2.2-2.8-4.5-5.5-6.9-8.5c0,3.4,0,6.5,0,9.6c-0.8,0-1.3,0-2,0C113.3,95.9,113.3,91.8,113.3,87.6z"/>
	<path d="M200.4,100c-1.8,0.5-2.8,0-3.6-1.4c-0.5-1-1.3-1.8-1.9-2.7c-0.8-1.1-2-1.4-3.4-1c0,1.7,0,3.4,0,5.2c-0.8,0-1.4,0-2.1,0
		c0-4.2,0-8.3,0-12.4c2.4,0,4.8-0.1,7.2,0.1c1.4,0.1,2.3,1.2,2.6,2.7c0.2,1.5-0.5,2.5-1.7,3.3c-0.4,0.3-0.9,0.5-1.2,0.6
		C197.6,96.2,199,98.1,200.4,100z M191.5,93.5c1.3-0.1,2.5-0.1,3.7-0.4c1.1-0.3,1.8-1.4,1.6-2.5c-0.2-1.2-1-1.7-2.1-1.8
		c-1.1-0.1-2.1,0-3.3,0C191.5,90.4,191.5,91.9,191.5,93.5z"/>
	<path d="M149.5,95.1c-1.3,0-2.4,0-3.6,0c0-0.4,0-0.8-0.1-1.2c1.9,0,3.7,0,5.6,0c0,1.9,0,3.8,0,5.7c-2.3,0.9-4.6,1.2-7.1,0.8
		c-2.7-0.5-4.6-2.4-4.9-5.1c-0.3-2.6-0.1-5.1,2.2-6.8c2.5-1.8,5.3-1.7,8-0.7c0.9,0.4,1.7,1,1.8,2.2c-0.9,0.1-1.6,0.2-2.4-0.7
		c-1.5-1.8-5.5-1-6.7,1.2c-1.2,2.1-1.2,4.4-0.1,6.5c1.1,2,3,2.4,5,2.2c2.2-0.2,2.2-0.2,2.2-2.3C149.5,96.3,149.5,95.8,149.5,95.1z"
		/>
	<path d="M239.5,88.9c-2.4,0-4.7,0-7,0c0,1.3,0,2.5,0,3.9c2,0,4,0,6,0c0,0.5,0,0.9,0,1.4c-2,0-4,0-6.1,0c0,1.5,0,2.9,0,4.5
		c2.5,0,5,0,7.5,0c0,0.6,0,1,0,1.5c-3.2,0-6.4,0-9.7,0c0-4.2,0-8.3,0-12.6c3,0,6,0,9.1,0C239.4,88,239.5,88.3,239.5,88.9z"/>
	<path d="M165.7,87.5c3.1,0,6,0,9.1,0c0,0.4,0,0.8,0.1,1.3c-2.3,0-4.6,0-6.9,0c0,1.3,0,2.5,0,3.9c2,0,3.9,0,6,0
		c0,0.5,0.1,0.8,0.1,1.3c-2,0-4,0-6.1,0c0,1.6,0,3,0,4.6c2.5,0,4.9,0,7.5,0c0,0.5,0,0.9,0.1,1.4c-3.3,0-6.5,0-9.7,0
		C165.7,95.9,165.7,91.8,165.7,87.5z"/>
	<path d="M154.4,39.8c1,0,1.6,0.5,1.8,1.4c0.1,1-0.3,1.7-1.3,1.9c-4.4,0.8-7.2,3.7-9.6,7.1c-0.6,0.8-1.1,1.4-2.2,1
		c-1-0.3-1.6-1.4-1-2.3c2.9-4.4,6.4-8,11.9-9.1C154.1,39.8,154.2,39.8,154.4,39.8z"/>
	<path d="M294.4,32.2c1.1,0,1.8,0.5,1.9,1.5c0.1,0.9-0.6,1.8-1.6,1.8c-3.9,0.3-6.9,2.3-9.3,5.3c-0.2,0.2-0.4,0.5-0.6,0.7
		c-0.8,0.6-1.6,0.6-2.3,0c-0.7-0.6-0.8-1.4-0.3-2.2C285.3,35.3,289.1,32.5,294.4,32.2z"/>
	<path d="M75,98.7c2.9,0,5.6,0,8.4,0c0,0.5,0,0.9,0,1.4c-3.4,0-6.9,0-10.4,0c0-4.2,0-8.3,0-12.6c0.7,0,1.3,0,2,0
		C75,91.2,75,94.9,75,98.7z"/>
	<path d="M307,11.1c-2.8,0-5.1-2.1-5.1-4.9s2.3-5.1,5.1-5.1c2.8,0,5,2.3,5,5.1C312,8.9,309.9,11.1,307,11.1z M310.8,6.2
		c0-2.1-1.7-3.9-3.7-4c-2.1,0-3.8,1.8-3.8,3.9S305,10,307,10S310.8,8.2,310.8,6.2z"/>
	<path d="M98.8,100.1c-0.7,0-1.3,0-2,0c0-4.2,0-8.4,0-12.6c0.7,0,1.3,0,2,0C98.8,91.7,98.8,95.9,98.8,100.1z"/>
	<path d="M215.7,100.1c-0.7,0-1.3,0-2,0c0-4.2,0-8.3,0-12.6c0.6,0,1.2,0,2,0C215.7,91.7,215.7,95.8,215.7,100.1z"/>
	<path class="st0" d="M139.7,65c1-2.3,2.5-3.6,4.2-4.9C143.4,62.3,142,63.8,139.7,65z"/>
	<path class="st0" d="M306.4,8.7c0-0.7,0.1-1.4,0.1-2.3c1.4,0.3,0.9,1.5,1.2,2.3c0.4,0,0.9,0,1.5,0c-0.2-0.9-0.4-1.7-0.6-2.5
		c0.1-0.7,0.4-2,0.1-2.2c-1-0.5-2.3-0.6-3.5-0.8c0,2.1,0,3.8,0,5.5C305.6,8.7,306,8.7,306.4,8.7z"/>
	<path d="M306.4,8.7c-0.4,0-0.8,0-1.2,0c0-1.8,0-3.5,0-5.5c1.3,0.3,2.5,0.3,3.5,0.8c0.3,0.1,0,1.4-0.1,2.2c0.2,0.8,0.4,1.6,0.6,2.5
		c-0.7,0-1.1,0-1.5,0c-0.3-0.8,0.2-2-1.2-2.3C306.5,7.2,306.5,8,306.4,8.7z M306.5,5.9c0.5-0.4,1.1-0.6,1.1-0.9
		c0.1-0.8-0.5-0.8-1.1-0.7C306.5,4.8,306.5,5.1,306.5,5.9z"/>
	<path class="st0" d="M306.5,5.9c0-0.8,0-1.1,0-1.6c0.6-0.1,1.2-0.1,1.1,0.7C307.6,5.3,307.1,5.5,306.5,5.9z"/>
</g>
</svg>
