<?xml version="1.0" encoding="utf-8"?>
<!-- Generator: Adobe Illustrator 18.0.0, SVG Export Plug-In . SVG Version: 6.00 Build 0)  -->
<!DOCTYPE svg PUBLIC "-//W3C//DTD SVG 1.1//EN" "http://www.w3.org/Graphics/SVG/1.1/DTD/svg11.dtd">
<svg version="1.1" id="Layer_1" xmlns="http://www.w3.org/2000/svg" xmlns:xlink="http://www.w3.org/1999/xlink" x="0px" y="0px"
	 viewBox="0 0 400 248" enable-background="new 0 0 400 248" xml:space="preserve">
<g>
	<path d="M323.8,156.7c0.1-10.6,0.8-21,3.1-31.2c-2.9,0.6-5.5,1.3-8.3,1.9c0.5,3.2-0.6,6.1-1.8,8.9c-1.4,3.6-4.3,5.5-7.7,5
		c-4.2-0.6-6.9-3.2-7-7.3c-0.3-7.3,3.3-10,9.5-10.7c3.6-0.4,7-0.8,10.6-1.3c0.3,0,0.5-0.1,0.8-0.1c3.3-0.6,5.4-2.2,5.9-6.1
		c0.8-5.2,2.3-10.5,3.6-15.6c1.7-6.6,5.5-12.3,9.2-17.9c0.9-1.3,1.8-2.6,2.8-3.8c1.4-1.8,3.1-1.9,5-0.6c2,1.4,2.6,3.6,2.8,5.9
		c0.6,5.9-0.6,11.5-2.3,17c-2.7,9.2-8.7,15.8-16.6,21c-1.3,0.8-1.9,1.7-2.2,3.2c-2,10.1-2.9,20.2-3.2,30.4c0,0.4,0,0.6,0,1.2
		c0.8,0,1.4,0.1,2,0.1c22,0,44,0,65.9,0c0.6,0,1.3,0,1.8,0c1.2,0.1,1.8,0.9,1.9,2c0,1.2-0.6,1.9-1.8,2.2c-0.5,0.1-1.2,0.1-1.7,0.1
		c-22.1,0-44.2,0-66.5,0c-0.6,0-1.3,0-2,0c-0.1,3.3-0.3,6.5-0.4,9.7c-0.1,6-0.1,11.9-0.3,17.9c0,1.4-0.8,2.3-2,2.4s-2.3-0.6-2.3-2
		c-0.1-3.5,0-6.9,0-10.4c0.1-5.8,0.3-11.6,0.5-17.6c-0.8,0-1.5,0-2.2,0c-105.9,0-211.8,0-317.7,0c-0.6,0-1.3,0-1.8,0
		c-0.8-0.1-1.5-0.8-1.5-2s0.8-1.9,2-2c0.6-0.1,1.3,0,1.8,0c105.8,0,211.6,0,317.4,0C322,156.7,322.8,156.7,323.8,156.7z
		 M333.3,116.6c9.8-5.8,18.3-26.1,14.2-34.1C338.8,92.2,335.3,103.9,333.3,116.6z M306.5,133.5c0.1,1.3,0.4,2.7,2,3.3
		c1.3,0.5,2.8,0.9,3.6-0.6c1-2.2,1.7-4.5,2.3-6.8c0.1-0.5-0.6-1.5-1-1.7C309.8,126.9,306.5,129.6,306.5,133.5z"/>
	<path d="M63.1,61.1c-14.4-0.4-27.9,3.6-40.4,10.5c-1.9,1-3.7,2.7-5.1,4.2c-2.7,2.9-3.1,6.5-1.3,10.1c0.9,1.8,2.3,3.5,3.6,5.1
		c0.8,1.2,0.9,2.3,0.1,3.2c-0.8,0.8-2.3,0.9-3.2-0.1c-3.8-4-6.4-8.4-5.8-14.1c0.4-4,2.6-7.2,5.6-9.5c2.2-1.7,4.5-3.2,6.9-4.5
		c14.7-7.3,30.2-10.4,46.6-9.1c11.1,0.9,21.7,2.8,31.9,7.4c5.8,2.7,11.1,5.9,15.1,11c5.8,7.4,6.3,15.3,2,23.5
		c-3.6,7-9.6,11.9-16.5,15.2c-4.7,2.2-9.8,3.7-14.7,5.5c-2.6,0.9-5.1,1.9-7.5,3.1s-2.7,2.2-1.5,4.7c2.3,5,6.1,8.8,10.6,11.8
		c5,3.5,10.5,6,16.1,8.1c1.8,0.6,2.4,1.5,2,2.8c-0.4,1.4-1.7,1.9-3.3,1.3c-8.2-2.9-15.8-6.8-22.4-12.5c-2.9-2.6-5.1-5.8-6.8-9.2
		c-2.4-4.9-1.4-8.3,3.5-10.7c3.7-1.8,7.8-3.2,11.8-4.3c7.3-2.2,14.2-5.1,19.7-10.5c2.2-2.2,4.2-4.7,5.6-7.4c3.8-7,2.4-14.4-3.2-20.2
		c-4.6-4.7-10.2-7.5-16.2-9.8C85.5,62.5,74.4,61.4,63.1,61.1z"/>
	<path d="M145.9,141.5c3.7-2.9,7.2-5.6,10.5-8.4c0.9-0.8,1.9-1.3,3.1-0.6c1.2,0.8,1.3,1.8,0.8,2.9c-0.1,0.3-0.1,0.6-0.3,0.9
		c-0.9,3.8,0.4,5.6,4.2,6.3c3.1,0.5,6.1,0.1,9.1-0.6c0.4-0.1,0.9-0.8,0.9-1.2c0-2,0.5-3.8,1.8-5.2c2-2.3,4.3-4.3,6.8-6.4
		c1.2-1,2.7-1.2,4.2-0.4c1.5,0.9,1.9,2.3,1.8,4c-0.3,3.7-2,6.6-4.9,9.1c-0.4,0.4-0.9,0.6-1.5,1.3c4.7,1.2,9.3,1.9,13.9,1.3
		c1.9-0.3,3.8-0.6,5.8-0.8c1.4-0.1,2.4,0.5,2.6,1.8s-0.6,2.2-2,2.6c-7.2,1.5-14.4,1.8-21.3-0.8c-4-1.4-7.3-0.4-10.9-0.1
		c-2.7,0.3-5.4,0.1-7.9-0.3c-4-0.6-6-2.8-7-6.9c-0.4,0.3-0.6,0.4-1,0.6c-2.2,1.7-4.2,3.3-6.4,5c-3.2,2.4-5.9,1.3-6.3-2.7
		c-0.1-1.2-0.3-2.4-0.4-3.8c-0.5,0.4-0.8,0.5-1,0.8c-6.8,5.6-14.6,7.8-23.3,7.4c-1.4-0.1-2.8-0.5-4.1-1c-5.6-2.3-7.5-7.4-4.7-12.8
		c2.3-4.5,5.2-8.4,10.5-9.8c0.9-0.3,1.7-0.4,2.6-0.5c3.8-0.3,6.4,1.2,7.5,4.1c1.4,3.6,0.4,7.7-2.3,10.1c-1.9,1.7-4.2,2.4-6.6,2.6
		c-2.2,0.1-4.2-0.1-6.4-0.3c-0.5,0-1-0.1-1.8-0.1c1.7,2.6,4,3.5,6.6,3.5c10,0.1,18-3.7,24.2-11.6c0.3-0.4,0.6-1,1-1.2
		c0.8-0.3,1.8-0.5,2.4-0.1c0.6,0.4,1,1.3,1.2,2c0.1,0.6-0.3,1.5-0.6,2.2C145.3,136.4,145.7,138.7,145.9,141.5z M112.1,134.9
		c3.3,0.6,6.3,1,9.3,0.1c1-0.4,2-1.2,2.8-1.9c1-1.2,1-3.6,0.3-4.7c-1-1.3-2.4-1-3.8-0.9C116.3,128.1,114.2,131.3,112.1,134.9z
		 M178.5,139.8c2.9-1.5,4.7-3.3,5.4-6.3C181.9,135.2,179.8,136.9,178.5,139.8z"/>
	<path d="M267.3,66.1c9.1,0.1,17.6,1.8,25.4,6.6c5.9,3.7,10.2,8.8,11.2,16c0.9,5.9-1,11.2-4.3,16c-3.2,4.7-7.5,8.3-11.9,11.9
		c-1.7,1.3-3.5,2.6-5.1,4c-0.6,0.5-1.3,1-1.9,1.5c-2.8,2.9-2.7,5.5,0.6,7.9c4.5,3.2,9.6,5.2,14.7,7.2c1.7,0.6,3.3,1.3,5,2
		c1.2,0.5,1.4,1.7,0.9,2.7c-0.5,1.2-1.5,1.7-2.7,1.2c-6.5-2.7-13.4-4.7-19.3-8.8c-0.9-0.6-1.8-1.3-2.6-1.9c-4-3.7-4.2-8.7-0.5-12.7
		c1.3-1.4,2.8-2.6,4.2-3.7c4.6-3.6,9.3-7,13-11.5c2.8-3.3,4.6-7.2,5.4-11.5c0.5-3.3-0.3-6.4-1.9-9.2c-2.6-4.3-6.4-7.4-11-9.3
		c-15.6-6.4-30.5-5.8-44.9,3.7c-1.5,1-2.8,2.3-4.1,3.5c-3.3,2.9-4,6.6-2.3,10.6c0.9,2.2,2.3,4.1,3.6,6c1,1.4,1.2,2.7,0,3.6
		c-1,0.9-2.3,0.6-3.5-0.8c-2.8-3.3-4.9-7.2-5.2-11.5c-0.5-5,1.7-8.8,5.2-12c7.4-6.6,16.1-10.1,25.8-11.2c1-0.1,2-0.3,3.1-0.3
		C265.4,66.1,266.3,66.1,267.3,66.1z"/>
	<path d="M349.6,133.2c2,2,4.7,3.1,7.5,3.7c2.3,0.5,4.7,0.6,7.2,0.9c1.8,0.1,2.7,0.9,2.6,2.3c-0.1,1.3-1,2-2.7,2
		c-4.3-0.1-8.7-0.8-12.7-2.6c-2.4-1-4.6-2.6-6.3-4.7c-0.3-0.4-1-0.6-1.5-0.5c-2.8,0.1-5.8,0.4-8.6,0.5c-1.5,0-2.4-0.9-2.4-2.2
		c0-1.3,0.9-2,2.4-2.2c2.3-0.1,4.6-0.3,6.9-0.4c0.9,0,1.4-0.3,1.5-1.4c0.9-6.1,6.5-10.7,12.7-10.6c3.3,0.1,5,2.6,3.6,5.6
		c-1.8,4.2-5.1,6.9-9.2,8.8c-0.4,0.1-0.6,0.3-1,0.4C349.8,133.1,349.8,133.1,349.6,133.2z M348.2,129c3.3-1.3,5.8-3.3,7.7-6.4
		C352.2,122.7,348.6,125.7,348.2,129z"/>
	<path d="M60.8,129.4c0.4-7.5,0.8-15.1,1.2-22.6c0.1-1.7,0.9-2.6,2.3-2.6c1.3,0,2.2,1,2,2.8c-0.5,10.2-1,20.3-1.5,30.5
		c-0.3,4.7-0.5,9.6-0.6,14.3c-0.1,1.8-0.9,2.7-2.3,2.6c-1.4-0.1-2.2-1.2-2-2.8C60.1,144.2,60.4,136.8,60.8,129.4L60.8,129.4z"/>
	<path d="M265.9,109.6c-1.2,12-1.9,24.2-4.6,36c-0.4,1.7-1.4,2.6-2.7,2.2c-1.3-0.3-1.9-1.4-1.5-3.2c2.7-11.6,3.3-23.6,4.6-35.5
		c0.1-1.8,1-2.7,2.3-2.6C265.3,106.9,265.9,107.8,265.9,109.6z"/>
	<path d="M144.8,168.7c1.7-0.5,2.9-0.1,4,1.4c2.8,3.6,5.8,7,8.8,10.9c0-4.2,0-8.2,0-12.3c0.9,0,1.7,0,2.6,0c0,5.4,0,10.6,0,16
		c-1.7,0.4-2.8,0.1-3.8-1.3c-2.8-3.6-5.8-7-8.8-10.9c0,4.3,0,8.3,0,12.3c-1,0-1.7,0-2.6,0C144.8,179.3,144.8,174.1,144.8,168.7z"/>
	<path d="M256.1,184.6c-2.3,0.6-3.6,0-4.6-1.8c-0.6-1.3-1.7-2.3-2.4-3.5c-1-1.4-2.6-1.8-4.3-1.3c0,2.2,0,4.3,0,6.6c-1,0-1.8,0-2.7,0
		c0-5.4,0-10.6,0-15.8c3.1,0,6.1-0.1,9.2,0.1c1.8,0.1,2.9,1.5,3.3,3.5c0.3,1.9-0.6,3.2-2.2,4.2c-0.5,0.4-1.2,0.6-1.5,0.8
		C252.5,179.7,254.3,182.1,256.1,184.6z M244.7,176.3c1.7-0.1,3.2-0.1,4.7-0.5c1.4-0.4,2.3-1.8,2-3.2c-0.3-1.5-1.3-2.2-2.7-2.3
		c-1.4-0.1-2.7,0-4.2,0C244.7,172.3,244.7,174.2,244.7,176.3z"/>
	<path d="M191.1,178.3c-1.7,0-3.1,0-4.6,0c0-0.5,0-1-0.1-1.5c2.4,0,4.7,0,7.2,0c0,2.4,0,4.9,0,7.3c-2.9,1.2-5.9,1.5-9.1,1
		c-3.5-0.6-5.9-3.1-6.3-6.5c-0.4-3.3-0.1-6.5,2.8-8.7c3.2-2.3,6.8-2.2,10.2-0.9c1.2,0.5,2.2,1.3,2.3,2.8c-1.2,0.1-2,0.3-3.1-0.9
		c-1.9-2.3-7-1.3-8.6,1.5c-1.5,2.7-1.5,5.6-0.1,8.3c1.4,2.6,3.8,3.1,6.4,2.8c2.8-0.3,2.8-0.3,2.8-2.9
		C191.1,179.8,191.1,179.2,191.1,178.3z"/>
	<path d="M306.1,170.4c-3.1,0-6,0-8.9,0c0,1.7,0,3.2,0,5c2.6,0,5.1,0,7.7,0c0,0.6,0,1.2,0,1.8c-2.6,0-5.1,0-7.8,0c0,1.9,0,3.7,0,5.8
		c3.2,0,6.4,0,9.6,0c0,0.8,0,1.3,0,1.9c-4.1,0-8.2,0-12.4,0c0-5.4,0-10.6,0-16.1c3.8,0,7.7,0,11.6,0
		C305.9,169.2,306.1,169.6,306.1,170.4z"/>
	<path d="M211.8,168.6c4,0,7.7,0,11.6,0c0,0.5,0,1,0.1,1.7c-2.9,0-5.9,0-8.8,0c0,1.7,0,3.2,0,5c2.6,0,5,0,7.7,0c0,0.6,0.1,1,0.1,1.7
		c-2.6,0-5.1,0-7.8,0c0,2,0,3.8,0,5.9c3.2,0,6.3,0,9.6,0c0,0.6,0,1.2,0.1,1.8c-4.2,0-8.3,0-12.4,0
		C211.8,179.3,211.8,174.1,211.8,168.6z"/>
	<path d="M197.3,107.6c1.3,0,2,0.6,2.3,1.8c0.1,1.3-0.4,2.2-1.7,2.4c-5.6,1-9.2,4.7-12.3,9.1c-0.8,1-1.4,1.8-2.8,1.3
		c-1.3-0.4-2-1.8-1.3-2.9c3.7-5.6,8.2-10.2,15.2-11.6C196.9,107.6,197.1,107.6,197.3,107.6z"/>
	<path d="M376.2,97.9c1.4,0,2.3,0.6,2.4,1.9c0.1,1.2-0.8,2.3-2,2.3c-5,0.4-8.8,2.9-11.9,6.8c-0.3,0.3-0.5,0.6-0.8,0.9
		c-1,0.8-2,0.8-2.9,0c-0.9-0.8-1-1.8-0.4-2.8C364.6,101.9,369.5,98.3,376.2,97.9z"/>
	<path d="M95.8,182.9c3.7,0,7.2,0,10.7,0c0,0.6,0,1.2,0,1.8c-4.3,0-8.8,0-13.3,0c0-5.4,0-10.6,0-16.1c0.9,0,1.7,0,2.6,0
		C95.8,173.3,95.8,178.1,95.8,182.9z"/>
	<path d="M392.3,71c-3.6,0-6.5-2.7-6.5-6.3c0-3.6,2.9-6.5,6.5-6.5c3.6,0,6.4,2.9,6.4,6.5C398.7,68.2,396,71,392.3,71z M397.2,64.7
		c0-2.7-2.2-5-4.7-5.1c-2.7,0-4.9,2.3-4.9,5c0,2.7,2.2,5,4.7,5S397.2,67.3,397.2,64.7z"/>
	<path d="M126.3,184.7c-0.9,0-1.7,0-2.6,0c0-5.4,0-10.7,0-16.1c0.9,0,1.7,0,2.6,0C126.3,174,126.3,179.3,126.3,184.7z"/>
	<path d="M275.7,184.7c-0.9,0-1.7,0-2.6,0c0-5.4,0-10.6,0-16.1c0.8,0,1.5,0,2.6,0C275.7,174,275.7,179.2,275.7,184.7z"/>
	<path d="M391.6,67.9c-0.5,0-1,0-1.5,0c0-2.3,0-4.5,0-7c1.7,0.4,3.2,0.4,4.5,1c0.4,0.1,0,1.8-0.1,2.8c0.3,1,0.5,2,0.8,3.2
		c-0.9,0-1.4,0-1.9,0c-0.4-1,0.3-2.6-1.5-2.9C391.7,66,391.7,67,391.6,67.9z M391.7,64.3c0.6-0.5,1.4-0.8,1.4-1.2
		c0.1-1-0.6-1-1.4-0.9C391.7,62.9,391.7,63.3,391.7,64.3z"/>
</g>
</svg>
