<svg id="Layer_1" data-name="Layer 1" xmlns="http://www.w3.org/2000/svg" viewBox="0 0 300 186"><title>rene-rofe-logo</title><path d="M228.42,113.79a92.52,92.52,0,0,1,1.94-19.67c-1.83.32-3.44.86-5.27,1.18a9.88,9.88,0,0,1-1.08,5.59c-1,2.26-2.69,3.44-4.84,3.12a4.61,4.61,0,0,1-4.41-4.62c-.22-4.62,2.15-6.24,6-6.67,2.26-.32,4.41-.43,6.67-.86.22,0,.32-.11.43-.11a3.81,3.81,0,0,0,3.66-3.87C232,84.54,233,81.21,233.8,78c1.08-4.09,3.44-7.74,5.81-11.29a19,19,0,0,1,1.72-2.37,2,2,0,0,1,3.12-.32,4.57,4.57,0,0,1,1.72,3.66,25.37,25.37,0,0,1-1.51,10.64c-1.61,5.81-5.48,9.89-10.43,13.22a2.6,2.6,0,0,0-1.4,2,114.46,114.46,0,0,0-2,19.14v.75c.43,0,1,.11,1.29.11h42.57a1.37,1.37,0,0,1,.11,2.69,3.66,3.66,0,0,1-1.08.11H230.57c-.11,2.15-.22,4.09-.32,6-.11,3.76-.11,7.42-.22,11.29,0,1-.43,1.51-1.29,1.51a1.25,1.25,0,0,1-1.51-1.29c-.11-2.26,0-4.3,0-6.56.11-3.66.22-7.31.32-11.07H25.13a1.22,1.22,0,0,1-1-1.29c0-.86.43-1.18,1.29-1.29a3.58,3.58,0,0,1,1.08,0H226.27A16.72,16.72,0,0,0,228.42,113.79Zm5.91-25.16c6.13-3.66,11.5-16.45,8.92-21.39C237.88,73.26,235.63,80.67,234.34,88.63ZM217.57,99.17a2.48,2.48,0,0,0,1.29,2.15c.86.32,1.72.54,2.26-.32a34.12,34.12,0,0,0,1.51-4.3c.11-.32-.32-1-.65-1.08A3.55,3.55,0,0,0,217.57,99.17Z"/><path d="M64.37,53.69c-9.14-.32-17.52,2.26-25.48,6.67A12.64,12.64,0,0,0,35.67,63a5.53,5.53,0,0,0-.86,6.34,21.77,21.77,0,0,0,2.26,3.23,1.79,1.79,0,0,1,.11,2,1.5,1.5,0,0,1-2-.11c-2.37-2.47-4.09-5.38-3.66-8.92a9.3,9.3,0,0,1,3.44-6,50.36,50.36,0,0,1,4.3-2.9A54.37,54.37,0,0,1,68.57,51c7,.54,13.65,1.72,20,4.73A23.18,23.18,0,0,1,98,62.61c3.66,4.73,4,9.68,1.29,14.84-2.26,4.41-6,7.42-10.43,9.57-2.9,1.4-6.13,2.26-9.25,3.44a36.36,36.36,0,0,0-4.73,1.94c-1.51.75-1.61,1.4-1,2.9a19.27,19.27,0,0,0,6.67,7.42,42.33,42.33,0,0,0,10.11,5.05c1.08.32,1.51,1,1.29,1.72-.32,1-1.08,1.18-2.15.86a42.57,42.57,0,0,1-14.08-8,19,19,0,0,1-4.3-5.81c-1.51-3.12-1-5.27,2.26-6.67a40.44,40.44,0,0,1,7.42-2.69c4.62-1.4,8.92-3.23,12.36-6.67a14.87,14.87,0,0,0,3.44-4.73,10.33,10.33,0,0,0-2-12.69A27.61,27.61,0,0,0,84.69,57C78.46,54.55,71.47,53.91,64.37,53.69Z"/><path d="M116.4,104.22c2.26-1.83,4.52-3.44,6.67-5.38.54-.43,1.18-.86,1.94-.32a1.19,1.19,0,0,1,.43,1.83c-.11.22-.11.32-.22.54-.54,2.37.32,3.44,2.69,4a14.47,14.47,0,0,0,5.7-.32.81.81,0,0,0,.54-.75,5.17,5.17,0,0,1,1.08-3.33,39.12,39.12,0,0,1,4.3-4.09,2.41,2.41,0,0,1,2.69-.32,2.31,2.31,0,0,1,1.08,2.47,8.47,8.47,0,0,1-3.12,5.7c-.32.32-.54.32-1,.86a24.28,24.28,0,0,0,8.71.86c1.18-.22,2.37-.32,3.66-.43,1-.11,1.51.32,1.61,1.08s-.32,1.4-1.29,1.61a24.78,24.78,0,0,1-13.44-.43c-2.47-1-4.62-.32-6.88-.11a15.18,15.18,0,0,1-4.95-.22c-2.47-.32-3.76-1.72-4.41-4.3-.32.22-.32.32-.65.32-1.4,1.08-2.69,2.15-4.09,3.12-2,1.51-3.66.86-4-1.61-.11-.75-.22-1.51-.32-2.37a1.64,1.64,0,0,1-.65.43,22,22,0,0,1-14.73,4.73,10.09,10.09,0,0,1-2.58-.65c-3.44-1.51-4.73-4.73-2.9-8.06,1.51-2.9,3.33-5.38,6.67-6.13a4.31,4.31,0,0,1,1.61-.32c2.37-.22,4.09.75,4.73,2.58a5.44,5.44,0,0,1-1.51,6.34,6.75,6.75,0,0,1-4.09,1.61,26,26,0,0,1-4.09-.22c-.32,0-.65-.11-1.08-.11a4.65,4.65,0,0,0,4.09,2.26,18,18,0,0,0,15.27-7.31c.22-.32.32-.65.65-.75a1.85,1.85,0,0,1,1.51-.11,3.14,3.14,0,0,1,.75,1.29c.11.32-.22,1-.32,1.4A13.15,13.15,0,0,0,116.4,104.22Zm-21.18-4.09c2.15.32,4,.65,5.91.11a6.93,6.93,0,0,0,1.72-1.18,2.85,2.85,0,0,0,.22-2.9c-.65-.86-1.51-.65-2.37-.54C97.81,95.83,96.41,97.77,95.23,100.13Zm41.82,3a6.28,6.28,0,0,0,3.44-4C139.09,100.35,137.69,101.42,137,103.14Z"/><path d="M192.84,56.81c5.7.11,11.07,1.08,16,4.09,3.66,2.26,6.45,5.48,7.1,10.11a14.2,14.2,0,0,1-2.69,10.11,37.3,37.3,0,0,1-7.42,7.42c-1.08.86-2.26,1.61-3.23,2.47-.32.32-.86.65-1.18,1-1.72,1.83-1.61,3.44.32,4.95a38.76,38.76,0,0,0,9.25,4.52,27,27,0,0,1,3.12,1.29,1,1,0,0,1,.54,1.61,1.16,1.16,0,0,1-1.61.75c-4.09-1.61-8.49-2.9-12.15-5.48-.54-.32-1.08-.86-1.61-1.18a5.27,5.27,0,0,1-.32-8,13,13,0,0,1,2.69-2.26c2.9-2.26,5.91-4.41,8.17-7.31a16.43,16.43,0,0,0,3.44-7.31,8.92,8.92,0,0,0-1.18-5.81,14.7,14.7,0,0,0-6.88-5.91c-9.89-4.09-19.24-3.66-28.27,2.26a25.85,25.85,0,0,0-2.58,2.26c-2.15,1.83-2.47,4.09-1.51,6.67a21.81,21.81,0,0,0,2.26,3.76c.65,1,.75,1.61,0,2.26s-1.51.32-2.26-.43a13.45,13.45,0,0,1-3.33-7.31c-.32-3.12,1.08-5.48,3.33-7.53a29.63,29.63,0,0,1,16.23-7.1,11.85,11.85,0,0,1,1.94-.22A3.88,3.88,0,0,0,192.84,56.81Z"/><path d="M244.66,99.06a8.5,8.5,0,0,0,4.73,2.26c1.51.32,2.9.32,4.52.54,1.08.11,1.61.54,1.61,1.51a1.4,1.4,0,0,1-1.61,1.29,20.24,20.24,0,0,1-8-1.61,10.58,10.58,0,0,1-4-2.9c-.22-.32-.65-.32-1-.32-1.72.11-3.66.32-5.38.32a1.33,1.33,0,0,1-1.51-1.4c0-.86.54-1.29,1.51-1.4l4.3-.32a.85.85,0,0,0,1-1,8,8,0,0,1,8-6.67c2.15.11,3.12,1.61,2.26,3.44-1.08,2.69-3.23,4.3-5.81,5.48-.32.11-.32.22-.65.32C244.76,99.06,244.76,99.06,244.66,99.06Zm-.86-2.58a9.52,9.52,0,0,0,4.84-4.09A5,5,0,0,0,243.8,96.48Z"/><path d="M62.87,96.59c.32-4.73.43-9.46.75-14.3.11-1.08.54-1.61,1.51-1.61s1.4.65,1.29,1.72c-.32,6.45-.65,12.79-1,19.24-.22,2.9-.32,6-.32,9-.11,1.08-.54,1.61-1.51,1.61s-1.4-.75-1.29-1.72c.11-4.52.32-9.25.54-14Z"/><path d="M192,84.22c-.75,7.53-1.18,15.27-2.9,22.58-.32,1.08-1,1.61-1.61,1.4-.86-.22-1.18-1-1-2,1.61-7.31,2.15-14.94,2.9-22.36.11-1.08.65-1.61,1.51-1.61C191.66,82.5,192,83,192,84.22Z"/><path d="M115.76,121.31a1.88,1.88,0,0,1,2.47,1c1.72,2.26,3.66,4.41,5.48,6.88v-7.74h1.61v10.11a1.81,1.81,0,0,1-2.37-.86c-1.72-2.26-3.66-4.41-5.48-6.88v7.74h-1.61C115.76,128.08,115.76,124.75,115.76,121.31Z"/><path d="M185.85,131.42c-1.51.32-2.26,0-2.9-1.08a16.49,16.49,0,0,0-1.51-2.26,2.35,2.35,0,0,0-2.69-.86v4.09h-1.61v-9.89a52.31,52.31,0,0,1,5.81.11,2.62,2.62,0,0,1,2.15,2.26,2.46,2.46,0,0,1-1.4,2.69c-.32.32-.75.32-1,.43A43.21,43.21,0,0,0,185.85,131.42Zm-7.2-5.27a21.74,21.74,0,0,0,2.9-.32,1.7,1.7,0,0,0,1.29-2,1.81,1.81,0,0,0-1.61-1.51,22.4,22.4,0,0,0-2.69,0C178.65,123.68,178.65,124.86,178.65,126.15Z"/><path d="M144.89,127.44H142a3,3,0,0,0-.11-1h4.52v4.62a10.24,10.24,0,0,1-5.7.65,4.57,4.57,0,0,1-4-4.09c-.32-2.15-.11-4.09,1.72-5.48a6.35,6.35,0,0,1,6.45-.54,2.23,2.23,0,0,1,1.51,1.72c-.75.11-1.29.22-1.94-.54-1.18-1.51-4.41-.86-5.38,1a5.39,5.39,0,0,0-.11,5.27c1,1.61,2.37,1.94,4.09,1.72s1.72-.22,1.72-1.83A7.62,7.62,0,0,0,144.89,127.44Z"/><path d="M217.24,122.49h-5.59v3.12h4.84v1.08h-4.84v3.66h6v1.18h-7.85V121.42h7.31C217.14,121.74,217.24,122,217.24,122.49Z"/><path d="M157.9,121.31h7.31a4,4,0,0,0,.11,1.08h-5.48v3.12h4.84c0,.32.11.65.11,1.08h-4.84v3.66h6a3.66,3.66,0,0,0,.11,1.08h-7.85C157.9,128.08,157.9,124.75,157.9,121.31Z"/><path d="M148.76,82.93A1.34,1.34,0,0,1,150.27,84a1.21,1.21,0,0,1-1.08,1.51c-3.44.65-5.81,2.9-7.74,5.7-.43.65-1,1.08-1.72.86a1.29,1.29,0,0,1-.86-1.83c2.26-3.44,5.16-6.45,9.57-7.31Z"/><path d="M261.43,76.8c1,0,1.51.32,1.51,1.18a1.3,1.3,0,0,1-1.29,1.51,10.45,10.45,0,0,0-7.42,4.3,1.89,1.89,0,0,0-.43.54,1.45,1.45,0,0,1-1.83,0,1.32,1.32,0,0,1-.32-1.72C254.12,79.38,257.13,77,261.43,76.8Z"/><path d="M84.91,130.34h6.67v1.08H83.19V121.31H84.8C84.91,124.32,84.91,127.33,84.91,130.34Z"/><path d="M271.53,59.82a3.93,3.93,0,0,1-4.09-4,4,4,0,0,1,4.09-4.09,4,4,0,1,1,0,8.06Zm3.12-4a3.35,3.35,0,0,0-2.9-3.23,3.27,3.27,0,0,0-3.12,3.12,3.16,3.16,0,0,0,2.9,3.12A3,3,0,0,0,274.65,55.84Z"/><path d="M104,131.42h-1.61V121.31H104Z"/><path d="M198.11,131.42H196.5V121.31h1.61Z"/><path d="M271.1,57.88h-1V53.48c1.08.32,2,.32,2.9.65.32.11,0,1.08-.11,1.72a11.42,11.42,0,0,1,.43,2h-1.18c-.32-.65.22-1.61-1-1.83A11.05,11.05,0,0,0,271.1,57.88Zm0-2.15c.32-.32,1-.43,1-.75.11-.65-.32-.65-1-.54Z"/></svg>