<?xml version="1.0" encoding="utf-8"?>
<!-- Generator: Adobe Illustrator 18.0.0, SVG Export Plug-In . SVG Version: 6.00 Build 0)  -->
<!DOCTYPE svg PUBLIC "-//W3C//DTD SVG 1.1//EN" "http://www.w3.org/Graphics/SVG/1.1/DTD/svg11.dtd">
<svg version="1.1" id="Layer_1" xmlns="http://www.w3.org/2000/svg" xmlns:xlink="http://www.w3.org/1999/xlink" x="0px" y="0px"
	 viewBox="0 0 265 164.6" enable-background="new 0 0 265 164.6" xml:space="preserve">
<g>
	<path d="M206.2,101.8c0.1-6.3,0.4-12.4,1.9-18.5c-1.8,0.3-3.2,0.8-5,1.1c0.3,2-0.3,3.6-1,5.3c-0.9,2.2-2.5,3.2-4.6,2.9
		c-2.5-0.3-4-2-4.1-4.3c-0.2-4.3,2.1-5.9,5.7-6.3c2.2-0.3,4.1-0.4,6.3-0.8c0.2,0,0.3-0.1,0.4-0.1c2.1-0.3,3.2-1.3,3.4-3.6
		c0.4-3.1,1.4-6.3,2.2-9.3c1-3.8,3.2-7.2,5.5-10.7c0.5-0.8,1-1.6,1.7-2.3c0.9-1,1.9-1.1,2.9-0.3c1.2,0.9,1.6,2.2,1.7,3.4
		c0.3,3.4-0.3,6.9-1.4,10c-1.6,5.5-5.2,9.3-9.8,12.4c-0.8,0.4-1.1,1-1.3,2c-1.2,6-1.8,11.9-2,18c0,0.3,0,0.3,0,0.7
		c0.4,0,0.9,0.1,1.2,0.1c13,0,26,0,39.1,0c0.3,0,0.8,0,1,0c0.7,0.1,1,0.5,1.1,1.2c0,0.7-0.3,1.1-1,1.3c-0.3,0.1-0.7,0.1-1,0.1
		c-13,0-26.2,0-39.3,0c-0.3,0-0.8,0-1.2,0c-0.1,2.1-0.2,3.8-0.3,5.7c-0.1,3.5-0.1,6.9-0.2,10.7c0,0.9-0.4,1.4-1.2,1.4
		c-0.7,0.1-1.4-0.3-1.4-1.2c-0.1-2.2,0-4,0-6.2c0.1-3.4,0.2-6.9,0.3-10.5c-0.4,0-0.9,0-1.3,0c-62.7,0-125.5,0-188.3,0
		c-0.3,0-0.8,0-1,0c-0.4-0.1-0.9-0.4-0.9-1.2s0.4-1.1,1.2-1.2c0.3-0.1,0.8,0,1,0c62.6,0,125.4,0,188,0
		C205.2,101.8,205.7,101.8,206.2,101.8z M211.8,78.1c5.8-3.4,10.9-15.5,8.4-20.2C215.2,63.7,213.1,70.7,211.8,78.1z M196.1,88.1
		c0.1,0.8,0.3,1.6,1.2,2.1c0.8,0.3,1.7,0.5,2.2-0.3c0.6-1.3,1-2.7,1.4-4c0.1-0.3-0.3-0.9-0.6-1C198,84.3,196.1,85.9,196.1,88.1z"/>
	<path d="M51.8,45.2c-8.6-0.3-16.5,2.2-24,6.3c-1.1,0.6-2.2,1.6-3,2.5c-1.6,1.8-1.9,3.8-0.8,6c0.5,1,1.4,2.2,2.2,3
		c0.4,0.7,0.5,1.4,0.1,2c-0.4,0.4-1.4,0.5-2-0.1c-2.3-2.3-3.8-5.1-3.4-8.4c0.3-2.3,1.6-4.2,3.2-5.7c1.3-1,2.7-2,4-2.7
		c8.7-4.3,17.9-6.2,27.6-5.4c6.6,0.5,12.8,1.7,18.8,4.5c3.4,1.6,6.6,3.4,8.9,6.5c3.4,4.5,3.7,9.1,1.2,14c-2.2,4.1-5.7,6.9-9.8,9
		c-2.7,1.3-5.8,2.2-8.7,3.2c-1.6,0.5-3,1.1-4.5,1.9c-1.4,0.7-1.6,1.3-0.9,2.7c1.4,2.9,3.6,5.2,6.3,6.9c2.9,2.2,6.3,3.5,9.5,4.8
		c1,0.3,1.4,0.9,1.2,1.7c-0.3,0.9-1,1.1-2.1,0.8c-4.9-1.8-9.3-4-13.2-7.5c-1.8-1.6-3-3.4-4-5.5c-1.4-2.9-0.9-5,2.2-6.3
		c2.2-1,4.6-2,6.9-2.5c4.3-1.3,8.4-3,11.6-6.3c1.3-1.3,2.5-2.7,3.2-4.5c2.3-4.1,1.4-8.6-2-11.9c-2.7-2.7-6.1-4.5-9.6-5.8
		C65.1,46.1,58.6,45.4,51.8,45.2z"/>
	<path d="M100.8,92.8c2.2-1.8,4.2-3.2,6.3-5.1c0.5-0.4,1.1-0.8,1.9-0.3c0.7,0.4,0.8,1,0.4,1.8c-0.1,0.2-0.1,0.3-0.2,0.5
		c-0.5,2.3,0.3,3.2,2.5,3.7c1.9,0.3,3.6,0.1,5.4-0.3c0.3-0.1,0.5-0.4,0.5-0.7c0-1.2,0.3-2.3,1-3.1c1.2-1.4,2.5-2.5,4-3.8
		c0.7-0.6,1.6-0.7,2.5-0.3c0.9,0.5,1.1,1.4,1,2.3c-0.2,2.2-1.2,3.8-2.9,5.4c-0.3,0.3-0.5,0.3-0.9,0.8c2.7,0.7,5.6,1.1,8.2,0.8
		c1.1-0.2,2.3-0.3,3.4-0.4c0.9-0.1,1.4,0.3,1.6,1c0.1,0.8-0.3,1.3-1.2,1.6c-4.2,0.9-8.6,1-12.6-0.4c-2.3-0.9-4.3-0.3-6.5-0.1
		c-1.6,0.2-3.2,0.1-4.7-0.2c-2.3-0.3-3.5-1.7-4.1-4c-0.3,0.2-0.3,0.3-0.6,0.3c-1.3,1-2.5,2.1-3.8,2.9c-2,1.4-3.4,0.8-3.7-1.6
		c-0.1-0.7-0.2-1.4-0.3-2.3c-0.3,0.3-0.4,0.3-0.6,0.4c-4,3.2-8.7,4.6-13.9,4.5c-0.9-0.1-1.7-0.3-2.4-0.6c-3.2-1.4-4.5-4.5-2.7-7.6
		c1.4-2.7,3.1-5.1,6.3-5.8c0.5-0.2,1-0.3,1.6-0.3c2.3-0.2,3.8,0.7,4.5,2.4c0.9,2.2,0.3,4.6-1.4,6c-1.1,1-2.5,1.4-3.8,1.6
		s-2.5-0.1-3.8-0.2c-0.3,0-0.6-0.1-1-0.1c1,1.6,2.3,2.2,3.8,2.2c5.9,0.1,10.7-2.2,14.4-6.9c0.2-0.3,0.3-0.6,0.6-0.7
		c0.4-0.2,1-0.3,1.4-0.1c0.3,0.3,0.6,0.8,0.7,1.2c0.1,0.3-0.2,0.9-0.3,1.3C100.5,89.8,100.7,91.2,100.8,92.8z M80.9,89
		c2.1,0.3,3.7,0.6,5.6,0.1c0.6-0.3,1.2-0.7,1.7-1.1c0.6-0.7,0.6-2.2,0.2-2.7c-0.6-0.8-1.4-0.6-2.3-0.5C83.3,85,81.9,86.7,80.9,89z
		 M120.2,91.8c1.8-0.9,2.7-2.1,3.2-3.7C122.2,89.2,120.9,90.3,120.2,91.8z"/>
	<path d="M172.8,48.2c5.4,0.1,10.5,1,15.1,3.8c3.4,2.2,6.1,5.2,6.7,9.5c0.5,3.4-0.6,6.7-2.5,9.5c-2,2.7-4.5,5-6.9,6.9
		c-1,0.8-2.2,1.6-3,2.3c-0.3,0.3-0.8,0.6-1.1,0.9c-1.7,1.8-1.6,3.2,0.3,4.7c2.7,2,5.7,3.1,8.7,4.2c1,0.3,2.1,0.8,2.9,1.2
		c0.7,0.3,0.9,1,0.5,1.6c-0.3,0.7-0.9,1-1.6,0.7c-3.8-1.6-8-2.7-11.5-5.2c-0.5-0.3-1-0.8-1.6-1.1c-2.3-2.2-2.5-5.2-0.3-7.5
		c0.8-0.9,1.7-1.6,2.5-2.2c2.7-2.2,5.6-4.1,7.7-6.9c1.7-2.1,2.7-4.2,3.2-6.9c0.3-2.1-0.2-3.8-1.1-5.5c-1.6-2.5-3.8-4.5-6.5-5.6
		c-9.3-3.8-18.1-3.4-26.6,2.2c-0.9,0.6-1.7,1.4-2.4,2.2c-2.1,1.8-2.3,3.8-1.4,6.3c0.5,1.3,1.4,2.4,2.2,3.5c0.6,0.9,0.7,1.6,0,2.2
		c-0.6,0.5-1.4,0.3-2.2-0.4c-1.7-2.1-2.9-4.2-3.1-6.9c-0.3-2.9,1-5.2,3.1-7c4.5-3.8,9.5-6,15.3-6.7c0.6-0.1,1.2-0.2,1.9-0.2
		C171.7,48.2,172.3,48.2,172.8,48.2z"/>
	<path d="M221.6,88c1.2,1.2,2.7,1.9,4.5,2.2c1.4,0.3,2.7,0.3,4.2,0.5c1,0.1,1.6,0.5,1.6,1.4c-0.1,0.8-0.6,1.2-1.6,1.2
		c-2.5-0.1-5.2-0.4-7.5-1.6c-1.4-0.6-2.7-1.6-3.7-2.7c-0.2-0.3-0.6-0.3-0.9-0.3c-1.7,0.1-3.4,0.3-5.1,0.3c-0.9,0-1.4-0.5-1.4-1.3
		s0.5-1.2,1.4-1.3c1.4-0.1,2.7-0.2,4-0.3c0.5,0,0.9-0.2,0.9-0.9c0.5-3.6,3.8-6.3,7.5-6.3c2.1,0.1,2.9,1.6,2.2,3.2
		c-1,2.5-3,4-5.5,5.2c-0.3,0.1-0.3,0.2-0.6,0.3C221.7,88,221.7,88,221.6,88z M220.7,85.6c2.1-0.8,3.4-2.1,4.6-3.8
		C223.1,81.7,220.9,83.5,220.7,85.6z"/>
	<path d="M50.4,85.7c0.3-4.5,0.4-8.9,0.7-13.5c0.1-1,0.5-1.6,1.4-1.6c0.8,0,1.3,0.6,1.2,1.7c-0.3,6.1-0.6,12-0.9,18.1
		c-0.2,2.7-0.3,5.7-0.3,8.5c-0.1,1-0.5,1.6-1.4,1.6c-0.9,0-1.3-0.7-1.2-1.7C50,94.6,50.2,90.2,50.4,85.7L50.4,85.7z"/>
	<path d="M172,74c-0.7,7-1.1,14.4-2.7,21.2c-0.3,1-0.9,1.6-1.6,1.3c-0.8-0.2-1.1-0.9-0.9-2c1.6-6.9,2.1-14.1,2.7-21
		c0.1-1,0.6-1.6,1.4-1.6C171.7,72.3,172,72.9,172,74z"/>
	<path d="M100.2,109c1-0.3,1.8-0.1,2.3,0.9c1.7,2.2,3.4,4.1,5.2,6.5c0-2.5,0-4.9,0-7.2c0.5,0,1,0,1.6,0c0,3.2,0,6.3,0,9.5
		c-1,0.3-1.7,0.1-2.3-0.8c-1.7-2.2-3.4-4.1-5.2-6.5c0,2.5,0,5,0,7.2c-0.6,0-1,0-1.6,0C100.2,115.3,100.2,112.2,100.2,109z"/>
	<path d="M166.2,118.5c-1.4,0.3-2.2,0-2.7-1c-0.3-0.8-1-1.4-1.4-2.2c-0.6-0.9-1.6-1-2.5-0.8c0,1.3,0,2.5,0,3.8c-0.6,0-1,0-1.6,0
		c0-3.2,0-6.3,0-9.3c1.9,0,3.6-0.1,5.5,0.1c1,0.1,1.8,0.9,2.1,2.2c0.2,1.1-0.3,2-1.3,2.5c-0.3,0.3-0.7,0.3-0.9,0.4
		C164,115.5,165,117,166.2,118.5z M159.5,113.5c1-0.1,2-0.1,2.7-0.3c0.9-0.3,1.4-1,1.2-2c-0.2-0.9-0.8-1.3-1.6-1.4
		c-0.9-0.1-1.6,0-2.5,0C159.5,111.2,159.5,112.3,159.5,113.5z"/>
	<path d="M127.7,114.7c-1,0-1.9,0-2.7,0c0-0.3,0-0.6-0.1-0.9c1.4,0,2.7,0,4.2,0c0,1.4,0,2.9,0,4.3c-1.8,0.7-3.4,0.9-5.4,0.6
		c-2.2-0.3-3.4-1.9-3.7-3.8c-0.3-2.1-0.1-3.8,1.7-5.2c2-1.4,4-1.3,6.1-0.5c0.7,0.3,1.3,0.8,1.4,1.7c-0.7,0.1-1.2,0.2-1.9-0.5
		c-1.1-1.4-4.1-0.8-5.1,0.9c-0.9,1.6-0.9,3.2-0.1,5c0.9,1.6,2.3,1.9,3.8,1.7c1.7-0.2,1.7-0.2,1.7-1.8
		C127.7,115.5,127.7,115.2,127.7,114.7z"/>
	<path d="M195.8,110c-1.9,0-3.5,0-5.3,0c0,1,0,2,0,2.9c1.6,0,3,0,4.6,0c0,0.3,0,0.7,0,1c-1.6,0-3,0-4.6,0c0,1.1,0,2.2,0,3.4
		c2,0,3.8,0,5.7,0c0,0.4,0,0.8,0,1.1c-2.4,0-4.9,0-7.3,0c0-3.2,0-6.3,0-9.5c2.3,0,4.6,0,6.9,0C195.7,109.3,195.8,109.5,195.8,110z"
		/>
	<path d="M139.9,109c2.3,0,4.6,0,6.9,0c0,0.3,0,0.6,0.1,1c-1.8,0-3.4,0-5.2,0c0,1,0,2,0,2.9c1.6,0,2.9,0,4.6,0c0,0.3,0.1,0.6,0.1,1
		c-1.6,0-3,0-4.6,0c0,1.2,0,2.3,0,3.4c2,0,3.7,0,5.7,0c0,0.3,0,0.7,0.1,1c-2.5,0-5,0-7.3,0C139.9,115.3,139.9,112.2,139.9,109z"/>
	<path d="M131.3,72.8c0.8,0,1.2,0.3,1.4,1c0.1,0.8-0.3,1.3-1,1.4c-3.2,0.6-5.5,2.7-7.2,5.4c-0.4,0.6-0.9,1-1.7,0.8
		c-0.7-0.2-1.2-1-0.8-1.8c2.2-3.2,4.9-6.1,9-6.9C131.1,72.8,131.2,72.8,131.3,72.8z"/>
	<path d="M237.4,67.1c0.9,0,1.4,0.3,1.4,1.1c0.1,0.7-0.4,1.4-1.2,1.4c-2.9,0.3-5.2,1.8-6.9,4c-0.2,0.2-0.3,0.3-0.4,0.5
		c-0.6,0.4-1.2,0.4-1.8,0c-0.5-0.4-0.6-1-0.3-1.7C230.5,69.5,233.4,67.3,237.4,67.1z"/>
	<path d="M71.2,117.5c2.2,0,4.2,0,6.3,0c0,0.3,0,0.7,0,1c-2.5,0-5.2,0-7.9,0c0-3.2,0-6.3,0-9.5c0.5,0,1,0,1.6,0
		C71.2,111.8,71.2,114.6,71.2,117.5z"/>
	<path d="M246.9,51c-2.2,0-3.8-1.6-3.8-3.7c0-2.3,1.8-3.8,3.8-3.8c2.2,0,3.8,1.8,3.8,3.8C250.6,49.4,249,51,246.9,51z M249.8,47.3
		c0-1.6-1.3-2.9-2.7-3c-1.6,0-2.9,1.4-2.9,2.9c0,1.6,1.3,2.9,2.7,2.9C248.3,50.3,249.8,49,249.8,47.3z"/>
	<path d="M89.2,118.5c-0.5,0-1,0-1.6,0c0-3.2,0-6.3,0-9.5c0.5,0,1,0,1.6,0C89.2,112.2,89.2,115.3,89.2,118.5z"/>
	<path d="M177.8,118.5c-0.5,0-1,0-1.6,0c0-3.2,0-6.3,0-9.5c0.4,0,0.9,0,1.6,0C177.8,112.2,177.8,115.2,177.8,118.5z"/>
	<path d="M246.5,49.3c-0.3,0-0.6,0-0.9,0c0-1.4,0-2.7,0-4.1c1,0.3,2,0.3,2.7,0.6c0.3,0.1,0,1-0.1,1.7c0.2,0.6,0.3,1.2,0.4,2
		c-0.5,0-0.9,0-1.1,0c-0.3-0.6,0.2-1.6-0.9-1.8C246.5,48.1,246.5,48.8,246.5,49.3z M246.5,47.2c0.3-0.3,0.9-0.4,0.9-0.7
		c0.1-0.6-0.3-0.6-0.9-0.5C246.5,46.3,246.5,46.6,246.5,47.2z"/>
</g>
</svg>
