<svg id="Layer_1" data-name="Layer 1" xmlns="http://www.w3.org/2000/svg" viewBox="0 0 151.42 110.21"><defs><style>.cls-1{fill:#fb78ea;}</style></defs><title>sostenes-icon</title><path class="cls-1" d="M33.62,71.2a1,1,0,0,1-.33-.06c-1.79-.62-3.67-1.18-5.61-1.66a1,1,0,0,1,.48-1.94c2,.49,3.94,1.07,5.79,1.71a1,1,0,0,1-.33,1.94Z"/><path class="cls-1" d="M59.38,90.8a1,1,0,0,1-.84-.45A47.59,47.59,0,0,0,40.31,74.14a1,1,0,0,1,.91-1.78,49.61,49.61,0,0,1,19,16.89,1,1,0,0,1-.84,1.55Z"/><path class="cls-1" d="M119.32,71.2a1,1,0,0,1-.33-1.94c1.85-.64,3.79-1.22,5.79-1.71a1,1,0,1,1,.48,1.94c-1.94.48-3.82,1-5.61,1.66A1,1,0,0,1,119.32,71.2Z"/><path class="cls-1" d="M93.56,90.8a1,1,0,0,1-.84-1.55,49.61,49.61,0,0,1,19-16.89,1,1,0,0,1,.91,1.78A47.59,47.59,0,0,0,94.4,90.35,1,1,0,0,1,93.56,90.8Z"/><path class="cls-1" d="M151.34,85.91a1.5,1.5,0,0,0-1.26-1.42c-8.77-1.39-14.58-8.31-16-10.12a35.83,35.83,0,0,1-5.91-14.14s0-.09,0-.14V1.89a1.5,1.5,0,0,0-2.79-.76c-12.6,21.53-3.7,50.27-.86,58.14C95,63.9,84.85,83.71,82.52,89.35H68.9c-2.33-5.64-12.53-25.51-42.11-30.11C29.46,52,38.88,22.64,26.06.74a1.5,1.5,0,0,0-2.79.76V60.08a1.43,1.43,0,0,0,0,.14,35.83,35.83,0,0,1-5.92,14.15c-1.39,1.82-7.17,8.72-16,10.12A1.5,1.5,0,0,0,.09,85.91c-.29,7.67.23,16,.23,16.1a1.5,1.5,0,0,0,1.5,1.41H24.36c3.85,3.74,8.62,6.53,14.4,6.77l.89,0h0c6.84,0,13.24-3.3,18.33-7.08l.23,0c.12,0,11.67-2.22,17.53-2.22s17.42,2.2,17.53,2.22h.15c5.09,3.78,11.5,7.08,18.34,7.08l.89,0c5.78-.25,10.55-3,14.4-6.77h22.54a1.5,1.5,0,0,0,1.5-1.41C151.11,101.93,151.63,93.59,151.34,85.91ZM125.16,8.47V51.18C122.39,40.86,119.4,23.41,125.16,8.47ZM26.27,8.09C32,23,29,40.45,26.27,50.78Zm-23,92.33C3.12,97.93,2.9,92.53,3,87.22a26.13,26.13,0,0,0,9.19-4,60,60,0,0,0,9.37,17.2Zm35.65,6.77c-5-.21-9.27-2.72-12.7-6.12a1.51,1.51,0,0,0-.36-.36C19.64,94.36,16.1,85.2,15,82A36.14,36.14,0,0,0,19.82,76l.31-.43a1.51,1.51,0,0,0,.12-.22,39.53,39.53,0,0,0,5.69-13.26C55.94,66.6,64.82,86.81,66.35,91,63.8,94.08,51.78,107.75,38.89,107.19ZM62.6,99.3a64.49,64.49,0,0,0,5.23-5.4,1.49,1.49,0,0,0,.41.41L73.63,98C70.18,98.17,65.87,98.78,62.6,99.3Zm8.08-7H81l-5.14,3.48ZM78,98l5.41-3.66a1.47,1.47,0,0,0,.3-.27,64.84,64.84,0,0,0,5.1,5.25C85.59,98.77,81.4,98.18,78,98Zm47.58,2.74a1.48,1.48,0,0,0-.36.36c-3.43,3.39-7.65,5.9-12.69,6.12C99.65,107.73,87.64,94.11,85.08,91c1.56-4.1,10.72-24.43,40.41-28.87a39.54,39.54,0,0,0,5.69,13.26,1.48,1.48,0,0,0,.12.22l.32.44a36,36,0,0,0,4.84,5.9C135.33,85.2,131.79,94.36,125.59,100.71Zm22.6-.29H129.82a60,60,0,0,0,9.37-17.2,26.12,26.12,0,0,0,9.19,4C148.52,92.53,148.31,97.93,148.19,100.42Z"/></svg>