<svg id="Layer_1" data-name="Layer 1" xmlns="http://www.w3.org/2000/svg" viewBox="0 0 186 186"><defs><style>.cls-1{fill:#fb78ea;}</style></defs><title>sostenes-icon</title><path class="cls-1" d="M49.41,109.67a1,1,0,0,1-.34-.06c-1.85-.65-3.8-1.22-5.81-1.72a1,1,0,0,1,.5-2c2.07.51,4.09,1.11,6,1.77a1,1,0,0,1-.34,2Z"/><path class="cls-1" d="M76.09,130a1,1,0,0,1-.87-.47,49.29,49.29,0,0,0-18.89-16.79,1,1,0,0,1,.95-1.84A51.38,51.38,0,0,1,77,128.37a1,1,0,0,1-.87,1.6Z"/><path class="cls-1" d="M138.16,109.67a1,1,0,0,1-.34-2c1.91-.67,3.93-1.26,6-1.77a1,1,0,1,1,.5,2c-2,.49-4,1.07-5.81,1.72A1,1,0,0,1,138.16,109.67Z"/><path class="cls-1" d="M111.49,130a1,1,0,0,1-.87-1.6,51.38,51.38,0,0,1,19.68-17.5,1,1,0,0,1,.95,1.84,49.29,49.29,0,0,0-18.89,16.79A1,1,0,0,1,111.49,130Z"/><path class="cls-1" d="M171.32,124.91a1.55,1.55,0,0,0-1.31-1.48c-9.08-1.44-15.1-8.61-16.54-10.49a37.11,37.11,0,0,1-6.12-14.65c0-.05,0-.1,0-.14V37.89a1.55,1.55,0,0,0-2.89-.78c-13.05,22.3-3.83,52.07-.89,60.21-30.52,4.8-41.07,25.31-43.48,31.16H85.95c-2.41-5.84-13-26.42-43.62-31.19,2.76-7.52,12.52-37.91-.75-60.59a1.55,1.55,0,0,0-2.89.78V98.16a1.48,1.48,0,0,0,0,.14A37.11,37.11,0,0,1,32.52,113c-1.44,1.89-7.43,9-16.54,10.48a1.55,1.55,0,0,0-1.31,1.48c-.3,7.95.24,16.58.24,16.67A1.55,1.55,0,0,0,16.47,143H39.82c4,3.87,8.93,6.76,14.91,7l.92,0h0c7.08,0,13.72-3.42,19-7.33l.24,0c.12,0,12.09-2.3,18.16-2.3s18,2.27,18.16,2.3h.16c5.27,3.91,11.91,7.33,19,7.33l.92,0c6-.25,10.93-3.14,14.91-7h23.35a1.55,1.55,0,0,0,1.55-1.46C171.09,141.49,171.62,132.86,171.32,124.91Zm-27.12-80.2V88.94C141.34,78.25,138.25,60.18,144.21,44.71Zm-102.42-.4c5.95,15.46,2.86,33.52,0,44.21ZM17.94,139.93c-.13-2.57-.35-8.17-.2-13.66a27.06,27.06,0,0,0,9.52-4.15A62.14,62.14,0,0,0,37,139.93Zm36.92,7c-5.23-.22-9.6-2.82-13.15-6.34a1.57,1.57,0,0,0-.37-.38c-6.42-6.57-10.09-16.06-11.25-19.43a37.43,37.43,0,0,0,5-6.12l.32-.45a1.56,1.56,0,0,0,.12-.23,41,41,0,0,0,5.9-13.74c31.07,4.63,40.27,25.55,41.85,29.9C80.67,133.37,68.21,147.52,54.87,146.95Zm24.55-8.17a66.79,66.79,0,0,0,5.42-5.59,1.54,1.54,0,0,0,.42.42l5.59,3.78C87.27,137.6,82.81,138.23,79.42,138.78Zm8.37-7.21H98.44l-5.33,3.6Zm7.59,5.83,5.6-3.79a1.52,1.52,0,0,0,.31-.28,67.15,67.15,0,0,0,5.28,5.44C103.23,138.23,98.9,137.61,95.37,137.4Zm49.28,2.84a1.54,1.54,0,0,0-.37.38c-3.55,3.51-7.92,6.11-13.15,6.34-13.35.56-25.78-13.55-28.43-16.76,1.61-4.25,11.1-25.31,41.85-29.9A41,41,0,0,0,150.44,114a1.54,1.54,0,0,0,.12.23l.33.45a37.3,37.3,0,0,0,5,6.11C154.75,124.17,151.08,133.66,144.65,140.23Zm23.41-.3H149a62.14,62.14,0,0,0,9.7-17.82,27.06,27.06,0,0,0,9.52,4.15C168.41,131.76,168.19,137.36,168.06,139.93Z"/></svg>