<svg xmlns="http://www.w3.org/2000/svg" xmlns:xlink="http://www.w3.org/1999/xlink" version="1.1" id="Layer_1" x="0" y="0" viewBox="0 0 423.8 34.8" enable-background="new 0 0 423.8 34.8" xml:space="preserve">
  <path d="M18.7 28.7c2.6-5.9 8.5-21.4 9.5-24.6 0.2-0.7 0.4-1.3 0.4-1.7 0-0.4-0.1-0.8-0.6-1 -0.5-0.2-1.2-0.2-1.7-0.2 -0.3 0-0.5 0-0.5-0.3 0-0.3 0.3-0.4 1-0.4 1.8 0 3.8 0.1 4.3 0.1 0.3 0 2.2-0.1 3.5-0.1 0.5 0 0.8 0.1 0.8 0.3 0 0.2-0.2 0.3-0.5 0.3 -0.3 0-1.3 0-2.1 0.5 -0.6 0.4-1.2 1.2-2.4 4.2 -0.5 1.2-2.7 6.6-5 12 -2.7 6.5-4.7 11.3-5.7 13.4 -1.2 2.7-1.4 3.4-1.9 3.4 -0.5 0-0.8-0.6-1.6-2.8L5.2 4.8c-1-2.5-1.6-3-3.2-3.4C1.4 1.2 0.6 1.2 0.4 1.2 0.1 1.2 0 1.1 0 0.9c0-0.3 0.4-0.3 1.2-0.3 2.1 0 4.7 0.1 5.2 0.1 0.4 0 2.4-0.1 4.1-0.1 0.8 0 1.2 0.1 1.2 0.3 0 0.2-0.1 0.3-0.4 0.3 -0.5 0-1.3 0-1.7 0.2C9 1.7 9 2 9 2.4c0 0.6 0.5 2 1.2 3.7L18.7 28.7z"/>
  <path d="M44.5 23.2c0 3.6 0 6.6 0.2 8.2 0.1 1.1 0.3 1.8 1.4 2 0.6 0.1 1.4 0.2 1.8 0.2 0.2 0 0.3 0.2 0.3 0.3 0 0.2-0.2 0.3-0.6 0.3 -2.2 0-4.7-0.1-4.9-0.1 -0.2 0-2.7 0.1-3.9 0.1 -0.4 0-0.6-0.1-0.6-0.3 0-0.1 0.1-0.3 0.3-0.3 0.4 0 0.8-0.1 1.2-0.2 0.8-0.2 0.9-0.9 1-2 0.2-1.6 0.2-4.5 0.2-8.2v-6.7c0-5.9 0-6.9-0.1-8.1 -0.1-1.3-0.4-1.9-1.2-2 -0.4-0.1-0.9-0.1-1.2-0.1 -0.2 0-0.3-0.2-0.3-0.3 0-0.2 0.2-0.3 0.6-0.3 1.3 0 3.7 0.1 3.9 0.1 0.2 0 2.7-0.1 3.9-0.1 0.4 0 0.6 0.1 0.6 0.3 0 0.1-0.2 0.3-0.3 0.3 -0.3 0-0.5 0-1 0.1 -1.1 0.2-1.3 0.8-1.4 2.1 0 1.2 0 2.3 0 8.1V23.2z"/>
  <path d="M57.9 30.6c-3.8-3.3-4.7-7.6-4.7-11.2 0-2.5 0.9-6.9 4.4-10.3 2.4-2.3 5.9-4 11.9-4 1.6 0 3.8 0.1 5.7 0.4 1.5 0.3 2.7 0.5 4 0.6 0.4 0 0.5 0.2 0.5 0.4 0 0.3-0.1 0.8-0.2 2.1 0 1.2 0 3.3-0.1 3.9 0 0.6-0.2 0.8-0.4 0.8 -0.3 0-0.3-0.3-0.3-0.8 0-1.5-0.6-3-1.6-3.8 -1.4-1.2-4.2-2.1-7.7-2.1 -5 0-7.4 1.3-8.8 2.6 -2.9 2.7-3.5 6-3.5 9.8 0 7.2 5.7 13.7 14.1 13.7 2.9 0 4.9-0.2 6.4-1.8 0.8-0.8 1.4-2.4 1.5-3.1 0.1-0.4 0.1-0.5 0.4-0.5 0.2 0 0.4 0.3 0.4 0.5 0 0.3-0.5 3.5-0.9 4.8 -0.2 0.7-0.3 0.8-1 1.1 -1.6 0.6-4.5 0.8-7.1 0.8C64.9 34.6 60.9 33.3 57.9 30.6z"/>
  <path d="M97.3 23.2c0 3.6 0 6.6 0.2 8.2 0.1 1.1 0.3 1.8 1.5 2 0.5 0.1 1.4 0.2 1.8 0.2 0.3 0 0.3 0.2 0.3 0.3 0 0.2-0.2 0.3-0.6 0.3 -2.1 0-4.6-0.1-4.8-0.1 -0.2 0-2.9 0.1-4 0.1 -0.4 0-0.6-0.1-0.6-0.3 0-0.1 0.1-0.3 0.3-0.3 0.4 0 0.8-0.1 1.2-0.2 0.8-0.2 1-0.9 1.2-2 0.2-1.6 0.2-4.5 0.2-8.2V7.4l-5.6 0.1c-2.4 0-3.4 0.3-3.9 1.2 -0.4 0.7-0.5 0.9-0.6 1.2 -0.1 0.3-0.2 0.4-0.4 0.4 -0.1 0-0.3-0.1-0.3-0.3 0-0.4 0.8-3.8 0.8-4.1 0-0.2 0.3-0.7 0.4-0.7 0.3 0 0.7 0.3 1.7 0.4 1.1 0.1 2.6 0.2 3.1 0.2h14.7c1.3 0 2.2-0.1 2.8-0.2 0.6-0.1 0.9-0.2 1.1-0.2 0.2 0 0.2 0.2 0.2 0.4 0 1.2-0.1 3.9-0.1 4.3 0 0.3-0.2 0.5-0.4 0.5 -0.2 0-0.3-0.1-0.3-0.7l0-0.4c-0.1-1.2-1-2-4.7-2.1l-4.9-0.1V23.2z"/>
  <path d="M125.8 5.1c8.8 0 15.4 5.4 15.4 14.2 0 8.4-6.3 15.4-15.7 15.4 -10.7 0-15.3-8-15.3-14.8C110.3 13.8 115 5.1 125.8 5.1zM126.7 33.1c3.5 0 10.6-1.9 10.6-12.8 0-9-5.5-13.8-11.7-13.8 -6.5 0-11.2 4.1-11.2 12.3C114.4 27.6 119.7 33.1 126.7 33.1z"/>
  <path d="M149.4 16.5c0-5.9 0-6.9-0.1-8.1 -0.1-1.3-0.3-1.9-1.6-2.1 -0.3 0-1-0.1-1.3-0.1 -0.1 0-0.3-0.2-0.3-0.3 0-0.2 0.2-0.3 0.6-0.3 1.8 0 4.4 0.1 4.6 0.1 0.4 0 3.7-0.1 4.9-0.1 2.5 0 5.2 0.2 7.3 1.6 1 0.7 2.7 2.5 2.7 5.1 0 2.8-1.2 5.5-4.8 8.6 3.2 4 5.9 7.4 8.2 9.8 2.1 2.1 3.4 2.5 4.3 2.6 0.8 0.1 1.2 0.1 1.4 0.1 0.2 0 0.4 0.2 0.4 0.3 0 0.2-0.2 0.3-0.9 0.3h-2.4c-2.2 0-3.2-0.2-4.2-0.8 -1.7-0.9-3.1-2.7-5.3-5.5 -1.6-2-3.4-4.5-4.2-5.5 -0.2-0.2-0.3-0.2-0.5-0.2l-5-0.1c-0.2 0-0.3 0.1-0.3 0.3v0.9c0 3.6 0 6.6 0.2 8.1 0.1 1.1 0.4 1.8 1.6 2 0.5 0.1 1.4 0.2 1.7 0.2 0.3 0 0.3 0.2 0.3 0.3 0 0.2-0.2 0.3-0.6 0.3 -2.1 0-4.6-0.1-4.8-0.1 0 0-2.7 0.1-3.9 0.1 -0.4 0-0.6-0.1-0.6-0.3 0-0.1 0.1-0.3 0.3-0.3 0.4 0 0.8-0.1 1.2-0.2 0.8-0.2 0.8-0.9 1-2 0.2-1.6 0.2-4.5 0.2-8.2V16.5zM152.8 19.7c0 0.2 0.1 0.4 0.3 0.5 0.6 0.3 2.6 0.6 4.3 0.6 0.9 0 2 0 2.9-0.7 1.3-0.9 2.4-2.9 2.4-5.8 0-4.7-2.6-7.4-6.7-7.4 -1.2 0-2.4 0.1-2.8 0.2 -0.2 0.1-0.3 0.2-0.3 0.4V19.7z"/>
  <path d="M182.8 23.2c0 3.6 0 6.6 0.2 8.2 0.1 1.1 0.3 1.8 1.4 2 0.6 0.1 1.4 0.2 1.8 0.2 0.2 0 0.3 0.2 0.3 0.3 0 0.2-0.2 0.3-0.6 0.3 -2.2 0-4.7-0.1-4.9-0.1 -0.2 0-2.7 0.1-3.9 0.1 -0.4 0-0.6-0.1-0.6-0.3 0-0.1 0.1-0.3 0.3-0.3 0.4 0 0.8-0.1 1.2-0.2 0.8-0.2 0.9-0.9 1-2 0.2-1.6 0.2-4.5 0.2-8.2v-6.7c0-5.9 0-6.9-0.1-8.1 -0.1-1.3-0.4-1.9-1.2-2 -0.4-0.1-0.9-0.1-1.2-0.1 -0.2 0-0.3-0.2-0.3-0.3 0-0.2 0.2-0.3 0.6-0.3 1.3 0 3.7 0.1 3.9 0.1 0.2 0 2.7-0.1 3.9-0.1 0.4 0 0.6 0.1 0.6 0.3 0 0.1-0.2 0.3-0.3 0.3 -0.3 0-0.5 0-1 0.1 -1.1 0.2-1.3 0.8-1.4 2.1 0 1.2 0 2.3 0 8.1V23.2z"/>
  <path d="M202.4 6.4c0.5-1.2 0.7-1.5 0.9-1.5 0.4 0 0.5 0.5 0.9 1.4 0.7 1.6 7 17.2 9.4 22.9 1.4 3.4 2.5 3.9 3.3 4.1 0.6 0.2 1.2 0.2 1.6 0.2 0.2 0 0.5 0.1 0.5 0.3 0 0.2-0.4 0.3-0.9 0.3 -0.6 0-3.5 0-6.2-0.1 -0.8 0-1.4 0-1.4-0.3 0-0.2 0.1-0.2 0.3-0.3 0.2-0.1 0.6-0.4 0.4-1l-3.5-8.7c-0.1-0.2-0.1-0.2-0.4-0.2h-9c-0.2 0-0.3 0.1-0.4 0.3l-2.2 6c-0.4 0.9-0.6 1.9-0.6 2.5 0 0.8 0.7 1 1.3 1h0.4c0.3 0 0.4 0.1 0.4 0.3 0 0.2-0.2 0.3-0.6 0.3 -0.9 0-3.1-0.1-3.5-0.1 -0.4 0-2.4 0.1-3.9 0.1 -0.5 0-0.8-0.1-0.8-0.3 0-0.2 0.2-0.3 0.4-0.3 0.3 0 0.8 0 1.2-0.1 1.8-0.2 2.5-1.6 3.3-3.5L202.4 6.4zM206.8 22.1c0.2 0 0.2-0.1 0.1-0.3L203 11.5c-0.2-0.6-0.4-0.6-0.7 0l-3.6 10.3c0 0.2 0 0.3 0.1 0.3H206.8z"/>
  <path d="M219 14.1l-0.6-1c1.2-1 2.1-2 2.7-3 0.6-1 0.9-1.8 0.9-2.5 0-0.2 0-0.4-0.1-0.5 -0.1-0.1-0.2-0.2-0.3-0.2l-0.2 0c-0.3 0.1-0.5 0.1-0.8 0.1 -0.5 0-1-0.2-1.4-0.7 -0.4-0.5-0.6-1-0.6-1.7 0-0.7 0.2-1.3 0.6-1.9 0.4-0.5 0.9-0.8 1.4-0.8 0.8 0 1.5 0.4 2.1 1.1 0.6 0.8 0.9 1.7 0.9 2.9 0 1.4-0.4 2.8-1.1 4.1C221.9 11.6 220.7 12.8 219 14.1z"/>
  <path d="M228.5 33.6c-0.5-0.3-0.6-0.4-0.6-1.4 0-1.9 0.2-3.4 0.2-4 0-0.4 0.1-0.6 0.3-0.6 0.2 0 0.4 0.1 0.4 0.4 0 0.3 0 0.8 0.1 1.4 0.6 2.8 3.5 3.7 6.2 3.7 3.9 0 5.9-2.2 5.9-5 0-2.7-1.5-4-4.9-6.6l-1.8-1.3c-4.2-3.1-5.6-5.5-5.6-8.1 0-4.4 3.5-7.1 8.6-7.1 1.6 0 3.1 0.2 4 0.4 0.8 0.2 1.1 0.2 1.4 0.2 0.3 0 0.4 0 0.4 0.3 0 0.2-0.2 1.4-0.2 4 0 0.6 0 0.8-0.3 0.8 -0.3 0-0.3-0.2-0.4-0.5 0-0.4-0.4-1.5-0.6-1.9 -0.3-0.4-1.6-1.9-5.1-1.9 -2.8 0-5.2 1.4-5.2 4.1 0 2.4 1.2 3.8 5.1 6.4l1.1 0.8c4.7 3.2 6.4 5.9 6.4 9.1 0 2.2-0.8 4.6-3.6 6.4 -1.6 1.1-4.1 1.3-6.2 1.3C232.4 34.6 230.1 34.4 228.5 33.6z"/>
  <path d="M267.7 33.6c-0.6-0.3-0.7-0.5-0.7-1.7 0-2.2 0.2-4 0.2-4.7 0-0.5 0.1-0.7 0.4-0.7 0.3 0 0.3 0.1 0.3 0.5 0 0.4 0 1 0.1 1.6 0.7 3.3 3.6 4.5 6.6 4.5 4.3 0 6.3-3.1 6.3-5.9 0-3.1-1.3-4.8-5.1-8l-2-1.6c-4.7-3.9-5.8-6.6-5.8-9.6 0-4.7 3.5-8 9.2-8 1.7 0 3 0.2 4.1 0.4 0.8 0.2 1.2 0.2 1.6 0.2 0.4 0 0.4 0.1 0.4 0.3 0 0.2-0.2 1.7-0.2 4.7 0 0.7-0.1 1-0.3 1 -0.3 0-0.3-0.2-0.4-0.6 0-0.5-0.3-1.7-0.6-2.2 -0.3-0.5-1.5-2.4-5.5-2.4 -3.1 0-5.5 1.9-5.5 5.1 0 2.5 1.2 4.1 5.4 7.5l1.2 1c5.2 4.1 6.5 6.9 6.5 10.4 0 1.8-0.7 5.2-3.8 7.4 -1.9 1.3-4.3 1.9-6.7 1.9C271.5 34.8 269.5 34.5 267.7 33.6z"/>
  <path d="M294.8 16.5c0-5.9 0-6.9-0.1-8.1 -0.1-1.3-0.3-1.9-1.6-2.1 -0.3 0-1-0.1-1.3-0.1 -0.1 0-0.3-0.2-0.3-0.3 0-0.2 0.2-0.3 0.6-0.3 1.8 0 4.3 0.1 4.5 0.1 0.3 0 8.4 0 9.3 0 0.8 0 1.5-0.2 1.8-0.2 0.2 0 0.4-0.2 0.5-0.2 0.1 0 0.2 0.2 0.2 0.4 0 0.3-0.2 0.7-0.3 1.8 0 0.4-0.1 2-0.2 2.5 0 0.2-0.2 0.4-0.4 0.4 -0.2 0-0.3-0.2-0.3-0.5 0-0.3 0-0.9-0.2-1.3 -0.3-0.6-0.7-0.9-2.8-1.2 -0.7-0.1-5.2-0.1-5.6-0.1 -0.2 0-0.2 0.1-0.2 0.4v10.2c0 0.3 0 0.4 0.2 0.4 0.5 0 5.6 0 6.5-0.1 0.9-0.1 1.5-0.1 1.9-0.5 0.3-0.3 0.4-0.5 0.6-0.5 0.1 0 0.2 0.1 0.2 0.3 0 0.2-0.2 0.8-0.3 2.1 -0.1 0.8-0.2 2.2-0.2 2.4 0 0.3-0.1 0.7-0.4 0.7 -0.2 0-0.3-0.1-0.3-0.4 0-0.4 0-0.8-0.2-1.2 -0.1-0.5-0.5-1-2-1.2 -1.1-0.1-5.2-0.2-5.9-0.2 -0.2 0-0.3 0.1-0.3 0.3v3.1c0 1.3 0 5.7 0 6.4 0.1 2.5 0.8 3 4.7 3 1 0 2.9 0 3.9-0.4 1-0.4 1.6-1.1 1.8-2.6 0.1-0.4 0.2-0.6 0.4-0.6 0.2 0 0.3 0.3 0.3 0.6 0 0.3-0.3 2.8-0.5 3.6 -0.3 1-0.7 1-2.2 1 -2.9 0-5.2-0.1-6.8-0.1 -1.6-0.1-2.7-0.1-3.2-0.1 -0.1 0-0.8 0-1.7 0 -0.8 0-1.6 0.1-2.3 0.1 -0.4 0-0.6-0.1-0.6-0.3 0-0.1 0.1-0.3 0.3-0.3 0.4 0 0.8-0.1 1.2-0.2 0.8-0.1 0.8-0.9 1-2 0.2-1.6 0.2-4.5 0.2-8.2V16.5z"/>
  <path d="M319.5 30.6c-3.8-3.3-4.7-7.6-4.7-11.2 0-2.5 0.9-6.9 4.4-10.3 2.4-2.3 5.9-4 11.9-4 1.6 0 3.8 0.1 5.7 0.4 1.5 0.3 2.7 0.5 4 0.6 0.4 0 0.5 0.2 0.5 0.4 0 0.3-0.1 0.8-0.2 2.1 0 1.2 0 3.3-0.1 3.9 0 0.6-0.2 0.8-0.4 0.8 -0.3 0-0.3-0.3-0.3-0.8 0-1.5-0.6-3-1.6-3.8 -1.4-1.2-4.2-2.1-7.7-2.1 -5 0-7.4 1.3-8.8 2.6 -2.9 2.7-3.5 6-3.5 9.8 0 7.2 5.7 13.7 14.1 13.7 2.9 0 4.9-0.2 6.4-1.8 0.8-0.8 1.4-2.4 1.5-3.1 0.1-0.4 0.1-0.5 0.4-0.5 0.2 0 0.4 0.3 0.4 0.5 0 0.3-0.5 3.5-0.9 4.8 -0.2 0.7-0.3 0.8-1 1.1 -1.6 0.6-4.5 0.8-7.1 0.8C326.5 34.6 322.6 33.3 319.5 30.6z"/>
  <path d="M350.6 16.5c0-5.9 0-6.9-0.1-8.1 -0.1-1.3-0.3-1.9-1.6-2.1 -0.3 0-1-0.1-1.3-0.1 -0.1 0-0.3-0.2-0.3-0.3 0-0.2 0.2-0.3 0.6-0.3 1.8 0 4.4 0.1 4.6 0.1 0.4 0 3.7-0.1 4.9-0.1 2.5 0 5.2 0.2 7.3 1.6 1 0.7 2.7 2.5 2.7 5.1 0 2.8-1.2 5.5-4.8 8.6 3.2 4 5.9 7.4 8.2 9.8 2.1 2.1 3.4 2.5 4.3 2.6 0.8 0.1 1.2 0.1 1.4 0.1s0.4 0.2 0.4 0.3c0 0.2-0.2 0.3-0.9 0.3h-2.4c-2.2 0-3.2-0.2-4.2-0.8 -1.7-0.9-3.1-2.7-5.3-5.5 -1.6-2-3.4-4.5-4.2-5.5 -0.2-0.2-0.3-0.2-0.5-0.2l-5-0.1c-0.2 0-0.3 0.1-0.3 0.3v0.9c0 3.6 0 6.6 0.2 8.1 0.1 1.1 0.4 1.8 1.6 2 0.5 0.1 1.4 0.2 1.7 0.2 0.3 0 0.3 0.2 0.3 0.3 0 0.2-0.2 0.3-0.6 0.3 -2.1 0-4.6-0.1-4.8-0.1 0 0-2.7 0.1-3.9 0.1 -0.4 0-0.6-0.1-0.6-0.3 0-0.1 0.1-0.3 0.3-0.3 0.4 0 0.8-0.1 1.2-0.2 0.8-0.2 0.8-0.9 1-2 0.2-1.6 0.2-4.5 0.2-8.2V16.5zM354 19.7c0 0.2 0.1 0.4 0.3 0.5 0.6 0.3 2.6 0.6 4.3 0.6 0.9 0 2 0 2.9-0.7 1.3-0.9 2.4-2.9 2.4-5.8 0-4.7-2.6-7.4-6.7-7.4 -1.2 0-2.4 0.1-2.8 0.2 -0.2 0.1-0.3 0.2-0.3 0.4V19.7z"/>
  <path d="M380.4 16.5c0-5.9 0-6.9-0.1-8.1 -0.1-1.3-0.3-1.9-1.6-2.1 -0.3 0-1-0.1-1.3-0.1 -0.1 0-0.3-0.2-0.3-0.3 0-0.2 0.2-0.3 0.6-0.3 1.8 0 4.3 0.1 4.5 0.1 0.3 0 8.4 0 9.3 0 0.8 0 1.5-0.2 1.8-0.2 0.2 0 0.4-0.2 0.5-0.2 0.1 0 0.2 0.2 0.2 0.4 0 0.3-0.2 0.7-0.3 1.8 0 0.4-0.1 2-0.2 2.5 0 0.2-0.2 0.4-0.4 0.4 -0.2 0-0.3-0.2-0.3-0.5 0-0.3 0-0.9-0.2-1.3 -0.3-0.6-0.7-0.9-2.8-1.2 -0.7-0.1-5.2-0.1-5.6-0.1 -0.2 0-0.2 0.1-0.2 0.4v10.2c0 0.3 0 0.4 0.2 0.4 0.5 0 5.6 0 6.5-0.1 0.9-0.1 1.5-0.1 1.9-0.5 0.3-0.3 0.4-0.5 0.6-0.5 0.1 0 0.2 0.1 0.2 0.3 0 0.2-0.2 0.8-0.3 2.1 -0.1 0.8-0.2 2.2-0.2 2.4 0 0.3-0.1 0.7-0.4 0.7 -0.2 0-0.3-0.1-0.3-0.4 0-0.4 0-0.8-0.2-1.2 -0.1-0.5-0.5-1-2-1.2 -1.1-0.1-5.2-0.2-5.9-0.2 -0.2 0-0.3 0.1-0.3 0.3v3.1c0 1.3 0 5.7 0 6.4 0.1 2.5 0.8 3 4.7 3 1 0 2.9 0 3.9-0.4 1-0.4 1.6-1.1 1.8-2.6 0.1-0.4 0.2-0.6 0.4-0.6 0.2 0 0.3 0.3 0.3 0.6 0 0.3-0.3 2.8-0.5 3.6 -0.3 1-0.7 1-2.2 1 -2.9 0-5.2-0.1-6.8-0.1 -1.6-0.1-2.7-0.1-3.2-0.1 -0.1 0-0.8 0-1.7 0 -0.8 0-1.6 0.1-2.3 0.1 -0.4 0-0.6-0.1-0.6-0.3 0-0.1 0.1-0.3 0.3-0.3 0.4 0 0.8-0.1 1.2-0.2 0.8-0.1 0.8-0.9 1-2 0.2-1.6 0.2-4.5 0.2-8.2V16.5z"/>
  <path d="M413.4 23.2c0 3.6 0 6.6 0.2 8.2 0.1 1.1 0.3 1.8 1.5 2 0.5 0.1 1.4 0.2 1.8 0.2 0.3 0 0.3 0.2 0.3 0.3 0 0.2-0.2 0.3-0.6 0.3 -2.1 0-4.6-0.1-4.8-0.1 -0.2 0-2.9 0.1-4 0.1 -0.4 0-0.6-0.1-0.6-0.3 0-0.1 0.1-0.3 0.3-0.3 0.4 0 0.8-0.1 1.2-0.2 0.8-0.2 1-0.9 1.2-2 0.2-1.6 0.2-4.5 0.2-8.2V7.4l-5.6 0.1c-2.4 0-3.4 0.3-3.9 1.2 -0.4 0.7-0.5 0.9-0.6 1.2 -0.1 0.3-0.2 0.4-0.4 0.4 -0.1 0-0.3-0.1-0.3-0.3 0-0.4 0.8-3.8 0.8-4.1 0-0.2 0.3-0.7 0.4-0.7 0.3 0 0.7 0.3 1.7 0.4 1.1 0.1 2.6 0.2 3.1 0.2h14.7c1.3 0 2.2-0.1 2.8-0.2 0.6-0.1 0.9-0.2 1.1-0.2 0.2 0 0.2 0.2 0.2 0.4 0 1.2-0.1 3.9-0.1 4.3 0 0.3-0.2 0.5-0.4 0.5 -0.2 0-0.3-0.1-0.3-0.7l0-0.4c-0.1-1.2-1-2-4.7-2.1l-4.9-0.1V23.2z"/>
</svg>
