<?xml version="1.0" encoding="utf-8"?>
<!-- Generator: Adobe Illustrator 18.0.0, SVG Export Plug-In . SVG Version: 6.00 Build 0)  -->
<!DOCTYPE svg PUBLIC "-//W3C//DTD SVG 1.1//EN" "http://www.w3.org/Graphics/SVG/1.1/DTD/svg11.dtd">
<svg version="1.1" id="Layer_1" xmlns="http://www.w3.org/2000/svg" xmlns:xlink="http://www.w3.org/1999/xlink" x="0px" y="0px"
	 viewBox="0 0 265 164.6" enable-background="new 0 0 265 164.6" xml:space="preserve">
<g>
	<path d="M19.2,89c1.5-3.5,5-12.6,5.6-14.4c0.1-0.4,0.2-0.8,0.2-1c0-0.2-0.1-0.5-0.3-0.6c-0.3-0.1-0.7-0.1-1-0.1
		c-0.2,0-0.3,0-0.3-0.2c0-0.2,0.2-0.2,0.6-0.2c1,0,2.2,0.1,2.5,0.1c0.2,0,1.3-0.1,2-0.1c0.3,0,0.4,0.1,0.4,0.2
		c0,0.1-0.1,0.2-0.3,0.2c-0.2,0-0.8,0-1.2,0.3c-0.3,0.2-0.7,0.7-1.4,2.4c-0.3,0.7-1.6,3.9-2.9,7.1c-1.6,3.8-2.8,6.6-3.4,7.9
		c-0.7,1.6-0.8,2-1.1,2c-0.3,0-0.4-0.4-0.9-1.6l-6.4-15.9c-0.6-1.5-1-1.7-1.9-2c-0.4-0.1-0.8-0.1-1-0.1c-0.2,0-0.2-0.1-0.2-0.2
		c0-0.2,0.3-0.2,0.7-0.2c1.2,0,2.7,0.1,3,0.1c0.3,0,1.4-0.1,2.4-0.1c0.5,0,0.7,0.1,0.7,0.2c0,0.1-0.1,0.2-0.3,0.2
		c-0.3,0-0.8,0-1,0.1c-0.3,0.1-0.3,0.3-0.3,0.5c0,0.3,0.3,1.1,0.7,2.2L19.2,89z"/>
	<path d="M34.3,85.7c0,2.1,0,3.9,0.1,4.8c0.1,0.7,0.2,1.1,0.8,1.2c0.3,0.1,0.8,0.1,1,0.1c0.1,0,0.2,0.1,0.2,0.2
		c0,0.1-0.1,0.2-0.4,0.2c-1.3,0-2.8-0.1-2.9-0.1c-0.1,0-1.6,0.1-2.3,0.1c-0.2,0-0.4-0.1-0.4-0.2c0-0.1,0.1-0.2,0.2-0.2
		c0.2,0,0.5-0.1,0.7-0.1c0.4-0.1,0.5-0.5,0.6-1.2c0.1-0.9,0.1-2.7,0.1-4.8v-3.9c0-3.4,0-4.1-0.1-4.8c-0.1-0.8-0.2-1.1-0.7-1.2
		c-0.3-0.1-0.5-0.1-0.7-0.1c-0.1,0-0.2-0.1-0.2-0.2c0-0.1,0.1-0.2,0.4-0.2c0.8,0,2.2,0.1,2.3,0.1c0.1,0,1.6-0.1,2.3-0.1
		c0.3,0,0.4,0.1,0.4,0.2c0,0.1-0.1,0.2-0.2,0.2c-0.2,0-0.3,0-0.6,0.1c-0.6,0.1-0.8,0.4-0.8,1.2c0,0.7,0,1.3,0,4.8V85.7z"/>
	<path d="M42.2,90.1c-2.2-1.9-2.8-4.4-2.8-6.6c0-1.5,0.5-4.1,2.6-6c1.4-1.3,3.5-2.4,7-2.4c0.9,0,2.2,0.1,3.3,0.3
		c0.9,0.2,1.6,0.3,2.3,0.3c0.2,0,0.3,0.1,0.3,0.2c0,0.2-0.1,0.4-0.1,1.2c0,0.7,0,2-0.1,2.3c0,0.3-0.1,0.5-0.3,0.5
		c-0.2,0-0.2-0.2-0.2-0.5c0-0.9-0.4-1.7-1-2.2c-0.8-0.7-2.5-1.2-4.5-1.2c-2.9,0-4.3,0.8-5.2,1.5c-1.7,1.6-2.1,3.5-2.1,5.8
		c0,4.2,3.4,8,8.2,8c1.7,0,2.9-0.1,3.8-1c0.5-0.5,0.8-1.4,0.9-1.8c0.1-0.2,0.1-0.3,0.2-0.3c0.1,0,0.2,0.2,0.2,0.3
		c0,0.2-0.3,2.1-0.5,2.8c-0.1,0.4-0.2,0.5-0.6,0.7c-0.9,0.4-2.7,0.5-4.1,0.5C46.3,92.4,44,91.6,42.2,90.1z"/>
	<path d="M65.3,85.7c0,2.1,0,3.9,0.1,4.8c0.1,0.7,0.2,1.1,0.9,1.2c0.3,0.1,0.8,0.1,1,0.1c0.2,0,0.2,0.1,0.2,0.2
		c0,0.1-0.1,0.2-0.4,0.2c-1.2,0-2.7-0.1-2.8-0.1c-0.1,0-1.7,0.1-2.4,0.1c-0.3,0-0.4-0.1-0.4-0.2c0-0.1,0.1-0.2,0.2-0.2
		c0.2,0,0.5-0.1,0.7-0.1c0.5-0.1,0.6-0.5,0.7-1.2c0.1-0.9,0.1-2.7,0.1-4.8v-9.3l-3.3,0.1c-1.4,0-2,0.2-2.3,0.7
		c-0.3,0.4-0.3,0.5-0.4,0.7c-0.1,0.2-0.1,0.2-0.2,0.2c-0.1,0-0.2-0.1-0.2-0.2c0-0.2,0.4-2.2,0.5-2.4c0-0.1,0.2-0.4,0.2-0.4
		c0.2,0,0.4,0.2,1,0.3c0.7,0.1,1.5,0.1,1.8,0.1H69c0.8,0,1.3-0.1,1.6-0.1c0.3-0.1,0.5-0.1,0.7-0.1c0.1,0,0.1,0.1,0.1,0.3
		c0,0.7-0.1,2.3-0.1,2.5c0,0.2-0.1,0.3-0.2,0.3s-0.2-0.1-0.2-0.4l0-0.2c-0.1-0.7-0.6-1.2-2.8-1.2l-2.9-0.1V85.7z"/>
	<path d="M82,75.1c5.2,0,9.1,3.1,9.1,8.3c0,4.9-3.7,9-9.2,9c-6.3,0-9-4.7-9-8.7C72.9,80.2,75.7,75.1,82,75.1z M82.5,91.5
		c2.1,0,6.2-1.1,6.2-7.5c0-5.3-3.2-8.1-6.8-8.1c-3.8,0-6.6,2.4-6.6,7.2C75.3,88.3,78.4,91.5,82.5,91.5z"/>
	<path d="M95.9,81.8c0-3.4,0-4.1-0.1-4.8c-0.1-0.8-0.2-1.1-0.9-1.2c-0.2,0-0.6-0.1-0.8-0.1c-0.1,0-0.2-0.1-0.2-0.2
		c0-0.1,0.1-0.2,0.4-0.2c1,0,2.6,0.1,2.7,0.1c0.2,0,2.2-0.1,2.9-0.1c1.5,0,3.1,0.1,4.3,1c0.6,0.4,1.6,1.5,1.6,3c0,1.6-0.7,3.2-2.8,5
		c1.9,2.3,3.5,4.3,4.8,5.7c1.2,1.2,2,1.5,2.6,1.5c0.4,0.1,0.7,0.1,0.8,0.1c0.1,0,0.2,0.1,0.2,0.2c0,0.1-0.1,0.2-0.5,0.2h-1.4
		c-1.3,0-1.9-0.1-2.4-0.4c-1-0.5-1.8-1.6-3.1-3.3c-1-1.2-2-2.6-2.5-3.2c-0.1-0.1-0.2-0.1-0.3-0.1L98,85c-0.1,0-0.2,0.1-0.2,0.2v0.5
		c0,2.1,0,3.9,0.1,4.8c0.1,0.7,0.2,1.1,0.9,1.2c0.3,0.1,0.8,0.1,1,0.1c0.2,0,0.2,0.1,0.2,0.2c0,0.1-0.1,0.2-0.4,0.2
		c-1.2,0-2.7-0.1-2.8-0.1c0,0-1.6,0.1-2.3,0.1c-0.2,0-0.4-0.1-0.4-0.2c0-0.1,0.1-0.2,0.2-0.2c0.2,0,0.5-0.1,0.7-0.1
		c0.4-0.1,0.5-0.5,0.6-1.2c0.1-0.9,0.1-2.7,0.1-4.8V81.8z M97.8,83.7c0,0.1,0.1,0.2,0.2,0.3c0.3,0.2,1.5,0.3,2.5,0.3
		c0.5,0,1.2,0,1.7-0.4c0.8-0.5,1.4-1.7,1.4-3.4c0-2.8-1.5-4.3-4-4.3c-0.7,0-1.4,0.1-1.6,0.1c-0.1,0.1-0.2,0.1-0.2,0.3V83.7z"/>
	<path d="M115.4,85.7c0,2.1,0,3.9,0.1,4.8c0.1,0.7,0.2,1.1,0.8,1.2c0.3,0.1,0.8,0.1,1,0.1c0.1,0,0.2,0.1,0.2,0.2
		c0,0.1-0.1,0.2-0.4,0.2c-1.3,0-2.8-0.1-2.9-0.1c-0.1,0-1.6,0.1-2.3,0.1c-0.2,0-0.4-0.1-0.4-0.2c0-0.1,0.1-0.2,0.2-0.2
		c0.2,0,0.5-0.1,0.7-0.1c0.4-0.1,0.5-0.5,0.6-1.2c0.1-0.9,0.1-2.7,0.1-4.8v-3.9c0-3.4,0-4.1-0.1-4.8c-0.1-0.8-0.2-1.1-0.7-1.2
		c-0.3-0.1-0.5-0.1-0.7-0.1c-0.1,0-0.2-0.1-0.2-0.2c0-0.1,0.1-0.2,0.4-0.2c0.8,0,2.2,0.1,2.3,0.1c0.1,0,1.6-0.1,2.3-0.1
		c0.3,0,0.4,0.1,0.4,0.2c0,0.1-0.1,0.2-0.2,0.2c-0.2,0-0.3,0-0.6,0.1c-0.6,0.1-0.8,0.4-0.8,1.2c0,0.7,0,1.3,0,4.8V85.7z"/>
	<path d="M126.9,75.8c0.3-0.7,0.4-0.9,0.5-0.9c0.2,0,0.3,0.3,0.5,0.8c0.4,0.9,4.1,10.1,5.5,13.4c0.8,2,1.5,2.3,2,2.4
		c0.3,0.1,0.7,0.1,0.9,0.1c0.1,0,0.3,0.1,0.3,0.2c0,0.1-0.3,0.2-0.5,0.2c-0.3,0-2,0-3.6-0.1c-0.4,0-0.8,0-0.8-0.2
		c0-0.1,0.1-0.1,0.2-0.2c0.1-0.1,0.4-0.2,0.2-0.6l-2.1-5.1C130,86,130,86,129.8,86h-5.3c-0.1,0-0.2,0.1-0.2,0.2l-1.3,3.5
		c-0.2,0.5-0.3,1.1-0.3,1.5c0,0.4,0.4,0.6,0.8,0.6h0.2c0.2,0,0.2,0.1,0.2,0.2c0,0.1-0.1,0.2-0.3,0.2c-0.5,0-1.8-0.1-2.1-0.1
		c-0.2,0-1.4,0.1-2.3,0.1c-0.3,0-0.4-0.1-0.4-0.2c0-0.1,0.1-0.2,0.2-0.2c0.2,0,0.5,0,0.7-0.1c1-0.1,1.5-0.9,1.9-2L126.9,75.8z
		 M129.5,85.1c0.1,0,0.1-0.1,0.1-0.2l-2.3-6.1c-0.1-0.3-0.3-0.3-0.4,0l-2.1,6.1c0,0.1,0,0.2,0.1,0.2H129.5z"/>
	<path d="M136.7,80.4l-0.3-0.6c0.7-0.6,1.2-1.2,1.6-1.7c0.3-0.6,0.5-1.1,0.5-1.5c0-0.1,0-0.2-0.1-0.3c0-0.1-0.1-0.1-0.2-0.1l-0.1,0
		c-0.2,0-0.3,0.1-0.4,0.1c-0.3,0-0.6-0.1-0.8-0.4c-0.2-0.3-0.3-0.6-0.3-1c0-0.4,0.1-0.8,0.4-1.1c0.2-0.3,0.5-0.5,0.8-0.5
		c0.5,0,0.9,0.2,1.2,0.7c0.4,0.4,0.5,1,0.5,1.7c0,0.8-0.2,1.6-0.6,2.4C138.4,78.9,137.7,79.6,136.7,80.4z"/>
	<path d="M142.3,91.8c-0.3-0.2-0.3-0.2-0.3-0.8c0-1.1,0.1-2,0.1-2.3c0-0.2,0.1-0.4,0.2-0.4c0.1,0,0.2,0.1,0.2,0.3
		c0,0.2,0,0.5,0.1,0.8c0.4,1.6,2.1,2.2,3.6,2.2c2.3,0,3.4-1.3,3.4-2.9c0-1.6-0.9-2.3-2.9-3.9l-1-0.8c-2.5-1.8-3.3-3.2-3.3-4.7
		c0-2.6,2.1-4.2,5.1-4.2c0.9,0,1.8,0.1,2.4,0.3c0.4,0.1,0.6,0.1,0.8,0.1c0.2,0,0.2,0,0.2,0.2c0,0.1-0.1,0.8-0.1,2.3
		c0,0.3,0,0.5-0.2,0.5c-0.2,0-0.2-0.1-0.2-0.3c0-0.3-0.2-0.9-0.3-1.1c-0.2-0.3-0.9-1.1-3-1.1c-1.7,0-3,0.8-3,2.4
		c0,1.4,0.7,2.2,3,3.7l0.7,0.4c2.8,1.9,3.7,3.4,3.7,5.3c0,1.3-0.5,2.7-2.1,3.8c-1,0.6-2.4,0.8-3.6,0.8
		C144.5,92.4,143.2,92.3,142.3,91.8z"/>
	<path d="M165.2,91.8c-0.4-0.2-0.4-0.3-0.4-1c0-1.3,0.1-2.3,0.1-2.8c0-0.3,0.1-0.4,0.2-0.4c0.2,0,0.2,0.1,0.2,0.3c0,0.2,0,0.6,0.1,1
		c0.4,1.9,2.1,2.7,3.9,2.7c2.5,0,3.7-1.8,3.7-3.5c0-1.8-0.8-2.8-3-4.7l-1.2-1c-2.8-2.3-3.4-3.9-3.4-5.6c0-2.8,2.1-4.7,5.4-4.7
		c1,0,1.8,0.1,2.4,0.3c0.5,0.1,0.7,0.1,0.9,0.1c0.2,0,0.3,0.1,0.3,0.2c0,0.1-0.1,1-0.1,2.8c0,0.4-0.1,0.6-0.2,0.6
		c-0.2,0-0.2-0.1-0.2-0.3c0-0.3-0.2-1-0.3-1.3c-0.2-0.3-0.9-1.4-3.3-1.4c-1.8,0-3.2,1.1-3.2,3c0,1.5,0.7,2.4,3.2,4.4L171,81
		c3.1,2.4,3.8,4,3.8,6.1c0,1.1-0.4,3-2.2,4.3c-1.1,0.8-2.5,1.1-3.9,1.1C167.5,92.5,166.3,92.3,165.2,91.8z"/>
	<path d="M181.1,81.8c0-3.4,0-4.1-0.1-4.8c-0.1-0.8-0.2-1.1-0.9-1.2c-0.2,0-0.6-0.1-0.8-0.1c-0.1,0-0.2-0.1-0.2-0.2
		c0-0.1,0.1-0.2,0.4-0.2c1,0,2.5,0.1,2.7,0.1c0.2,0,4.9,0,5.5,0c0.4,0,0.9-0.1,1-0.1c0.1,0,0.2-0.1,0.3-0.1c0.1,0,0.1,0.1,0.1,0.2
		c0,0.2-0.1,0.4-0.2,1c0,0.2-0.1,1.2-0.1,1.5c0,0.1-0.1,0.2-0.2,0.2c-0.1,0-0.2-0.1-0.2-0.3c0-0.2,0-0.5-0.1-0.8
		c-0.2-0.4-0.4-0.5-1.6-0.7c-0.4-0.1-3-0.1-3.3-0.1c-0.1,0-0.1,0.1-0.1,0.2v6c0,0.2,0,0.2,0.1,0.2c0.3,0,3.3,0,3.8-0.1
		c0.5-0.1,0.9-0.1,1.1-0.3c0.2-0.2,0.3-0.3,0.3-0.3c0.1,0,0.1,0.1,0.1,0.2c0,0.1-0.1,0.5-0.2,1.2c-0.1,0.4-0.1,1.3-0.1,1.4
		c0,0.2-0.1,0.4-0.2,0.4c-0.1,0-0.2-0.1-0.2-0.2c0-0.2,0-0.4-0.1-0.7c-0.1-0.3-0.3-0.6-1.2-0.7c-0.6-0.1-3.1-0.1-3.5-0.1
		c-0.1,0-0.2,0.1-0.2,0.2v1.8c0,0.8,0,3.3,0,3.8c0.1,1.5,0.5,1.8,2.7,1.8c0.6,0,1.7,0,2.3-0.2c0.6-0.3,0.9-0.7,1-1.5
		c0.1-0.3,0.1-0.3,0.2-0.3s0.2,0.2,0.2,0.3c0,0.2-0.2,1.7-0.3,2.1c-0.2,0.6-0.4,0.6-1.3,0.6c-1.7,0-3-0.1-4-0.1
		c-1-0.1-1.6-0.1-1.9-0.1c-0.1,0-0.5,0-1,0c-0.4,0-1,0.1-1.3,0.1c-0.2,0-0.4-0.1-0.4-0.2c0-0.1,0.1-0.2,0.2-0.2
		c0.2,0,0.5-0.1,0.7-0.1c0.4-0.1,0.5-0.5,0.6-1.2c0.1-0.9,0.1-2.7,0.1-4.8V81.8z"/>
	<path d="M195.6,90.1c-2.2-1.9-2.8-4.4-2.8-6.6c0-1.5,0.5-4.1,2.6-6c1.4-1.3,3.5-2.4,7-2.4c0.9,0,2.2,0.1,3.3,0.3
		c0.9,0.2,1.6,0.3,2.3,0.3c0.2,0,0.3,0.1,0.3,0.2c0,0.2-0.1,0.4-0.1,1.2c0,0.7,0,2-0.1,2.3c0,0.3-0.1,0.5-0.3,0.5
		c-0.2,0-0.2-0.2-0.2-0.5c0-0.9-0.4-1.7-1-2.2c-0.8-0.7-2.5-1.2-4.5-1.2c-2.9,0-4.3,0.8-5.2,1.5c-1.7,1.6-2.1,3.5-2.1,5.8
		c0,4.2,3.4,8,8.2,8c1.7,0,2.9-0.1,3.8-1c0.5-0.5,0.8-1.4,0.9-1.8c0.1-0.2,0.1-0.3,0.2-0.3c0.1,0,0.2,0.2,0.2,0.3
		c0,0.2-0.3,2.1-0.5,2.8c-0.1,0.4-0.2,0.5-0.6,0.7c-0.9,0.4-2.7,0.5-4.1,0.5C199.7,92.4,197.4,91.6,195.6,90.1z"/>
	<path d="M213.9,81.8c0-3.4,0-4.1-0.1-4.8c-0.1-0.8-0.2-1.1-0.9-1.2c-0.2,0-0.6-0.1-0.8-0.1c-0.1,0-0.2-0.1-0.2-0.2
		c0-0.1,0.1-0.2,0.4-0.2c1,0,2.6,0.1,2.7,0.1c0.2,0,2.2-0.1,2.9-0.1c1.5,0,3.1,0.1,4.3,1c0.6,0.4,1.6,1.5,1.6,3c0,1.6-0.7,3.2-2.8,5
		c1.9,2.3,3.5,4.3,4.8,5.7c1.2,1.2,2,1.5,2.5,1.5c0.4,0.1,0.7,0.1,0.8,0.1s0.2,0.1,0.2,0.2c0,0.1-0.1,0.2-0.5,0.2h-1.4
		c-1.3,0-1.9-0.1-2.4-0.4c-1-0.5-1.8-1.6-3.1-3.3c-1-1.2-2-2.6-2.5-3.2c-0.1-0.1-0.2-0.1-0.3-0.1L216,85c-0.1,0-0.2,0.1-0.2,0.2v0.5
		c0,2.1,0,3.9,0.1,4.8c0.1,0.7,0.2,1.1,0.9,1.2c0.3,0.1,0.8,0.1,1,0.1c0.2,0,0.2,0.1,0.2,0.2c0,0.1-0.1,0.2-0.4,0.2
		c-1.2,0-2.7-0.1-2.8-0.1c0,0-1.6,0.1-2.3,0.1c-0.2,0-0.4-0.1-0.4-0.2c0-0.1,0.1-0.2,0.2-0.2c0.2,0,0.5-0.1,0.7-0.1
		c0.4-0.1,0.5-0.5,0.6-1.2c0.1-0.9,0.1-2.7,0.1-4.8V81.8z M215.8,83.7c0,0.1,0.1,0.2,0.2,0.3c0.3,0.2,1.5,0.3,2.5,0.3
		c0.5,0,1.2,0,1.7-0.4c0.8-0.5,1.4-1.7,1.4-3.4c0-2.8-1.5-4.3-4-4.3c-0.7,0-1.4,0.1-1.6,0.1c-0.1,0.1-0.2,0.1-0.2,0.3V83.7z"/>
	<path d="M231.3,81.8c0-3.4,0-4.1-0.1-4.8c-0.1-0.8-0.2-1.1-0.9-1.2c-0.2,0-0.6-0.1-0.8-0.1c-0.1,0-0.2-0.1-0.2-0.2
		c0-0.1,0.1-0.2,0.4-0.2c1,0,2.5,0.1,2.7,0.1c0.2,0,4.9,0,5.5,0c0.4,0,0.9-0.1,1-0.1c0.1,0,0.2-0.1,0.3-0.1c0.1,0,0.1,0.1,0.1,0.2
		c0,0.2-0.1,0.4-0.2,1c0,0.2-0.1,1.2-0.1,1.5c0,0.1-0.1,0.2-0.2,0.2c-0.1,0-0.2-0.1-0.2-0.3c0-0.2,0-0.5-0.1-0.8
		c-0.2-0.4-0.4-0.5-1.6-0.7c-0.4-0.1-3-0.1-3.3-0.1c-0.1,0-0.1,0.1-0.1,0.2v6c0,0.2,0,0.2,0.1,0.2c0.3,0,3.3,0,3.8-0.1
		c0.5-0.1,0.9-0.1,1.1-0.3c0.2-0.2,0.3-0.3,0.3-0.3s0.1,0.1,0.1,0.2c0,0.1-0.1,0.5-0.2,1.2c-0.1,0.4-0.1,1.3-0.1,1.4
		c0,0.2-0.1,0.4-0.2,0.4c-0.1,0-0.2-0.1-0.2-0.2c0-0.2,0-0.4-0.1-0.7c-0.1-0.3-0.3-0.6-1.2-0.7c-0.6-0.1-3.1-0.1-3.5-0.1
		c-0.1,0-0.2,0.1-0.2,0.2v1.8c0,0.8,0,3.3,0,3.8c0.1,1.5,0.5,1.8,2.7,1.8c0.6,0,1.7,0,2.3-0.2c0.6-0.3,0.9-0.7,1-1.5
		c0.1-0.3,0.1-0.3,0.2-0.3c0.1,0,0.2,0.2,0.2,0.3c0,0.2-0.2,1.7-0.3,2.1c-0.2,0.6-0.4,0.6-1.3,0.6c-1.7,0-3-0.1-4-0.1
		c-1-0.1-1.6-0.1-1.9-0.1c-0.1,0-0.5,0-1,0c-0.4,0-1,0.1-1.3,0.1c-0.2,0-0.4-0.1-0.4-0.2c0-0.1,0.1-0.2,0.2-0.2
		c0.2,0,0.5-0.1,0.7-0.1c0.4-0.1,0.5-0.5,0.6-1.2c0.1-0.9,0.1-2.7,0.1-4.8V81.8z"/>
	<path d="M250.7,85.7c0,2.1,0,3.9,0.1,4.8c0.1,0.7,0.2,1.1,0.9,1.2c0.3,0.1,0.8,0.1,1,0.1c0.2,0,0.2,0.1,0.2,0.2
		c0,0.1-0.1,0.2-0.4,0.2c-1.2,0-2.7-0.1-2.8-0.1c-0.1,0-1.7,0.1-2.4,0.1c-0.3,0-0.4-0.1-0.4-0.2c0-0.1,0.1-0.2,0.2-0.2
		c0.2,0,0.5-0.1,0.7-0.1c0.5-0.1,0.6-0.5,0.7-1.2c0.1-0.9,0.1-2.7,0.1-4.8v-9.3l-3.3,0.1c-1.4,0-2,0.2-2.3,0.7
		c-0.3,0.4-0.3,0.5-0.4,0.7c-0.1,0.2-0.1,0.2-0.2,0.2c-0.1,0-0.2-0.1-0.2-0.2c0-0.2,0.4-2.2,0.5-2.4c0-0.1,0.2-0.4,0.2-0.4
		c0.2,0,0.4,0.2,1,0.3c0.7,0.1,1.5,0.1,1.8,0.1h8.6c0.8,0,1.3-0.1,1.6-0.1c0.3-0.1,0.5-0.1,0.7-0.1c0.1,0,0.1,0.1,0.1,0.3
		c0,0.7-0.1,2.3-0.1,2.5c0,0.2-0.1,0.3-0.2,0.3c-0.1,0-0.2-0.1-0.2-0.4l0-0.2c-0.1-0.7-0.6-1.2-2.8-1.2l-2.9-0.1V85.7z"/>
</g>
</svg>
