<?xml version="1.0" encoding="utf-8"?>
<!-- Generator: Adobe Illustrator 18.0.0, SVG Export Plug-In . SVG Version: 6.00 Build 0)  -->
<!DOCTYPE svg PUBLIC "-//W3C//DTD SVG 1.1//EN" "http://www.w3.org/Graphics/SVG/1.1/DTD/svg11.dtd">
<svg version="1.1" id="Layer_1" xmlns="http://www.w3.org/2000/svg" xmlns:xlink="http://www.w3.org/1999/xlink" x="0px" y="0px"
	 viewBox="0 0 400 248" enable-background="new 0 0 400 248" xml:space="preserve">
<g>
	<path d="M39.9,133.4c2.1-4.9,7.1-17.7,7.9-20.4c0.2-0.6,0.3-1.1,0.3-1.4c0-0.3-0.1-0.7-0.5-0.8c-0.4-0.1-1-0.1-1.4-0.1
		c-0.2,0-0.4,0-0.4-0.2c0-0.2,0.2-0.3,0.8-0.3c1.5,0,3.2,0.1,3.6,0.1c0.2,0,1.8-0.1,2.9-0.1c0.4,0,0.6,0.1,0.6,0.3
		c0,0.2-0.1,0.3-0.4,0.3c-0.3,0-1.1,0-1.8,0.4c-0.5,0.3-1,1-2,3.5c-0.4,1-2.2,5.4-4.1,10c-2.2,5.4-3.9,9.3-4.7,11.1
		c-1,2.2-1.2,2.8-1.5,2.8c-0.4,0-0.6-0.5-1.3-2.3l-9-22.5c-0.8-2.1-1.4-2.5-2.6-2.8c-0.6-0.1-1.2-0.1-1.4-0.1
		c-0.2,0-0.3-0.1-0.3-0.3c0-0.2,0.4-0.3,1-0.3c1.8,0,3.9,0.1,4.3,0.1c0.4,0,2-0.1,3.4-0.1c0.7,0,1,0.1,1,0.3c0,0.2-0.1,0.3-0.4,0.3
		c-0.4,0-1.1,0-1.4,0.2c-0.4,0.2-0.5,0.5-0.5,0.7c0,0.5,0.4,1.6,1,3.1L39.9,133.4z"/>
	<path d="M61.3,128.8c0,3,0,5.5,0.1,6.8c0.1,0.9,0.2,1.5,1.2,1.7c0.5,0.1,1.2,0.1,1.5,0.1c0.2,0,0.3,0.1,0.3,0.3
		c0,0.1-0.1,0.3-0.5,0.3c-1.8,0-3.9-0.1-4-0.1c-0.2,0-2.2,0.1-3.2,0.1c-0.3,0-0.5-0.1-0.5-0.3c0-0.1,0.1-0.3,0.3-0.3
		c0.3,0,0.7-0.1,1-0.1c0.6-0.1,0.7-0.7,0.8-1.7c0.1-1.3,0.2-3.7,0.2-6.8v-5.5c0-4.9,0-5.7-0.1-6.7c-0.1-1.1-0.3-1.5-1-1.7
		c-0.4-0.1-0.8-0.1-1-0.1c-0.1,0-0.3-0.1-0.3-0.3c0-0.2,0.1-0.3,0.5-0.3c1.1,0,3.1,0.1,3.3,0.1c0.1,0,2.2-0.1,3.2-0.1
		c0.4,0,0.5,0.1,0.5,0.3c0,0.1-0.1,0.3-0.3,0.3c-0.2,0-0.4,0-0.8,0.1c-0.9,0.2-1.1,0.6-1.1,1.7c0,1,0,1.9,0,6.7V128.8z"/>
	<path d="M72.4,135c-3.2-2.7-3.9-6.3-3.9-9.3c0-2.1,0.8-5.7,3.6-8.5c1.9-1.9,4.9-3.3,9.8-3.3c1.3,0,3.1,0.1,4.7,0.4
		c1.2,0.2,2.2,0.4,3.3,0.5c0.3,0,0.4,0.1,0.4,0.3c0,0.3-0.1,0.6-0.1,1.8c0,1,0,2.8-0.1,3.2c0,0.5-0.2,0.7-0.4,0.7
		c-0.2,0-0.3-0.2-0.3-0.7c0-1.2-0.5-2.5-1.4-3.1c-1.1-1-3.5-1.7-6.4-1.7c-4.2,0-6.1,1.1-7.3,2.2c-2.4,2.2-2.9,5-2.9,8.2
		c0,6,4.7,11.3,11.6,11.3c2.4,0,4-0.2,5.3-1.5c0.7-0.7,1.1-2,1.2-2.6c0.1-0.3,0.1-0.4,0.3-0.4c0.1,0,0.3,0.2,0.3,0.4
		c0,0.2-0.4,2.9-0.8,4c-0.2,0.6-0.3,0.7-0.8,0.9c-1.3,0.5-3.7,0.7-5.8,0.7C78.2,138.3,74.9,137.2,72.4,135z"/>
	<path d="M105,128.8c0,3,0,5.5,0.1,6.8c0.1,0.9,0.3,1.5,1.2,1.7c0.4,0.1,1.2,0.1,1.5,0.1c0.2,0,0.3,0.1,0.3,0.3
		c0,0.1-0.1,0.3-0.5,0.3c-1.8,0-3.8-0.1-4-0.1c-0.1,0-2.4,0.1-3.3,0.1c-0.4,0-0.5-0.1-0.5-0.3c0-0.1,0.1-0.2,0.3-0.2
		c0.3,0,0.7-0.1,1-0.1c0.7-0.1,0.8-0.8,1-1.7c0.1-1.3,0.1-3.7,0.1-6.8v-13.1l-4.7,0.1c-2,0-2.8,0.3-3.3,1c-0.4,0.6-0.4,0.8-0.5,1
		c-0.1,0.3-0.2,0.3-0.3,0.3c-0.1,0-0.2-0.1-0.2-0.3c0-0.3,0.6-3.1,0.7-3.4c0-0.2,0.2-0.6,0.3-0.6c0.2,0,0.6,0.3,1.4,0.4
		c0.9,0.1,2.2,0.1,2.5,0.1h12.2c1.1,0,1.8-0.1,2.3-0.1c0.5-0.1,0.8-0.1,0.9-0.1c0.1,0,0.1,0.2,0.1,0.4c0,1-0.1,3.2-0.1,3.6
		c0,0.3-0.1,0.4-0.3,0.4s-0.2-0.1-0.3-0.6l0-0.3c-0.1-1-0.8-1.7-3.9-1.7l-4-0.1V128.8z"/>
	<path d="M128.7,113.8c7.3,0,12.8,4.4,12.8,11.7c0,7-5.2,12.8-13,12.8c-8.9,0-12.6-6.7-12.6-12.3C115.9,121,119.8,113.8,128.7,113.8
		z M129.4,137c2.9,0,8.7-1.5,8.7-10.6c0-7.5-4.6-11.4-9.7-11.4c-5.4,0-9.3,3.4-9.3,10.2C119.2,132.5,123.6,137,129.4,137z"/>
	<path d="M148.2,123.3c0-4.9,0-5.7-0.1-6.7c-0.1-1.1-0.3-1.6-1.3-1.7c-0.3,0-0.8-0.1-1.1-0.1c-0.1,0-0.3-0.1-0.3-0.3
		c0-0.2,0.1-0.3,0.5-0.3c1.5,0,3.6,0.1,3.8,0.1c0.3,0,3.1-0.1,4-0.1c2.1,0,4.3,0.2,6,1.4c0.8,0.6,2.2,2.1,2.2,4.3c0,2.3-1,4.6-4,7.1
		c2.6,3.3,4.9,6.1,6.8,8.1c1.7,1.8,2.8,2.1,3.6,2.2c0.6,0.1,1,0.1,1.1,0.1c0.2,0,0.3,0.1,0.3,0.3c0,0.2-0.2,0.3-0.8,0.3h-2
		c-1.8,0-2.6-0.2-3.5-0.6c-1.4-0.7-2.6-2.2-4.4-4.6c-1.4-1.7-2.8-3.7-3.5-4.6c-0.1-0.1-0.2-0.2-0.4-0.2l-4.1-0.1
		c-0.1,0-0.2,0.1-0.2,0.3v0.7c0,3,0,5.4,0.1,6.7c0.1,0.9,0.3,1.5,1.3,1.7c0.4,0.1,1.1,0.1,1.4,0.1c0.2,0,0.3,0.1,0.3,0.3
		c0,0.1-0.1,0.3-0.5,0.3c-1.8,0-3.8-0.1-4-0.1c0,0-2.2,0.1-3.2,0.1c-0.3,0-0.5-0.1-0.5-0.3c0-0.1,0.1-0.3,0.3-0.3
		c0.3,0,0.7-0.1,1-0.1c0.6-0.1,0.7-0.7,0.8-1.7c0.2-1.3,0.2-3.7,0.2-6.8V123.3z M151,125.9c0,0.2,0.1,0.3,0.2,0.4
		c0.5,0.3,2.1,0.5,3.6,0.5c0.8,0,1.7,0,2.4-0.6c1.1-0.7,1.9-2.4,1.9-4.8c0-3.9-2.1-6.1-5.6-6.1c-1,0-2,0.1-2.3,0.2
		c-0.1,0.1-0.3,0.2-0.3,0.4V125.9z"/>
	<path d="M175.9,128.8c0,3,0,5.5,0.1,6.8c0.1,0.9,0.2,1.5,1.2,1.7c0.5,0.1,1.2,0.1,1.5,0.1c0.2,0,0.3,0.1,0.3,0.3
		c0,0.1-0.1,0.3-0.5,0.3c-1.8,0-3.9-0.1-4-0.1c-0.2,0-2.2,0.1-3.2,0.1c-0.3,0-0.5-0.1-0.5-0.3c0-0.1,0.1-0.3,0.3-0.3
		c0.3,0,0.7-0.1,1-0.1c0.6-0.1,0.7-0.7,0.8-1.7c0.1-1.3,0.2-3.7,0.2-6.8v-5.5c0-4.9,0-5.7-0.1-6.7c-0.1-1.1-0.3-1.5-1-1.7
		c-0.4-0.1-0.8-0.1-1-0.1c-0.1,0-0.3-0.1-0.3-0.3c0-0.2,0.1-0.3,0.5-0.3c1.1,0,3.1,0.1,3.3,0.1c0.1,0,2.2-0.1,3.2-0.1
		c0.4,0,0.5,0.1,0.5,0.3c0,0.1-0.1,0.3-0.3,0.3c-0.2,0-0.4,0-0.8,0.1c-0.9,0.2-1.1,0.6-1.1,1.7c0,1,0,1.9,0,6.7V128.8z"/>
	<path d="M192.2,114.9c0.4-1,0.6-1.2,0.8-1.2c0.3,0,0.4,0.4,0.8,1.1c0.6,1.3,5.8,14.2,7.8,19c1.2,2.8,2.1,3.2,2.8,3.4
		c0.5,0.1,1,0.2,1.3,0.2c0.2,0,0.4,0.1,0.4,0.3c0,0.2-0.4,0.3-0.7,0.3c-0.5,0-2.9,0-5.1-0.1c-0.6,0-1.1,0-1.1-0.2
		c0-0.1,0.1-0.1,0.2-0.2c0.2-0.1,0.5-0.3,0.3-0.8l-2.9-7.2c-0.1-0.1-0.1-0.2-0.3-0.2h-7.5c-0.1,0-0.3,0.1-0.3,0.3l-1.8,5
		c-0.3,0.8-0.5,1.5-0.5,2.1c0,0.6,0.6,0.8,1.1,0.8h0.3c0.3,0,0.3,0.1,0.3,0.3c0,0.2-0.2,0.3-0.5,0.3c-0.8,0-2.5-0.1-2.9-0.1
		c-0.3,0-1.9,0.1-3.3,0.1c-0.4,0-0.6-0.1-0.6-0.3c0-0.1,0.1-0.3,0.3-0.3c0.2,0,0.7,0,1-0.1c1.5-0.2,2.1-1.3,2.7-2.9L192.2,114.9z
		 M195.8,127.9c0.1,0,0.1-0.1,0.1-0.2l-3.2-8.6c-0.2-0.5-0.4-0.5-0.6,0l-3,8.6c0,0.1,0,0.2,0.1,0.2H195.8z"/>
	<path d="M205.9,121.3l-0.5-0.8c1-0.8,1.7-1.6,2.2-2.5c0.5-0.8,0.7-1.5,0.7-2.1c0-0.2,0-0.3-0.1-0.4c-0.1-0.1-0.1-0.1-0.3-0.1
		l-0.2,0c-0.2,0.1-0.5,0.1-0.6,0.1c-0.4,0-0.8-0.2-1.1-0.6c-0.3-0.4-0.5-0.8-0.5-1.4c0-0.6,0.2-1.1,0.5-1.5c0.3-0.4,0.7-0.6,1.2-0.6
		c0.6,0,1.2,0.3,1.7,0.9c0.5,0.6,0.7,1.4,0.7,2.4c0,1.2-0.3,2.3-0.9,3.4C208.3,119.2,207.3,120.2,205.9,121.3z"/>
	<path d="M213.8,137.4c-0.4-0.2-0.5-0.3-0.5-1.2c0-1.5,0.1-2.8,0.2-3.3c0-0.3,0.1-0.5,0.3-0.5c0.2,0,0.3,0.1,0.3,0.4
		c0,0.3,0,0.7,0.1,1.1c0.5,2.3,2.9,3.1,5.1,3.1c3.2,0,4.9-1.8,4.9-4.2c0-2.2-1.2-3.3-4.1-5.4l-1.5-1.1c-3.5-2.6-4.6-4.5-4.6-6.7
		c0-3.7,2.9-5.9,7.2-5.9c1.3,0,2.6,0.2,3.3,0.4c0.6,0.1,0.9,0.1,1.1,0.1c0.3,0,0.3,0,0.3,0.2c0,0.1-0.1,1.2-0.1,3.3
		c0,0.5,0,0.7-0.3,0.7c-0.2,0-0.3-0.1-0.3-0.4c0-0.4-0.3-1.2-0.5-1.5c-0.2-0.4-1.3-1.5-4.2-1.5c-2.4,0-4.3,1.2-4.3,3.4
		c0,2,1,3.1,4.2,5.3l0.9,0.6c3.9,2.7,5.3,4.9,5.3,7.5c0,1.8-0.7,3.8-3,5.3c-1.4,0.9-3.4,1.1-5.1,1.1
		C217,138.3,215.1,138.1,213.8,137.4z"/>
	<path d="M246.2,137.4c-0.5-0.3-0.6-0.4-0.6-1.4c0-1.8,0.1-3.3,0.2-3.9c0-0.4,0.1-0.6,0.3-0.6c0.2,0,0.3,0.1,0.3,0.4
		c0,0.3,0,0.8,0.1,1.4c0.6,2.7,3,3.7,5.4,3.7c3.5,0,5.3-2.5,5.3-4.9c0-2.5-1.1-4-4.2-6.6l-1.7-1.4c-3.9-3.2-4.8-5.5-4.8-8
		c0-3.9,2.9-6.6,7.6-6.6c1.4,0,2.5,0.1,3.4,0.4c0.7,0.1,1,0.2,1.3,0.2c0.3,0,0.4,0.1,0.4,0.3c0,0.2-0.1,1.4-0.1,3.9
		c0,0.6-0.1,0.8-0.3,0.8c-0.2,0-0.3-0.2-0.3-0.5c0-0.4-0.3-1.4-0.5-1.8c-0.2-0.4-1.2-1.9-4.6-1.9c-2.5,0-4.5,1.6-4.5,4.3
		c0,2.1,1,3.4,4.5,6.2l1,0.8c4.3,3.4,5.4,5.7,5.4,8.6c0,1.5-0.6,4.3-3.1,6.1c-1.6,1.1-3.6,1.5-5.5,1.5
		C249.4,138.4,247.7,138.1,246.2,137.4z"/>
	<path d="M268.7,123.3c0-4.9,0-5.7-0.1-6.7c-0.1-1.1-0.3-1.6-1.3-1.7c-0.3,0-0.8-0.1-1.1-0.1c-0.1,0-0.3-0.1-0.3-0.3
		c0-0.2,0.1-0.3,0.5-0.3c1.5,0,3.6,0.1,3.7,0.1c0.2,0,7,0,7.7,0c0.6,0,1.2-0.1,1.5-0.2c0.1,0,0.3-0.1,0.4-0.1c0.1,0,0.1,0.1,0.1,0.3
		c0,0.2-0.2,0.6-0.3,1.5c0,0.3-0.1,1.7-0.2,2.1c0,0.1-0.1,0.3-0.3,0.3c-0.2,0-0.3-0.1-0.3-0.4c0-0.2,0-0.7-0.2-1.1
		c-0.2-0.5-0.6-0.7-2.3-1c-0.6-0.1-4.3-0.1-4.7-0.1c-0.1,0-0.2,0.1-0.2,0.3v8.5c0,0.2,0,0.3,0.2,0.3c0.4,0,4.7,0,5.4-0.1
		c0.8-0.1,1.2-0.1,1.6-0.4c0.2-0.2,0.4-0.4,0.5-0.4c0.1,0,0.2,0.1,0.2,0.3c0,0.2-0.2,0.7-0.3,1.7c-0.1,0.6-0.1,1.8-0.1,2
		c0,0.3-0.1,0.6-0.3,0.6c-0.1,0-0.2-0.1-0.2-0.3c0-0.3,0-0.6-0.1-1c-0.1-0.4-0.4-0.8-1.7-1c-0.9-0.1-4.3-0.1-4.9-0.1
		c-0.2,0-0.2,0.1-0.2,0.2v2.6c0,1.1,0,4.7,0,5.3c0.1,2.1,0.7,2.5,3.9,2.5c0.8,0,2.4,0,3.2-0.3c0.8-0.4,1.3-0.9,1.5-2.2
		c0.1-0.4,0.1-0.5,0.3-0.5c0.2,0,0.2,0.3,0.2,0.5c0,0.2-0.3,2.4-0.4,3c-0.2,0.8-0.6,0.8-1.8,0.8c-2.4,0-4.3-0.1-5.6-0.1
		c-1.4-0.1-2.2-0.1-2.7-0.1c-0.1,0-0.7,0-1.4,0c-0.6,0-1.4,0.1-1.9,0.1c-0.3,0-0.5-0.1-0.5-0.3c0-0.1,0.1-0.3,0.3-0.3
		c0.3,0,0.7-0.1,1-0.1c0.6-0.1,0.7-0.7,0.8-1.7c0.2-1.3,0.2-3.7,0.2-6.8V123.3z"/>
	<path d="M289.2,135c-3.2-2.7-3.9-6.3-3.9-9.3c0-2.1,0.8-5.7,3.6-8.5c1.9-1.9,4.9-3.3,9.8-3.3c1.3,0,3.1,0.1,4.7,0.4
		c1.2,0.2,2.2,0.4,3.3,0.5c0.3,0,0.4,0.1,0.4,0.3c0,0.3-0.1,0.6-0.1,1.8c0,1,0,2.8-0.1,3.2c0,0.5-0.2,0.7-0.4,0.7
		c-0.2,0-0.3-0.2-0.3-0.7c0-1.2-0.5-2.5-1.4-3.1c-1.1-1-3.5-1.7-6.4-1.7c-4.2,0-6.1,1.1-7.3,2.2c-2.4,2.2-2.9,5-2.9,8.2
		c0,6,4.7,11.3,11.6,11.3c2.4,0,4-0.2,5.3-1.5c0.7-0.7,1.1-2,1.2-2.6c0.1-0.3,0.1-0.4,0.3-0.4c0.1,0,0.3,0.2,0.3,0.4
		c0,0.2-0.4,2.9-0.8,4c-0.2,0.6-0.3,0.7-0.8,0.9c-1.3,0.5-3.7,0.7-5.8,0.7C295,138.3,291.7,137.2,289.2,135z"/>
	<path d="M314.9,123.3c0-4.9,0-5.7-0.1-6.7c-0.1-1.1-0.3-1.6-1.3-1.7c-0.3,0-0.8-0.1-1.1-0.1c-0.1,0-0.3-0.1-0.3-0.3
		c0-0.2,0.1-0.3,0.5-0.3c1.5,0,3.6,0.1,3.8,0.1c0.3,0,3.1-0.1,4-0.1c2.1,0,4.3,0.2,6,1.4c0.8,0.6,2.2,2.1,2.2,4.3c0,2.3-1,4.6-4,7.1
		c2.6,3.3,4.9,6.1,6.8,8.1c1.7,1.8,2.8,2.1,3.6,2.2c0.6,0.1,1,0.1,1.1,0.1c0.2,0,0.3,0.1,0.3,0.3c0,0.2-0.2,0.3-0.8,0.3h-2
		c-1.8,0-2.6-0.2-3.5-0.6c-1.4-0.7-2.6-2.2-4.4-4.6c-1.4-1.7-2.8-3.7-3.5-4.6c-0.1-0.1-0.2-0.2-0.4-0.2l-4.1-0.1
		c-0.1,0-0.2,0.1-0.2,0.3v0.7c0,3,0,5.4,0.1,6.7c0.1,0.9,0.3,1.5,1.3,1.7c0.4,0.1,1.1,0.1,1.4,0.1c0.2,0,0.3,0.1,0.3,0.3
		c0,0.1-0.1,0.3-0.5,0.3c-1.8,0-3.8-0.1-4-0.1c0,0-2.2,0.1-3.2,0.1c-0.3,0-0.5-0.1-0.5-0.3c0-0.1,0.1-0.3,0.3-0.3
		c0.3,0,0.7-0.1,1-0.1c0.6-0.1,0.7-0.7,0.8-1.7c0.2-1.3,0.2-3.7,0.2-6.8V123.3z M317.7,125.9c0,0.2,0.1,0.3,0.2,0.4
		c0.5,0.3,2.1,0.5,3.6,0.5c0.8,0,1.7,0,2.4-0.6c1.1-0.7,1.9-2.4,1.9-4.8c0-3.9-2.1-6.1-5.6-6.1c-1,0-2,0.1-2.3,0.2
		c-0.1,0.1-0.3,0.2-0.3,0.4V125.9z"/>
	<path d="M339.6,123.3c0-4.9,0-5.7-0.1-6.7c-0.1-1.1-0.3-1.6-1.3-1.7c-0.3,0-0.8-0.1-1.1-0.1c-0.1,0-0.3-0.1-0.3-0.3
		c0-0.2,0.1-0.3,0.5-0.3c1.5,0,3.6,0.1,3.7,0.1c0.2,0,7,0,7.7,0c0.6,0,1.2-0.1,1.5-0.2c0.1,0,0.3-0.1,0.4-0.1c0.1,0,0.1,0.1,0.1,0.3
		c0,0.2-0.2,0.6-0.3,1.5c0,0.3-0.1,1.7-0.2,2.1c0,0.1-0.1,0.3-0.3,0.3c-0.2,0-0.3-0.1-0.3-0.4c0-0.2,0-0.7-0.2-1.1
		c-0.2-0.5-0.6-0.7-2.3-1c-0.6-0.1-4.3-0.1-4.7-0.1c-0.1,0-0.2,0.1-0.2,0.3v8.5c0,0.2,0,0.3,0.2,0.3c0.4,0,4.7,0,5.4-0.1
		c0.8-0.1,1.2-0.1,1.6-0.4c0.2-0.2,0.4-0.4,0.5-0.4c0.1,0,0.2,0.1,0.2,0.3c0,0.2-0.2,0.7-0.3,1.7c-0.1,0.6-0.1,1.8-0.1,2
		c0,0.3-0.1,0.6-0.3,0.6c-0.1,0-0.2-0.1-0.2-0.3c0-0.3,0-0.6-0.1-1c-0.1-0.4-0.4-0.8-1.7-1c-0.9-0.1-4.3-0.1-4.9-0.1
		c-0.2,0-0.2,0.1-0.2,0.2v2.6c0,1.1,0,4.7,0,5.3c0.1,2.1,0.7,2.5,3.9,2.5c0.8,0,2.4,0,3.2-0.3c0.8-0.4,1.3-0.9,1.5-2.2
		c0.1-0.4,0.1-0.5,0.3-0.5c0.2,0,0.2,0.3,0.2,0.5c0,0.2-0.3,2.4-0.4,3c-0.2,0.8-0.6,0.8-1.8,0.8c-2.4,0-4.3-0.1-5.6-0.1
		c-1.4-0.1-2.2-0.1-2.7-0.1c-0.1,0-0.7,0-1.4,0c-0.6,0-1.4,0.1-1.9,0.1c-0.3,0-0.5-0.1-0.5-0.3c0-0.1,0.1-0.3,0.3-0.3
		c0.3,0,0.7-0.1,1-0.1c0.6-0.1,0.7-0.7,0.8-1.7c0.2-1.3,0.2-3.7,0.2-6.8V123.3z"/>
	<path d="M366.9,128.8c0,3,0,5.5,0.1,6.8c0.1,0.9,0.3,1.5,1.2,1.7c0.4,0.1,1.2,0.1,1.5,0.1c0.2,0,0.3,0.1,0.3,0.3
		c0,0.1-0.1,0.3-0.5,0.3c-1.8,0-3.8-0.1-4-0.1c-0.1,0-2.4,0.1-3.3,0.1c-0.4,0-0.5-0.1-0.5-0.3c0-0.1,0.1-0.2,0.3-0.2
		c0.3,0,0.7-0.1,1-0.1c0.7-0.1,0.8-0.8,1-1.7c0.1-1.3,0.1-3.7,0.1-6.8v-13.1l-4.7,0.1c-2,0-2.8,0.3-3.3,1c-0.4,0.6-0.4,0.8-0.5,1
		c-0.1,0.3-0.2,0.3-0.3,0.3c-0.1,0-0.2-0.1-0.2-0.3c0-0.3,0.6-3.1,0.7-3.4c0-0.2,0.2-0.6,0.3-0.6c0.2,0,0.6,0.3,1.4,0.4
		c0.9,0.1,2.2,0.1,2.5,0.1h12.2c1.1,0,1.8-0.1,2.3-0.1c0.5-0.1,0.8-0.1,0.9-0.1c0.1,0,0.1,0.2,0.1,0.4c0,1-0.1,3.2-0.1,3.6
		c0,0.3-0.1,0.4-0.3,0.4s-0.2-0.1-0.3-0.6l0-0.3c-0.1-1-0.8-1.7-3.9-1.7l-4-0.1V128.8z"/>
</g>
</svg>
