<svg id="Layer_1" data-name="Layer 1" xmlns="http://www.w3.org/2000/svg" viewBox="0 0 300.01 186.34"><title>victorias-secret-logo</title><path d="M35.26,99.91c1.53-3.53,5.06-12.72,5.64-14.62a3.8,3.8,0,0,0,.24-1,.65.65,0,0,0-.34-.61,3.32,3.32,0,0,0-1-.11c-.16,0-.29,0-.29-.16s.16-.21.58-.21c1.05,0,2.27.08,2.58.08.16,0,1.29-.08,2.05-.08.29,0,.45.05.45.18s-.11.18-.32.18a2.39,2.39,0,0,0-1.26.32c-.34.24-.74.69-1.45,2.48-.29.74-1.61,3.9-3,7.14-1.61,3.85-2.79,6.69-3.4,8-.74,1.58-.84,2-1.11,2s-.45-.37-.95-1.63L27.28,85.71c-.58-1.47-1-1.76-1.9-2a4.09,4.09,0,0,0-1-.11c-.16,0-.21-.08-.21-.18s.26-.18.68-.18c1.26,0,2.77.08,3.08.08s1.45-.08,2.45-.08c.47,0,.71.05.71.18s-.08.18-.26.18a3.07,3.07,0,0,0-1,.13.53.53,0,0,0-.34.53,10.1,10.1,0,0,0,.71,2.19Z"/><path d="M50.59,96.62c0,2.16,0,3.93.11,4.85.08.66.16,1.08.84,1.19a9.39,9.39,0,0,0,1.05.1.18.18,0,0,1,.18.18c0,.11-.1.18-.37.18-1.29,0-2.79-.08-2.9-.08s-1.58.08-2.29.08c-.24,0-.37-.05-.37-.18a.18.18,0,0,1,.18-.18,3.31,3.31,0,0,0,.71-.1c.45-.11.53-.53.61-1.19.1-.92.13-2.69.13-4.85v-4c0-3.48,0-4.11-.05-4.82s-.24-1.11-.74-1.21a4.19,4.19,0,0,0-.71-.08.2.2,0,0,1-.18-.18c0-.13.1-.18.37-.18.76,0,2.21.05,2.34.05s1.61-.05,2.32-.05c.26,0,.37.05.37.18a.22.22,0,0,1-.18.18,2.58,2.58,0,0,0-.58.05c-.63.13-.76.45-.82,1.24s0,1.34,0,4.82Z"/><path d="M58.54,101a8.4,8.4,0,0,1-2.82-6.64,8.84,8.84,0,0,1,2.61-6.11c1.4-1.34,3.5-2.4,7.06-2.4a22.74,22.74,0,0,1,3.37.26,16.6,16.6,0,0,0,2.37.34c.24,0,.29.11.29.24s-.05.45-.1,1.26,0,2-.05,2.29-.13.47-.26.47-.18-.16-.18-.47a2.92,2.92,0,0,0-1-2.24,7.54,7.54,0,0,0-4.56-1.24c-3,0-4.4.79-5.22,1.55C58.36,89.93,58,91.93,58,94.2a8.14,8.14,0,0,0,8.35,8.11c1.74,0,2.9-.13,3.82-1.05a4.17,4.17,0,0,0,.9-1.87c.05-.24.08-.32.24-.32s.21.16.21.32a23.46,23.46,0,0,1-.55,2.87c-.13.42-.18.5-.58.66a13.71,13.71,0,0,1-4.19.5C62.7,103.42,60.36,102.6,58.54,101Z"/><path d="M81.93,96.62c0,2.16,0,3.93.1,4.85.08.66.18,1.08.9,1.19a8.84,8.84,0,0,0,1.05.1.16.16,0,0,1,.18.18c0,.11-.11.18-.37.18-1.26,0-2.74-.08-2.87-.08s-1.71.08-2.4.08c-.26,0-.37-.05-.37-.18s.05-.16.18-.16a3.07,3.07,0,0,0,.68-.11c.47-.11.61-.55.68-1.21.11-.92.11-2.69.11-4.85v-9.4l-3.35.05c-1.45,0-2,.18-2.34.71a3.64,3.64,0,0,0-.37.71c-.05.18-.13.21-.24.21a.17.17,0,0,1-.16-.18c0-.24.45-2.24.5-2.42s.16-.42.24-.42a8.08,8.08,0,0,0,1,.26c.66.08,1.55.11,1.82.11H85.7a11.51,11.51,0,0,0,1.66-.11c.34-.05.55-.1.66-.1s.11.13.11.26c0,.68-.08,2.29-.08,2.56s-.11.29-.21.29-.16-.08-.18-.39l0-.24c-.08-.68-.58-1.19-2.79-1.24l-2.9-.05Z"/><path d="M98.89,85.87c5.22,0,9.17,3.19,9.17,8.4a9,9,0,0,1-9.3,9.14,8.59,8.59,0,0,1-9.06-8.8A8.87,8.87,0,0,1,98.89,85.87Zm.53,16.62c2.08,0,6.27-1.11,6.27-7.59,0-5.37-3.27-8.19-6.93-8.19-3.87,0-6.66,2.42-6.66,7.3C92.1,99.23,95.23,102.49,99.42,102.49Z"/><path d="M112.91,92.67c0-3.48,0-4.11-.05-4.82s-.18-1.13-.95-1.24a7.52,7.52,0,0,0-.79-.05.22.22,0,0,1-.18-.18c0-.13.11-.18.37-.18,1.05,0,2.61.05,2.74.05s2.19-.05,2.9-.05a7.59,7.59,0,0,1,4.32,1,3.93,3.93,0,0,1,1.61,3.06c0,1.66-.68,3.27-2.84,5.11,1.9,2.37,3.5,4.4,4.85,5.8a4.37,4.37,0,0,0,3.4,1.63.2.2,0,0,1,.21.18c0,.13-.13.18-.55.18h-1.45a4.67,4.67,0,0,1-2.48-.45c-1-.53-1.84-1.61-3.16-3.29-1-1.21-2-2.66-2.5-3.27A.35.35,0,0,0,118,96l-3-.05c-.1,0-.16.05-.16.18v.53c0,2.16,0,3.9.1,4.82.08.66.21,1.08.92,1.19a8.46,8.46,0,0,0,1,.1.16.16,0,0,1,.18.18c0,.11-.11.18-.37.18-1.26,0-2.74-.08-2.85-.08s-1.58.08-2.29.08c-.24,0-.37-.05-.37-.18a.18.18,0,0,1,.18-.18,3.32,3.32,0,0,0,.71-.1c.45-.11.5-.53.61-1.19a45.74,45.74,0,0,0,.13-4.85Zm2,1.9a.33.33,0,0,0,.16.29,7.86,7.86,0,0,0,2.56.34,3,3,0,0,0,1.74-.39,4,4,0,0,0,1.4-3.42c0-2.79-1.53-4.4-4-4.4a10.07,10.07,0,0,0-1.66.13.29.29,0,0,0-.18.26Z"/><path d="M132.71,96.62c0,2.16,0,3.93.11,4.85.08.66.16,1.08.84,1.19a9.41,9.41,0,0,0,1.05.1.18.18,0,0,1,.18.18c0,.11-.11.18-.37.18-1.29,0-2.79-.08-2.9-.08s-1.58.08-2.29.08c-.24,0-.37-.05-.37-.18a.18.18,0,0,1,.18-.18,3.31,3.31,0,0,0,.71-.1c.45-.11.53-.53.61-1.19.11-.92.13-2.69.13-4.85v-4c0-3.48,0-4.11-.05-4.82s-.24-1.11-.74-1.21a4.18,4.18,0,0,0-.71-.08.2.2,0,0,1-.18-.18c0-.13.11-.18.37-.18.76,0,2.21.05,2.34.05s1.61-.05,2.32-.05c.26,0,.37.05.37.18a.22.22,0,0,1-.18.18,2.58,2.58,0,0,0-.58.05c-.63.13-.76.45-.82,1.24s0,1.34,0,4.82Z"/><path d="M144.38,86.64c.29-.74.4-.87.55-.87s.32.32.55.82c.42.95,4.14,10.19,5.56,13.59.84,2,1.48,2.29,2,2.45a3.21,3.21,0,0,0,.92.13c.13,0,.29.05.29.18s-.26.18-.53.18-2.05,0-3.66-.05c-.45,0-.82,0-.82-.16s.05-.11.16-.16a.42.42,0,0,0,.21-.61L147.51,97c-.05-.1-.08-.13-.21-.13H142a.24.24,0,0,0-.24.18l-1.32,3.58a4.63,4.63,0,0,0-.34,1.5c0,.45.39.61.79.61h.21c.18,0,.24.08.24.18s-.13.18-.34.18c-.55,0-1.82-.08-2.08-.08s-1.4.08-2.34.08c-.29,0-.45-.05-.45-.18a.2.2,0,0,1,.21-.18,6.54,6.54,0,0,0,.68-.05c1.05-.13,1.5-.92,1.95-2.05ZM147,96c.11,0,.11-.05.08-.16l-2.29-6.14q-.2-.51-.39,0l-2.16,6.14q0,.16.08.16Z"/><path d="M154.24,91.22l-.35-.56a6.82,6.82,0,0,0,1.59-1.76,3.12,3.12,0,0,0,.51-1.5.68.68,0,0,0-.06-.32.2.2,0,0,0-.19-.11l-.11,0a1.65,1.65,0,0,1-.45.08,1,1,0,0,1-.82-.41,1.48,1.48,0,0,1-.34-1,1.73,1.73,0,0,1,.37-1.1,1.06,1.06,0,0,1,.85-.46,1.55,1.55,0,0,1,1.23.68,2.73,2.73,0,0,1,.53,1.74,5,5,0,0,1-.63,2.41A7.5,7.5,0,0,1,154.24,91.22Z"/><path d="M159.89,102.81c-.32-.16-.34-.24-.34-.84,0-1.11.1-2,.13-2.37s.05-.37.18-.37.21.08.21.26a3.36,3.36,0,0,0,.08.82c.37,1.63,2.11,2.21,3.66,2.21,2.29,0,3.48-1.29,3.48-3s-.87-2.37-2.92-3.9l-1.05-.79C160.82,93,160,91.62,160,90.06c0-2.63,2.08-4.21,5.14-4.21a11.19,11.19,0,0,1,2.4.26,3,3,0,0,0,.82.11c.18,0,.24,0,.24.16s-.1.84-.1,2.37c0,.34,0,.5-.18.5s-.18-.11-.21-.29a4.13,4.13,0,0,0-.34-1.11c-.16-.26-.92-1.11-3-1.11-1.69,0-3.08.84-3.08,2.42,0,1.42.71,2.24,3,3.79l.66.45c2.82,1.92,3.79,3.48,3.79,5.4a4.36,4.36,0,0,1-2.16,3.82,7.11,7.11,0,0,1-3.69.79A8.52,8.52,0,0,1,159.89,102.81Z"/><path d="M183.12,102.78c-.37-.18-.39-.29-.39-1,0-1.32.1-2.37.13-2.79s.08-.42.21-.42.18.08.18.29a4.65,4.65,0,0,0,.08,1c.4,1.95,2.13,2.69,3.9,2.69A3.52,3.52,0,0,0,191,99c0-1.82-.76-2.87-3-4.74l-1.19-1c-2.79-2.29-3.42-3.93-3.42-5.72,0-2.82,2.11-4.74,5.45-4.74a10.2,10.2,0,0,1,2.45.26,4.3,4.3,0,0,0,.92.13c.21,0,.26.05.26.18s-.1,1-.1,2.79c0,.42-.05.61-.18.61s-.18-.13-.21-.34a4.63,4.63,0,0,0-.34-1.32c-.16-.29-.87-1.4-3.29-1.4a3,3,0,0,0-3.24,3.06c0,1.5.68,2.45,3.21,4.43l.74.58c3.11,2.45,3.85,4.08,3.85,6.19a5.46,5.46,0,0,1-2.24,4.37,6.93,6.93,0,0,1-4,1.11A8,8,0,0,1,183.12,102.78Z"/><path d="M199.22,92.67c0-3.48,0-4.11-.05-4.82s-.18-1.13-.95-1.24a7.51,7.51,0,0,0-.79-.05.22.22,0,0,1-.18-.18c0-.13.1-.18.37-.18,1.05,0,2.56.05,2.69.05s5,0,5.53,0,.87-.11,1.05-.13a1.48,1.48,0,0,1,.32-.11c.08,0,.11.11.11.21s-.13.42-.18,1.05c0,.21-.08,1.21-.13,1.48,0,.11-.11.24-.21.24s-.18-.1-.18-.29a2.45,2.45,0,0,0-.13-.79c-.16-.37-.39-.53-1.66-.68-.4-.05-3.08-.08-3.35-.08-.1,0-.13.08-.13.24v6.08c0,.16,0,.24.13.24.29,0,3.35,0,3.87-.05s.9-.08,1.13-.32.26-.29.34-.29.13.05.13.18a12.21,12.21,0,0,0-.18,1.24c-.05.45-.11,1.29-.11,1.45s-.05.42-.21.42-.16-.08-.16-.21a2,2,0,0,0-.1-.74c-.08-.32-.29-.58-1.19-.68-.63-.08-3.11-.1-3.5-.1a.14.14,0,0,0-.16.16v1.87c0,.76,0,3.37,0,3.82.05,1.5.47,1.79,2.77,1.79a7.72,7.72,0,0,0,2.32-.24,1.7,1.7,0,0,0,1.05-1.55c.05-.26.11-.34.24-.34s.16.18.16.34a18.57,18.57,0,0,1-.32,2.16c-.16.58-.4.58-1.29.58-1.74,0-3.08-.05-4-.08s-1.58-.05-1.92-.05c-.05,0-.5,0-1,0s-1,.05-1.34.05-.37-.05-.37-.18a.18.18,0,0,1,.18-.18,6.69,6.69,0,0,0,.71-.1c.45-.08.5-.53.61-1.19a45.74,45.74,0,0,0,.13-4.85Z"/><path d="M213.91,101a8.4,8.4,0,0,1-2.82-6.64,8.84,8.84,0,0,1,2.61-6.11c1.4-1.34,3.5-2.4,7.06-2.4a22.74,22.74,0,0,1,3.37.26,16.6,16.6,0,0,0,2.37.34c.24,0,.29.11.29.24s-.05.45-.11,1.26,0,2-.05,2.29-.13.47-.26.47-.18-.16-.18-.47a2.92,2.92,0,0,0-1-2.24,7.54,7.54,0,0,0-4.56-1.24c-3,0-4.4.79-5.22,1.55-1.71,1.58-2.08,3.58-2.08,5.85a8.14,8.14,0,0,0,8.35,8.11c1.74,0,2.9-.13,3.82-1.05a4.18,4.18,0,0,0,.9-1.87c.05-.24.08-.32.24-.32s.21.16.21.32a23.46,23.46,0,0,1-.55,2.87c-.13.42-.18.5-.58.66a13.7,13.7,0,0,1-4.19.5C218.08,103.42,215.73,102.6,213.91,101Z"/><path d="M232.38,92.67c0-3.48,0-4.11-.05-4.82s-.18-1.13-.95-1.24a7.51,7.51,0,0,0-.79-.05.22.22,0,0,1-.18-.18c0-.13.1-.18.37-.18,1.05,0,2.61.05,2.74.05s2.19-.05,2.9-.05a7.59,7.59,0,0,1,4.32,1,3.93,3.93,0,0,1,1.61,3.06c0,1.66-.68,3.27-2.85,5.11,1.9,2.37,3.5,4.4,4.85,5.8a4.37,4.37,0,0,0,3.4,1.63.2.2,0,0,1,.21.18c0,.13-.13.18-.55.18h-1.45a4.67,4.67,0,0,1-2.48-.45c-1-.53-1.84-1.61-3.16-3.29-1-1.21-2-2.66-2.5-3.27a.35.35,0,0,0-.32-.13l-3-.05c-.11,0-.16.05-.16.18v.53c0,2.16,0,3.9.11,4.82.08.66.21,1.08.92,1.19a8.47,8.47,0,0,0,1,.1.16.16,0,0,1,.18.18c0,.11-.1.18-.37.18-1.26,0-2.74-.08-2.84-.08s-1.58.08-2.29.08c-.24,0-.37-.05-.37-.18a.18.18,0,0,1,.18-.18,3.32,3.32,0,0,0,.71-.1c.45-.11.5-.53.61-1.19a45.74,45.74,0,0,0,.13-4.85Zm2,1.9a.33.33,0,0,0,.16.29,7.85,7.85,0,0,0,2.56.34,3,3,0,0,0,1.74-.39,4,4,0,0,0,1.4-3.42c0-2.79-1.53-4.4-4-4.4a10.08,10.08,0,0,0-1.66.13.29.29,0,0,0-.18.26Z"/><path d="M250.08,92.67c0-3.48,0-4.11-.05-4.82s-.18-1.13-.95-1.24a7.51,7.51,0,0,0-.79-.05.22.22,0,0,1-.18-.18c0-.13.1-.18.37-.18,1.05,0,2.56.05,2.69.05s5,0,5.53,0,.87-.11,1.05-.13a1.48,1.48,0,0,1,.32-.11c.08,0,.11.11.11.21s-.13.42-.18,1.05c0,.21-.08,1.21-.13,1.48,0,.11-.11.24-.21.24s-.18-.1-.18-.29a2.45,2.45,0,0,0-.13-.79c-.16-.37-.39-.53-1.66-.68-.39-.05-3.08-.08-3.35-.08-.1,0-.13.08-.13.24v6.08c0,.16,0,.24.13.24.29,0,3.35,0,3.87-.05s.9-.08,1.13-.32.26-.29.34-.29.13.05.13.18a12.21,12.21,0,0,0-.18,1.24c-.05.45-.11,1.29-.11,1.45s-.05.42-.21.42-.16-.08-.16-.21a2,2,0,0,0-.1-.74c-.08-.32-.29-.58-1.19-.68-.63-.08-3.11-.1-3.5-.1a.14.14,0,0,0-.16.16v1.87c0,.76,0,3.37,0,3.82.05,1.5.47,1.79,2.77,1.79a7.72,7.72,0,0,0,2.32-.24,1.7,1.7,0,0,0,1.05-1.55c.05-.26.11-.34.24-.34s.16.18.16.34a18.58,18.58,0,0,1-.32,2.16c-.16.58-.4.58-1.29.58-1.74,0-3.08-.05-4-.08s-1.58-.05-1.92-.05c-.05,0-.5,0-1,0s-1,.05-1.34.05-.37-.05-.37-.18a.18.18,0,0,1,.18-.18,6.69,6.69,0,0,0,.71-.1c.45-.08.5-.53.61-1.19a45.74,45.74,0,0,0,.13-4.85Z"/><path d="M269.65,96.62c0,2.16,0,3.93.11,4.85.08.66.18,1.08.9,1.19a8.85,8.85,0,0,0,1.05.1.16.16,0,0,1,.18.18c0,.11-.1.18-.37.18-1.26,0-2.74-.08-2.87-.08s-1.71.08-2.4.08c-.26,0-.37-.05-.37-.18s.05-.16.18-.16a3.08,3.08,0,0,0,.68-.11c.47-.11.61-.55.68-1.21.11-.92.11-2.69.11-4.85v-9.4l-3.35.05c-1.45,0-2,.18-2.34.71a3.6,3.6,0,0,0-.37.71c-.05.18-.13.21-.24.21a.18.18,0,0,1-.16-.18c0-.24.45-2.24.5-2.42s.16-.42.24-.42a8.05,8.05,0,0,0,1,.26c.66.08,1.55.11,1.82.11h8.75a11.51,11.51,0,0,0,1.66-.11c.34-.05.55-.1.66-.1s.11.13.11.26c0,.68-.08,2.29-.08,2.56s-.1.29-.21.29-.16-.08-.18-.39l0-.24c-.08-.68-.58-1.19-2.79-1.24l-2.9-.05Z"/></svg>