<?xml version="1.0" encoding="utf-8"?>
<!-- Generator: Adobe Illustrator 18.0.0, SVG Export Plug-In . SVG Version: 6.00 Build 0)  -->
<!DOCTYPE svg PUBLIC "-//W3C//DTD SVG 1.1//EN" "http://www.w3.org/Graphics/SVG/1.1/DTD/svg11.dtd">
<svg version="1.1" id="Layer_1" xmlns="http://www.w3.org/2000/svg" xmlns:xlink="http://www.w3.org/1999/xlink" x="0px" y="0px"
	 viewBox="67.5 49 265 150" enable-background="new 67.5 49 265 150" xml:space="preserve">
<g>
	<path d="M92.8,130.3c1.4-3.3,4.8-11.9,5.3-13.7c0.1-0.4,0.2-0.7,0.2-0.9c0-0.2-0.1-0.5-0.3-0.5c-0.3-0.1-0.7-0.1-0.9-0.1
		c-0.1,0-0.3,0-0.3-0.1s0.1-0.2,0.5-0.2c1,0,2.1,0.1,2.4,0.1c0.1,0,1.2-0.1,1.9-0.1c0.3,0,0.4,0.1,0.4,0.2c0,0.1-0.1,0.2-0.3,0.2
		c-0.2,0-0.7,0-1.2,0.3c-0.3,0.2-0.7,0.7-1.3,2.3c-0.3,0.7-1.5,3.6-2.7,6.7c-1.5,3.6-2.6,6.2-3.1,7.4c-0.7,1.5-0.8,1.9-1,1.9
		c-0.3,0-0.4-0.3-0.9-1.5l-6-15.1c-0.5-1.4-0.9-1.7-1.7-1.9c-0.4-0.1-0.8-0.1-0.9-0.1s-0.2-0.1-0.2-0.2s0.3-0.2,0.7-0.2
		c1.2,0,2.6,0.1,2.9,0.1s1.3-0.1,2.3-0.1c0.5,0,0.7,0.1,0.7,0.2c0,0.1-0.1,0.2-0.3,0.2c-0.3,0-0.7,0-0.9,0.1
		c-0.3,0.1-0.3,0.3-0.3,0.5c0,0.3,0.3,1.1,0.7,2.1L92.8,130.3z"/>
	<path d="M107.1,127.2c0,2,0,3.7,0.1,4.6c0.1,0.6,0.1,1,0.8,1.1c0.3,0.1,0.8,0.1,1,0.1c0.1,0,0.2,0.1,0.2,0.2c0,0.1-0.1,0.2-0.3,0.2
		c-1.2,0-2.6-0.1-2.7-0.1c-0.1,0-1.5,0.1-2.1,0.1c-0.2,0-0.3-0.1-0.3-0.2c0-0.1,0.1-0.2,0.2-0.2c0.2,0,0.5-0.1,0.7-0.1
		c0.4-0.1,0.5-0.5,0.5-1.1c0.1-0.9,0.1-2.5,0.1-4.6v-3.7c0-3.3,0-3.8-0.1-4.5c-0.1-0.7-0.2-1-0.7-1.1c-0.3-0.1-0.5-0.1-0.7-0.1
		c-0.1,0-0.2-0.1-0.2-0.2s0.1-0.2,0.3-0.2c0.7,0,2.1,0.1,2.2,0.1c0.1,0,1.5-0.1,2.1-0.1c0.3,0,0.3,0.1,0.3,0.2
		c0,0.1-0.1,0.2-0.2,0.2s-0.3,0-0.5,0.1c-0.6,0.1-0.7,0.4-0.7,1.1c0,0.7,0,1.3,0,4.5L107.1,127.2L107.1,127.2z"/>
	<path d="M114.5,131.3c-2.1-1.8-2.6-4.2-2.6-6.2c0-1.4,0.5-3.8,2.4-5.7c1.3-1.3,3.3-2.2,6.6-2.2c0.9,0,2.1,0.1,3.1,0.3
		c0.8,0.1,1.5,0.3,2.2,0.3c0.2,0,0.3,0.1,0.3,0.2c0,0.2-0.1,0.4-0.1,1.2c0,0.7,0,1.9-0.1,2.1c0,0.3-0.1,0.5-0.3,0.5
		s-0.2-0.1-0.2-0.5c0-0.8-0.3-1.7-0.9-2.1c-0.7-0.7-2.3-1.1-4.3-1.1c-2.8,0-4.1,0.7-4.9,1.5c-1.6,1.5-1.9,3.3-1.9,5.5
		c0,4,3.1,7.6,7.8,7.6c1.6,0,2.7-0.1,3.5-1c0.5-0.5,0.7-1.3,0.8-1.7c0.1-0.2,0.1-0.3,0.2-0.3c0.1,0,0.2,0.1,0.2,0.3
		s-0.3,1.9-0.5,2.7c-0.1,0.4-0.2,0.5-0.5,0.6c-0.9,0.3-2.5,0.5-3.9,0.5C118.4,133.5,116.2,132.8,114.5,131.3z"/>
	<path d="M136.4,127.2c0,2,0,3.7,0.1,4.6c0.1,0.6,0.2,1,0.8,1.1c0.3,0.1,0.8,0.1,1,0.1c0.1,0,0.2,0.1,0.2,0.2c0,0.1-0.1,0.2-0.3,0.2
		c-1.2,0-2.5-0.1-2.7-0.1c-0.1,0-1.6,0.1-2.2,0.1c-0.3,0-0.3-0.1-0.3-0.2c0-0.1,0.1-0.1,0.2-0.1c0.2,0,0.5-0.1,0.7-0.1
		c0.5-0.1,0.5-0.5,0.7-1.1c0.1-0.9,0.1-2.5,0.1-4.6v-8.8l-3.1,0.1c-1.3,0-1.9,0.2-2.2,0.7c-0.3,0.4-0.3,0.5-0.3,0.7
		c-0.1,0.2-0.1,0.2-0.2,0.2s-0.1-0.1-0.1-0.2c0-0.2,0.4-2.1,0.5-2.3c0-0.1,0.1-0.4,0.2-0.4c0.1,0,0.4,0.2,0.9,0.3
		c0.6,0.1,1.5,0.1,1.7,0.1h8.2c0.7,0,1.2-0.1,1.5-0.1c0.3-0.1,0.5-0.1,0.6-0.1c0.1,0,0.1,0.1,0.1,0.3c0,0.7-0.1,2.1-0.1,2.4
		c0,0.2-0.1,0.3-0.2,0.3s-0.1-0.1-0.2-0.4v-0.2c-0.1-0.7-0.5-1.1-2.6-1.1l-2.7-0.1C136.4,118.5,136.4,127.2,136.4,127.2z"/>
	<path d="M152.2,117.1c4.9,0,8.6,2.9,8.6,7.8c0,4.7-3.5,8.6-8.7,8.6c-6,0-8.4-4.5-8.4-8.2C143.6,122,146.3,117.1,152.2,117.1z
		 M152.7,132.7c1.9,0,5.8-1,5.8-7.1c0-5-3.1-7.6-6.5-7.6c-3.6,0-6.2,2.3-6.2,6.8C145.9,129.7,148.8,132.7,152.7,132.7z"/>
	<path d="M165.3,123.5c0-3.3,0-3.8-0.1-4.5c-0.1-0.7-0.2-1.1-0.9-1.1c-0.2,0-0.5-0.1-0.7-0.1c-0.1,0-0.2-0.1-0.2-0.2
		s0.1-0.2,0.3-0.2c1,0,2.4,0.1,2.5,0.1c0.2,0,2.1-0.1,2.7-0.1c1.4,0,2.9,0.1,4,0.9c0.5,0.4,1.5,1.4,1.5,2.9c0,1.5-0.7,3.1-2.7,4.8
		c1.7,2.2,3.3,4.1,4.6,5.4c1.1,1.2,1.9,1.4,2.4,1.5c0.4,0.1,0.7,0.1,0.7,0.1c0.1,0,0.2,0.1,0.2,0.2s-0.1,0.2-0.5,0.2h-1.3
		c-1.2,0-1.7-0.1-2.3-0.4c-0.9-0.5-1.7-1.5-2.9-3.1c-0.9-1.1-1.9-2.5-2.3-3.1c-0.1-0.1-0.1-0.1-0.3-0.1l-2.7-0.1
		c-0.1,0-0.1,0.1-0.1,0.2v0.5c0,2,0,3.6,0.1,4.5c0.1,0.6,0.2,1,0.9,1.1c0.3,0.1,0.7,0.1,0.9,0.1c0.1,0,0.2,0.1,0.2,0.2
		c0,0.1-0.1,0.2-0.3,0.2c-1.2,0-2.5-0.1-2.7-0.1c0,0-1.5,0.1-2.1,0.1c-0.2,0-0.3-0.1-0.3-0.2c0-0.1,0.1-0.2,0.2-0.2
		c0.2,0,0.5-0.1,0.7-0.1c0.4-0.1,0.5-0.5,0.5-1.1c0.1-0.9,0.1-2.5,0.1-4.6v-3.7H165.3z M167.2,125.2c0,0.1,0.1,0.2,0.1,0.3
		c0.3,0.2,1.4,0.3,2.4,0.3c0.5,0,1.1,0,1.6-0.4c0.7-0.5,1.3-1.6,1.3-3.2c0-2.6-1.4-4.1-3.7-4.1c-0.7,0-1.3,0.1-1.5,0.1
		c-0.1,0.1-0.2,0.1-0.2,0.3L167.2,125.2L167.2,125.2z"/>
	<path d="M183.8,127.2c0,2,0,3.7,0.1,4.6c0.1,0.6,0.1,1,0.8,1.1c0.3,0.1,0.8,0.1,1,0.1c0.1,0,0.2,0.1,0.2,0.2c0,0.1-0.1,0.2-0.3,0.2
		c-1.2,0-2.6-0.1-2.7-0.1c-0.1,0-1.5,0.1-2.1,0.1c-0.2,0-0.3-0.1-0.3-0.2c0-0.1,0.1-0.2,0.2-0.2c0.2,0,0.5-0.1,0.7-0.1
		c0.4-0.1,0.5-0.5,0.5-1.1c0.1-0.9,0.1-2.5,0.1-4.6v-3.7c0-3.3,0-3.8-0.1-4.5c-0.1-0.7-0.2-1-0.7-1.1c-0.3-0.1-0.5-0.1-0.7-0.1
		c-0.1,0-0.2-0.1-0.2-0.2s0.1-0.2,0.3-0.2c0.7,0,2.1,0.1,2.2,0.1c0.1,0,1.5-0.1,2.1-0.1c0.3,0,0.3,0.1,0.3,0.2
		c0,0.1-0.1,0.2-0.2,0.2s-0.3,0-0.5,0.1c-0.6,0.1-0.7,0.4-0.7,1.1c0,0.7,0,1.3,0,4.5L183.8,127.2L183.8,127.2z"/>
	<path d="M194.7,117.9c0.3-0.7,0.4-0.8,0.5-0.8c0.2,0,0.3,0.3,0.5,0.7c0.4,0.9,3.9,9.5,5.2,12.7c0.8,1.9,1.4,2.1,1.9,2.3
		c0.3,0.1,0.7,0.1,0.9,0.1c0.1,0,0.3,0.1,0.3,0.2s-0.3,0.2-0.5,0.2c-0.3,0-1.9,0-3.4-0.1c-0.4,0-0.7,0-0.7-0.1
		c0-0.1,0.1-0.1,0.1-0.1c0.1-0.1,0.3-0.2,0.2-0.5l-1.9-4.8c-0.1-0.1-0.1-0.1-0.2-0.1h-5c-0.1,0-0.2,0.1-0.2,0.2l-1.2,3.3
		c-0.2,0.5-0.3,1-0.3,1.4c0,0.4,0.4,0.5,0.7,0.5h0.2c0.2,0,0.2,0.1,0.2,0.2s-0.1,0.2-0.3,0.2c-0.5,0-1.7-0.1-1.9-0.1
		c-0.2,0-1.3,0.1-2.2,0.1c-0.3,0-0.4-0.1-0.4-0.2c0-0.1,0.1-0.2,0.2-0.2s0.5,0,0.7-0.1c1-0.1,1.4-0.9,1.8-1.9L194.7,117.9z
		 M197.2,126.6c0.1,0,0.1-0.1,0.1-0.1l-2.1-5.8c-0.1-0.3-0.3-0.3-0.4,0l-2,5.8c0,0.1,0,0.1,0.1,0.1H197.2z"/>
	<path d="M203.9,122.2l-0.3-0.5c0.7-0.5,1.1-1.1,1.5-1.7c0.3-0.5,0.5-1,0.5-1.4c0-0.1,0-0.2-0.1-0.3s-0.1-0.1-0.2-0.1h-0.1
		c-0.1,0.1-0.3,0.1-0.4,0.1c-0.3,0-0.5-0.1-0.7-0.4c-0.2-0.3-0.3-0.5-0.3-0.9s0.1-0.7,0.3-1c0.2-0.3,0.5-0.4,0.8-0.4
		c0.4,0,0.8,0.2,1.1,0.6c0.3,0.4,0.5,0.9,0.5,1.6c0,0.8-0.2,1.5-0.6,2.3C205.5,120.8,204.9,121.4,203.9,122.2z"/>
	<path d="M209.2,132.9c-0.3-0.1-0.3-0.2-0.3-0.8c0-1,0.1-1.9,0.1-2.2c0-0.2,0.1-0.3,0.2-0.3s0.2,0.1,0.2,0.3c0,0.2,0,0.5,0.1,0.7
		c0.3,1.5,1.9,2.1,3.4,2.1c2.1,0,3.3-1.2,3.3-2.8c0-1.5-0.8-2.2-2.7-3.6l-1-0.7c-2.3-1.7-3.1-3-3.1-4.5c0-2.5,1.9-4,4.8-4
		c0.9,0,1.7,0.1,2.2,0.3c0.4,0.1,0.6,0.1,0.7,0.1c0.2,0,0.2,0,0.2,0.1c0,0.1-0.1,0.8-0.1,2.2c0,0.3,0,0.5-0.2,0.5
		c-0.1,0-0.2-0.1-0.2-0.3c0-0.3-0.2-0.8-0.3-1c-0.1-0.3-0.9-1-2.8-1c-1.6,0-2.9,0.8-2.9,2.3c0,1.3,0.7,2.1,2.8,3.5l0.6,0.4
		c2.6,1.8,3.5,3.3,3.5,5c0,1.2-0.5,2.5-2,3.5c-0.9,0.6-2.3,0.7-3.4,0.7C211.4,133.5,210.1,133.4,209.2,132.9z"/>
	<path d="M230.9,132.9c-0.3-0.2-0.4-0.3-0.4-0.9c0-1.2,0.1-2.2,0.1-2.6c0-0.3,0.1-0.4,0.2-0.4s0.2,0.1,0.2,0.3c0,0.2,0,0.5,0.1,0.9
		c0.4,1.8,2,2.5,3.6,2.5c2.3,0,3.5-1.7,3.5-3.3c0-1.7-0.7-2.7-2.8-4.4l-1.1-0.9c-2.6-2.1-3.2-3.7-3.2-5.4c0-2.6,1.9-4.4,5.1-4.4
		c0.9,0,1.7,0.1,2.3,0.3c0.5,0.1,0.7,0.1,0.9,0.1s0.3,0.1,0.3,0.2s-0.1,0.9-0.1,2.6c0,0.4-0.1,0.5-0.2,0.5c-0.1,0-0.2-0.1-0.2-0.3
		c0-0.3-0.2-0.9-0.3-1.2c-0.1-0.3-0.8-1.3-3.1-1.3c-1.7,0-3,1.1-3,2.9c0,1.4,0.7,2.3,3,4.2l0.7,0.5c2.9,2.3,3.6,3.8,3.6,5.8
		c0,1-0.4,2.9-2.1,4.1c-1.1,0.7-2.4,1-3.7,1C233,133.6,231.9,133.4,230.9,132.9z"/>
	<path d="M246,123.5c0-3.3,0-3.8-0.1-4.5c-0.1-0.7-0.2-1.1-0.9-1.1c-0.2,0-0.5-0.1-0.7-0.1c-0.1,0-0.2-0.1-0.2-0.2s0.1-0.2,0.3-0.2
		c1,0,2.4,0.1,2.5,0.1c0.1,0,4.7,0,5.2,0c0.4,0,0.8-0.1,1-0.1c0.1,0,0.2-0.1,0.3-0.1s0.1,0.1,0.1,0.2c0,0.1-0.1,0.4-0.2,1
		c0,0.2-0.1,1.1-0.1,1.4c0,0.1-0.1,0.2-0.2,0.2c-0.1,0-0.2-0.1-0.2-0.3c0-0.1,0-0.5-0.1-0.7c-0.1-0.3-0.4-0.5-1.5-0.7
		c-0.4-0.1-2.9-0.1-3.1-0.1c-0.1,0-0.1,0.1-0.1,0.2v5.7c0,0.1,0,0.2,0.1,0.2c0.3,0,3.1,0,3.6-0.1c0.5-0.1,0.8-0.1,1.1-0.3
		c0.1-0.1,0.3-0.3,0.3-0.3s0.1,0.1,0.1,0.2s-0.1,0.5-0.2,1.1c-0.1,0.4-0.1,1.2-0.1,1.3c0,0.2-0.1,0.4-0.2,0.4
		c-0.1,0-0.1-0.1-0.1-0.2c0-0.2,0-0.4-0.1-0.7c-0.1-0.3-0.3-0.5-1.1-0.7c-0.6-0.1-2.9-0.1-3.3-0.1c-0.1,0-0.1,0.1-0.1,0.1v1.7
		c0,0.7,0,3.1,0,3.5c0.1,1.4,0.5,1.7,2.6,1.7c0.5,0,1.6,0,2.1-0.2c0.5-0.3,0.9-0.6,1-1.5c0.1-0.3,0.1-0.3,0.2-0.3s0.1,0.2,0.1,0.3
		s-0.2,1.6-0.3,2c-0.1,0.5-0.4,0.5-1.2,0.5c-1.6,0-2.9-0.1-3.7-0.1c-0.9-0.1-1.5-0.1-1.8-0.1c-0.1,0-0.5,0-0.9,0
		c-0.4,0-0.9,0.1-1.3,0.1c-0.2,0-0.3-0.1-0.3-0.2c0-0.1,0.1-0.2,0.2-0.2c0.2,0,0.5-0.1,0.7-0.1c0.4-0.1,0.5-0.5,0.5-1.1
		c0.1-0.9,0.1-2.5,0.1-4.6v-3.5H246z"/>
	<path d="M259.7,131.3c-2.1-1.8-2.6-4.2-2.6-6.2c0-1.4,0.5-3.8,2.4-5.7c1.3-1.3,3.3-2.2,6.6-2.2c0.9,0,2.1,0.1,3.1,0.3
		c0.8,0.1,1.5,0.3,2.2,0.3c0.2,0,0.3,0.1,0.3,0.2c0,0.2-0.1,0.4-0.1,1.2c0,0.7,0,1.9-0.1,2.1c0,0.3-0.1,0.5-0.3,0.5
		c-0.1,0-0.2-0.1-0.2-0.5c0-0.8-0.3-1.7-0.9-2.1c-0.7-0.7-2.3-1.1-4.3-1.1c-2.8,0-4.1,0.7-4.9,1.5c-1.6,1.5-1.9,3.3-1.9,5.5
		c0,4,3.1,7.6,7.8,7.6c1.6,0,2.7-0.1,3.5-1c0.5-0.5,0.7-1.3,0.8-1.7c0.1-0.2,0.1-0.3,0.2-0.3c0.1,0,0.2,0.1,0.2,0.3
		s-0.3,1.9-0.5,2.7c-0.1,0.4-0.2,0.5-0.5,0.6c-0.9,0.3-2.5,0.5-3.9,0.5C263.6,133.5,261.4,132.8,259.7,131.3z"/>
	<path d="M276.9,123.5c0-3.3,0-3.8-0.1-4.5c-0.1-0.7-0.2-1.1-0.9-1.1c-0.2,0-0.5-0.1-0.7-0.1c-0.1,0-0.2-0.1-0.2-0.2
		s0.1-0.2,0.3-0.2c1,0,2.4,0.1,2.5,0.1c0.2,0,2.1-0.1,2.7-0.1c1.4,0,2.9,0.1,4,0.9c0.5,0.4,1.5,1.4,1.5,2.9c0,1.5-0.7,3.1-2.7,4.8
		c1.7,2.2,3.3,4.1,4.6,5.4c1.1,1.2,1.9,1.4,2.4,1.5c0.4,0.1,0.7,0.1,0.7,0.1c0.1,0,0.2,0.1,0.2,0.2s-0.1,0.2-0.5,0.2h-1.3
		c-1.2,0-1.7-0.1-2.3-0.4c-0.9-0.5-1.7-1.5-2.9-3.1c-0.9-1.1-1.9-2.5-2.3-3.1c-0.1-0.1-0.1-0.1-0.3-0.1l-2.7-0.1
		c-0.1,0-0.1,0.1-0.1,0.2v0.5c0,2,0,3.6,0.1,4.5c0.1,0.6,0.2,1,0.9,1.1c0.3,0.1,0.7,0.1,0.9,0.1c0.1,0,0.2,0.1,0.2,0.2
		c0,0.1-0.1,0.2-0.3,0.2c-1.2,0-2.5-0.1-2.7-0.1c0,0-1.5,0.1-2.1,0.1c-0.2,0-0.3-0.1-0.3-0.2c0-0.1,0.1-0.2,0.2-0.2
		c0.2,0,0.5-0.1,0.7-0.1c0.4-0.1,0.5-0.5,0.5-1.1c0.1-0.9,0.1-2.5,0.1-4.6v-3.7H276.9z M278.8,125.2c0,0.1,0.1,0.2,0.1,0.3
		c0.3,0.2,1.4,0.3,2.4,0.3c0.5,0,1.1,0,1.6-0.4c0.7-0.5,1.3-1.6,1.3-3.2c0-2.6-1.4-4.1-3.7-4.1c-0.7,0-1.3,0.1-1.5,0.1
		c-0.1,0.1-0.2,0.1-0.2,0.3L278.8,125.2L278.8,125.2z"/>
	<path d="M293.4,123.5c0-3.3,0-3.8-0.1-4.5c-0.1-0.7-0.2-1.1-0.9-1.1c-0.2,0-0.5-0.1-0.7-0.1c-0.1,0-0.2-0.1-0.2-0.2
		s0.1-0.2,0.3-0.2c1,0,2.4,0.1,2.5,0.1c0.1,0,4.7,0,5.2,0c0.4,0,0.8-0.1,1-0.1c0.1,0,0.2-0.1,0.3-0.1c0.1,0,0.1,0.1,0.1,0.2
		c0,0.1-0.1,0.4-0.2,1c0,0.2-0.1,1.1-0.1,1.4c0,0.1-0.1,0.2-0.2,0.2c-0.1,0-0.2-0.1-0.2-0.3c0-0.1,0-0.5-0.1-0.7
		c-0.1-0.3-0.4-0.5-1.5-0.7c-0.4-0.1-2.9-0.1-3.1-0.1c-0.1,0-0.1,0.1-0.1,0.2v5.7c0,0.1,0,0.2,0.1,0.2c0.3,0,3.1,0,3.6-0.1
		c0.5-0.1,0.8-0.1,1.1-0.3c0.1-0.1,0.3-0.3,0.3-0.3c0.1,0,0.1,0.1,0.1,0.2s-0.1,0.5-0.2,1.1c-0.1,0.4-0.1,1.2-0.1,1.3
		c0,0.2-0.1,0.4-0.2,0.4c-0.1,0-0.1-0.1-0.1-0.2c0-0.2,0-0.4-0.1-0.7c-0.1-0.3-0.3-0.5-1.1-0.7c-0.6-0.1-2.9-0.1-3.3-0.1
		c-0.1,0-0.1,0.1-0.1,0.1v1.7c0,0.7,0,3.1,0,3.5c0.1,1.4,0.5,1.7,2.6,1.7c0.5,0,1.6,0,2.1-0.2c0.5-0.3,0.9-0.6,1-1.5
		c0.1-0.3,0.1-0.3,0.2-0.3c0.1,0,0.1,0.2,0.1,0.3s-0.2,1.6-0.3,2c-0.1,0.5-0.4,0.5-1.2,0.5c-1.6,0-2.9-0.1-3.7-0.1
		c-0.9-0.1-1.5-0.1-1.8-0.1c-0.1,0-0.5,0-0.9,0c-0.4,0-0.9,0.1-1.3,0.1c-0.2,0-0.3-0.1-0.3-0.2c0-0.1,0.1-0.2,0.2-0.2
		c0.2,0,0.5-0.1,0.7-0.1c0.4-0.1,0.5-0.5,0.5-1.1c0.1-0.9,0.1-2.5,0.1-4.6v-3.5H293.4z"/>
	<path d="M311.7,127.2c0,2,0,3.7,0.1,4.6c0.1,0.6,0.2,1,0.8,1.1c0.3,0.1,0.8,0.1,1,0.1c0.1,0,0.2,0.1,0.2,0.2c0,0.1-0.1,0.2-0.3,0.2
		c-1.2,0-2.5-0.1-2.7-0.1c-0.1,0-1.6,0.1-2.2,0.1c-0.3,0-0.3-0.1-0.3-0.2c0-0.1,0.1-0.1,0.2-0.1c0.2,0,0.5-0.1,0.7-0.1
		c0.5-0.1,0.5-0.5,0.7-1.1c0.1-0.9,0.1-2.5,0.1-4.6v-8.8l-3.1,0.1c-1.3,0-1.9,0.2-2.2,0.7c-0.3,0.4-0.3,0.5-0.3,0.7
		c-0.1,0.2-0.1,0.2-0.2,0.2c-0.1,0-0.1-0.1-0.1-0.2c0-0.2,0.4-2.1,0.5-2.3c0-0.1,0.1-0.4,0.2-0.4c0.1,0,0.4,0.2,0.9,0.3
		c0.6,0.1,1.5,0.1,1.7,0.1h8.2c0.7,0,1.2-0.1,1.5-0.1c0.3-0.1,0.5-0.1,0.6-0.1c0.1,0,0.1,0.1,0.1,0.3c0,0.7-0.1,2.1-0.1,2.4
		c0,0.2-0.1,0.3-0.2,0.3s-0.1-0.1-0.2-0.4v-0.2c-0.1-0.7-0.5-1.1-2.6-1.1l-2.7-0.1L311.7,127.2L311.7,127.2z"/>
</g>
</svg>
