<?xml version="1.0" encoding="utf-8"?>
<!-- Generator: Adobe Illustrator 18.0.0, SVG Export Plug-In . SVG Version: 6.00 Build 0)  -->
<!DOCTYPE svg PUBLIC "-//W3C//DTD SVG 1.1//EN" "http://www.w3.org/Graphics/SVG/1.1/DTD/svg11.dtd">
<svg version="1.1" id="Layer_1" xmlns="http://www.w3.org/2000/svg" xmlns:xlink="http://www.w3.org/1999/xlink" x="0px" y="0px"
	 viewBox="0 0 265 164.6" enable-background="new 0 0 265 164.6" xml:space="preserve">
<g>
	<path d="M19.2,89c1.5-3.4,4.9-12.6,5.6-14.4c0.1-0.4,0.2-0.8,0.2-1s-0.1-0.4-0.3-0.6c-0.3-0.1-0.8-0.1-1-0.1c-0.1,0-0.3,0-0.3-0.1
		c0-0.1,0.1-0.2,0.5-0.2c1.1,0,2.3,0.1,2.6,0.1c0.1,0,1.3-0.1,2-0.1c0.3,0,0.4,0,0.4,0.2c0,0.1-0.1,0.2-0.3,0.2s-0.8,0-1.3,0.3
		c-0.3,0.2-0.8,0.6-1.4,2.5c-0.3,0.8-1.6,3.9-2.9,7.1c-1.6,3.8-2.8,6.5-3.3,7.8c-0.8,1.6-0.9,1.9-1.1,1.9c-0.3,0-0.4-0.3-1-1.6
		l-6.3-15.9c-0.5-1.5-1-1.7-1.8-2C9.2,73,8.7,73,8.6,73s-0.2-0.1-0.2-0.2s0.2-0.2,0.6-0.2c1.3,0,2.7,0.1,3,0.1
		c0.2,0,1.4-0.1,2.5-0.1c0.4,0,0.8,0,0.8,0.2c0,0.1-0.1,0.2-0.2,0.2c-0.3,0-0.8,0-1,0.1c-0.3,0.1-0.3,0.3-0.3,0.5
		c0,0.3,0.3,1.2,0.8,2.1L19.2,89z"/>
	<path d="M34.4,85.7c0,2.1,0,3.9,0.1,4.8c0.1,0.6,0.1,1.1,0.9,1.2c0.3,0,0.9,0.1,1.1,0.1c0.1,0,0.2,0.1,0.2,0.2
		c0,0.1-0.1,0.2-0.3,0.2c-1.3,0-2.8-0.1-2.9-0.1s-1.6,0.1-2.3,0.1c-0.2,0-0.3,0-0.3-0.2c0-0.1,0-0.2,0.2-0.2c0.2,0,0.5,0,0.8-0.1
		c0.4-0.1,0.5-0.5,0.6-1.2c0.1-0.9,0.1-2.7,0.1-4.8v-3.9c0-3.4,0-4.1,0-4.7c0-0.8-0.2-1.1-0.8-1.2c-0.2,0-0.5-0.1-0.8-0.1
		c-0.1,0-0.2-0.1-0.2-0.2c0-0.1,0.1-0.2,0.3-0.2c0.8,0,2.1,0,2.4,0c0.1,0,1.6,0,2.3,0c0.2,0,0.3,0,0.3,0.2c0,0.1-0.1,0.2-0.2,0.2
		s-0.3,0-0.5,0c-0.6,0.1-0.8,0.4-0.9,1.2c0,0.8,0,1.3,0,4.7v4H34.4z"/>
	<path d="M42.2,90c-2.3-1.9-2.8-4.4-2.8-6.5c0-1.5,0.5-4.1,2.6-6c1.4-1.3,3.4-2.4,7-2.4c0.9,0,2.3,0.1,3.3,0.2
		c0.9,0.1,1.6,0.3,2.4,0.3c0.2,0,0.3,0.1,0.3,0.2c0,0.2,0,0.4-0.1,1.3c0,0.8,0,1.9,0,2.3c0,0.3-0.1,0.4-0.2,0.4s-0.2-0.1-0.2-0.4
		c0-0.9-0.3-1.7-1-2.3C52.6,76.5,51,76,49,76c-2.9,0-4.3,0.8-5.2,1.5c-1.7,1.6-2,3.5-2,5.8c0,4.2,3.3,8.1,8.3,8.1
		c1.7,0,2.9-0.1,3.8-1.1c0.5-0.5,0.9-1.4,0.9-1.8c0-0.2,0.1-0.3,0.2-0.3c0.1,0,0.2,0.1,0.2,0.3c0,0.1-0.3,2-0.5,2.8
		c-0.1,0.4-0.2,0.5-0.5,0.6c-1,0.3-2.7,0.5-4.1,0.5C46.3,92.4,43.9,91.6,42.2,90z"/>
	<path d="M65.3,85.7c0,2.1,0,3.9,0.1,4.8c0.1,0.6,0.2,1.1,0.9,1.2c0.3,0,0.9,0.1,1.1,0.1c0.1,0,0.2,0.1,0.2,0.2
		c0,0.1-0.1,0.2-0.3,0.2c-1.3,0-2.7-0.1-2.8-0.1s-1.7,0.1-2.4,0.1c-0.2,0-0.3,0-0.3-0.2c0-0.1,0-0.1,0.2-0.1s0.4,0,0.6-0.1
		c0.4-0.1,0.6-0.5,0.6-1.2c0.1-0.9,0.1-2.7,0.1-4.8v-9.2H60c-1.4,0-1.9,0.2-2.4,0.8c-0.2,0.4-0.3,0.5-0.3,0.8c0,0.2-0.1,0.2-0.2,0.2
		c0,0-0.1,0-0.1-0.2c0-0.2,0.4-2.3,0.5-2.4c0-0.1,0.1-0.4,0.2-0.4c0.1,0,0.4,0.2,1,0.2c0.6,0.1,1.5,0.1,1.8,0.1h8.6
		c0.8,0,1.3,0,1.6-0.1c0.3,0,0.5-0.1,0.6-0.1c0.1,0,0.1,0.1,0.1,0.2c0,0.6-0.1,2.3-0.1,2.5c0,0.2-0.1,0.3-0.2,0.3S71.1,78.3,71,78
		v-0.2c-0.1-0.6-0.5-1.2-2.8-1.2h-2.9V85.7z"/>
	<path d="M81.9,75.1c5.2,0,9,3.1,9,8.3c0,4.9-3.7,9-9.1,9c-6.2,0-8.9-4.7-8.9-8.7C72.9,80.2,75.7,75.1,81.9,75.1z M82.5,91.5
		c2,0,6.2-1.1,6.2-7.5c0-5.3-3.2-8.1-6.9-8.1c-3.9,0-6.5,2.4-6.5,7.2C75.3,88.3,78.4,91.5,82.5,91.5z"/>
	<path d="M95.8,81.8c0-3.4,0-4.1,0-4.7c0-0.8-0.2-1.1-1-1.2c-0.2,0-0.5,0-0.8,0c-0.1,0-0.2-0.1-0.2-0.2c0-0.1,0.1-0.2,0.3-0.2
		c1.1,0,2.6,0,2.7,0c0.2,0,2.1,0,2.9,0c1.5,0,3.1,0.1,4.3,1c0.5,0.4,1.6,1.5,1.6,3c0,1.6-0.6,3.2-2.8,5c1.8,2.4,3.4,4.3,4.8,5.7
		c1.2,1.3,1.9,1.5,2.6,1.5c0.4,0.1,0.6,0.1,0.9,0.1c0.1,0,0.2,0.1,0.2,0.2c0,0.1-0.1,0.2-0.5,0.2h-1.4c-1.3,0-1.8-0.1-2.5-0.4
		c-1-0.5-1.8-1.6-3.1-3.2c-1-1.2-1.9-2.6-2.5-3.2c-0.1-0.1-0.1-0.1-0.3-0.1h-2.9c-0.1,0-0.1,0-0.1,0.2V86c0,2.1,0,3.9,0.1,4.7
		c0.1,0.6,0.2,1.1,0.9,1.2c0.3,0,0.9,0.1,1,0.1s0.2,0.1,0.2,0.2s-0.1,0.2-0.3,0.2c-1.3,0-2.7-0.1-2.8-0.1c0,0-1.6,0.1-2.3,0.1
		c-0.2,0-0.3,0-0.3-0.2c0-0.1,0-0.2,0.2-0.2c0.2,0,0.5,0,0.8-0.1c0.4-0.1,0.5-0.5,0.6-1.2c0.1-0.9,0.1-2.7,0.1-4.8v-4.1H95.8z
		 M97.8,83.7c0,0.1,0,0.2,0.1,0.3c0.3,0.2,1.5,0.3,2.5,0.3c0.5,0,1.2,0,1.7-0.4c0.8-0.5,1.4-1.7,1.4-3.3c0-2.8-1.5-4.3-4-4.3
		c-0.6,0-1.4,0.1-1.6,0.1c-0.1,0-0.2,0.1-0.2,0.2v7.1H97.8z"/>
	<path d="M115.3,85.7c0,2.1,0,3.9,0.1,4.8c0.1,0.6,0.1,1.1,0.9,1.2c0.3,0,0.9,0.1,1.1,0.1c0.1,0,0.2,0.1,0.2,0.2
		c0,0.1-0.1,0.2-0.3,0.2c-1.3,0-2.8-0.1-2.9-0.1c-0.1,0-1.6,0.1-2.3,0.1c-0.2,0-0.3,0-0.3-0.2c0-0.1,0-0.2,0.2-0.2
		c0.2,0,0.5,0,0.8-0.1c0.4-0.1,0.5-0.5,0.6-1.2c0.1-0.9,0.1-2.7,0.1-4.8v-3.9c0-3.4,0-4.1,0-4.7c0-0.8-0.2-1.1-0.8-1.2
		c-0.2,0-0.5-0.1-0.8-0.1c-0.1,0-0.2-0.1-0.2-0.2c0-0.1,0.1-0.2,0.3-0.2c0.8,0,2.1,0,2.4,0c0.1,0,1.6,0,2.3,0c0.2,0,0.3,0,0.3,0.2
		c0,0.1-0.1,0.2-0.2,0.2s-0.3,0-0.5,0c-0.6,0.1-0.8,0.4-0.9,1.2c0,0.8,0,1.3,0,4.7v4H115.3z"/>
	<path d="M126.8,75.9c0.3-0.8,0.4-0.9,0.5-0.9c0.2,0,0.3,0.3,0.5,0.9c0.4,1,4.1,10.1,5.5,13.4c0.9,1.9,1.5,2.3,1.9,2.5
		c0.3,0.1,0.6,0.1,0.9,0.1c0.1,0,0.3,0,0.3,0.2c0,0.1-0.2,0.2-0.5,0.2c-0.3,0-2,0-3.6,0c-0.4,0-0.9,0-0.9-0.1s0-0.1,0.1-0.1
		c0.1,0,0.3-0.2,0.2-0.6l-2-5c0-0.1-0.1-0.1-0.2-0.1h-5.3c-0.1,0-0.2,0-0.2,0.2l-1.3,3.5c-0.2,0.5-0.3,1.1-0.3,1.5s0.4,0.6,0.8,0.6
		h0.2c0.2,0,0.2,0.1,0.2,0.2c0,0.1-0.1,0.2-0.3,0.2c-0.5,0-1.8-0.1-2-0.1s-1.4,0.1-2.4,0.1c-0.3,0-0.4,0-0.4-0.2
		c0-0.1,0.1-0.2,0.2-0.2c0.1,0,0.5,0,0.6,0c1.1-0.1,1.5-0.9,1.9-2L126.8,75.9z M129.4,85.1c0.1,0,0.1,0,0.1-0.1l-2.3-6
		c-0.1-0.3-0.2-0.3-0.4,0l-2.1,6c0,0.1,0,0.1,0.1,0.1H129.4z"/>
	<path d="M136.6,80.4l-0.3-0.5c0.8-0.5,1.2-1.2,1.6-1.7c0.3-0.5,0.5-1.1,0.5-1.5c0-0.1,0-0.2-0.1-0.3c0-0.1-0.1-0.1-0.2-0.1H138
		c-0.2,0-0.3,0.1-0.4,0.1c-0.3,0-0.5-0.1-0.9-0.4c-0.2-0.2-0.3-0.6-0.3-1c0-0.4,0.1-0.8,0.3-1.1c0.2-0.3,0.5-0.4,0.9-0.4
		c0.4,0,0.9,0.2,1.2,0.6c0.3,0.4,0.5,1,0.5,1.7c0,0.9-0.2,1.6-0.6,2.4C138.3,78.9,137.5,79.6,136.6,80.4z"/>
	<path d="M142.2,91.9c-0.3-0.1-0.3-0.2-0.3-0.9c0-1.1,0.1-1.9,0.1-2.4c0-0.2,0-0.3,0.2-0.3s0.2,0.1,0.2,0.2c0,0.2,0,0.5,0.1,0.9
		c0.3,1.6,2,2.1,3.6,2.1c2.3,0,3.4-1.3,3.4-2.9c0-1.6-0.9-2.4-2.9-3.9l-1.1-0.8c-2.5-1.8-3.2-3.2-3.2-4.7c0-2.6,2-4.2,5-4.2
		c0.9,0,1.8,0.1,2.4,0.2c0.4,0.1,0.6,0.1,0.9,0.1c0.2,0,0.2,0,0.2,0.1c0,0.1-0.1,0.9-0.1,2.4c0,0.3,0,0.5-0.2,0.5
		c-0.1,0-0.2-0.1-0.2-0.3s-0.2-0.9-0.3-1.1c-0.1-0.2-0.9-1.1-3-1.1c-1.6,0-3,0.9-3,2.4c0,1.4,0.8,2.3,3,3.8l0.6,0.4
		c2.8,1.9,3.8,3.4,3.8,5.4c0,1.3-0.5,2.7-2.1,3.8c-1,0.6-2.4,0.8-3.6,0.8C144.4,92.4,143.1,92.3,142.2,91.9z"/>
	<path d="M165,91.7c-0.3-0.2-0.4-0.3-0.4-1c0-1.3,0.1-2.4,0.1-2.8c0-0.3,0.1-0.4,0.2-0.4c0.1,0,0.2,0.1,0.2,0.3c0,0.2,0,0.6,0.1,1
		c0.4,1.9,2.1,2.7,3.9,2.7c2.5,0,3.8-1.8,3.8-3.4c0-1.8-0.8-2.8-3-4.7l-1.2-1c-2.8-2.3-3.3-3.9-3.3-5.7c0-2.8,2-4.7,5.4-4.7
		c1,0,1.7,0.1,2.5,0.2c0.5,0.1,0.8,0.1,0.9,0.1c0.2,0,0.2,0,0.2,0.2c0,0.1-0.1,1-0.1,2.8c0,0.4,0,0.6-0.2,0.6
		c-0.1,0-0.2-0.1-0.2-0.3c0-0.3-0.2-1-0.3-1.3c-0.1-0.3-0.9-1.4-3.2-1.4c-1.8,0-3.2,1.1-3.2,3c0,1.5,0.6,2.5,3.2,4.4l0.8,0.5
		c3.1,2.5,3.8,4.1,3.8,6.1c0,1.1-0.4,3-2.3,4.3c-1.1,0.8-2.5,1.1-4,1.1C167.3,92.5,166.1,92.3,165,91.7z"/>
	<path d="M180.9,81.8c0-3.4,0-4.1,0-4.7c0-0.8-0.2-1.1-1-1.2c-0.2,0-0.5,0-0.8,0c-0.1,0-0.2-0.1-0.2-0.2c0-0.1,0.1-0.2,0.3-0.2
		c1.1,0,2.5,0,2.7,0c0.1,0,4.9,0,5.5,0c0.4,0,0.9-0.1,1.1-0.1c0.1,0,0.2-0.1,0.3-0.1s0.1,0.1,0.1,0.2s-0.1,0.4-0.2,1.1
		c0,0.2-0.1,1.2-0.1,1.5c0,0.1-0.1,0.2-0.2,0.2c-0.1,0-0.2-0.1-0.2-0.3c0-0.1,0-0.5-0.1-0.8c-0.1-0.3-0.4-0.5-1.6-0.6
		c-0.4,0-3-0.1-3.3-0.1c-0.1,0-0.1,0.1-0.1,0.2v6c0,0.1,0,0.2,0.1,0.2c0.3,0,3.3,0,3.9,0c0.5,0,0.9-0.1,1.1-0.3
		c0.1-0.1,0.2-0.3,0.3-0.3s0.1,0,0.1,0.2c0,0.1-0.1,0.5-0.2,1.2c0,0.4-0.1,1.3-0.1,1.4c0,0.2,0,0.4-0.2,0.4c-0.1,0-0.1-0.1-0.1-0.2
		c0-0.2,0-0.4-0.1-0.8c-0.1-0.3-0.3-0.5-1.2-0.6c-0.6-0.1-3.1-0.1-3.4-0.1c-0.1,0-0.1,0.1-0.1,0.1v1.8c0,0.8,0,3.3,0,3.8
		c0,1.5,0.4,1.7,2.7,1.7c0.6,0,1.7,0,2.3-0.2c0.6-0.2,0.9-0.6,1.1-1.5c0-0.2,0.1-0.3,0.2-0.3c0.1,0,0.1,0.2,0.1,0.3
		c0,0.1-0.2,1.6-0.3,2.1c-0.1,0.5-0.4,0.5-1.3,0.5c-1.7,0-3,0-4-0.1c-1,0-1.6,0-1.9,0c0,0-0.5,0-1,0c-0.4,0-1,0-1.3,0
		c-0.2,0-0.3,0-0.3-0.2c0-0.1,0-0.2,0.2-0.2s0.5-0.1,0.8-0.1c0.4-0.1,0.5-0.5,0.6-1.2c0.1-0.9,0.1-2.7,0.1-4.8v-3.7H180.9z"/>
	<path d="M195.4,90c-2.3-1.9-2.8-4.4-2.8-6.5c0-1.5,0.5-4.1,2.6-6c1.4-1.3,3.4-2.4,7-2.4c0.9,0,2.3,0.1,3.3,0.2
		c0.9,0.1,1.6,0.3,2.4,0.3c0.2,0,0.3,0.1,0.3,0.2c0,0.2,0,0.4-0.1,1.3c0,0.8,0,1.9,0,2.3c0,0.3-0.1,0.4-0.2,0.4
		c-0.1,0-0.2-0.1-0.2-0.4c0-0.9-0.3-1.7-1-2.3c-0.9-0.6-2.5-1.2-4.5-1.2c-2.9,0-4.3,0.8-5.2,1.5c-1.7,1.6-2,3.5-2,5.8
		c0,4.2,3.3,8.1,8.3,8.1c1.7,0,2.9-0.1,3.8-1.1c0.5-0.5,0.9-1.4,0.9-1.8c0-0.2,0.1-0.3,0.2-0.3s0.2,0.1,0.2,0.3c0,0.1-0.3,2-0.5,2.8
		c-0.1,0.4-0.2,0.5-0.5,0.6c-1,0.3-2.7,0.5-4.1,0.5C199.5,92.4,197.2,91.6,195.4,90z"/>
	<path d="M213.7,81.8c0-3.4,0-4.1,0-4.7c0-0.8-0.2-1.1-1-1.2c-0.2,0-0.5,0-0.8,0c-0.1,0-0.2-0.1-0.2-0.2c0-0.1,0.1-0.2,0.3-0.2
		c1.1,0,2.6,0,2.7,0c0.2,0,2.1,0,2.9,0c1.5,0,3.1,0.1,4.3,1c0.5,0.4,1.6,1.5,1.6,3c0,1.6-0.6,3.2-2.8,5c1.8,2.4,3.4,4.3,4.8,5.7
		c1.2,1.3,1.9,1.5,2.6,1.5c0.4,0.1,0.6,0.1,0.9,0.1c0.1,0,0.2,0.1,0.2,0.2c0,0.1-0.1,0.2-0.5,0.2h-1.4c-1.3,0-1.8-0.1-2.5-0.4
		c-1-0.5-1.8-1.6-3.1-3.2c-1-1.2-1.9-2.6-2.5-3.2c-0.1-0.1-0.1-0.1-0.3-0.1H216c-0.1,0-0.1,0-0.1,0.2V86c0,2.1,0,3.9,0.1,4.7
		c0.1,0.6,0.2,1.1,0.9,1.2c0.3,0,0.9,0.1,1,0.1c0.1,0,0.2,0.1,0.2,0.2s-0.1,0.2-0.3,0.2c-1.3,0-2.7-0.1-2.8-0.1c0,0-1.6,0.1-2.3,0.1
		c-0.2,0-0.3,0-0.3-0.2c0-0.1,0-0.2,0.2-0.2c0.2,0,0.5,0,0.8-0.1c0.4-0.1,0.5-0.5,0.6-1.2c0.1-0.9,0.1-2.7,0.1-4.8v-4.1H213.7z
		 M215.6,83.7c0,0.1,0,0.2,0.1,0.3c0.3,0.2,1.5,0.3,2.5,0.3c0.5,0,1.2,0,1.7-0.4c0.8-0.5,1.4-1.7,1.4-3.3c0-2.8-1.5-4.3-4-4.3
		c-0.6,0-1.4,0.1-1.6,0.1c-0.1,0-0.2,0.1-0.2,0.2v7.1H215.6z"/>
	<path d="M231,81.8c0-3.4,0-4.1,0-4.7c0-0.8-0.2-1.1-1-1.2c-0.2,0-0.5,0-0.8,0c-0.1,0-0.2-0.1-0.2-0.2c0-0.1,0.1-0.2,0.3-0.2
		c1.1,0,2.5,0,2.7,0c0.1,0,4.9,0,5.5,0c0.4,0,0.9-0.1,1.1-0.1c0.1,0,0.2-0.1,0.3-0.1s0.1,0.1,0.1,0.2s-0.1,0.4-0.2,1.1
		c0,0.2-0.1,1.2-0.1,1.5c0,0.1-0.1,0.2-0.2,0.2c-0.1,0-0.2-0.1-0.2-0.3c0-0.1,0-0.5-0.1-0.8c-0.1-0.3-0.4-0.5-1.6-0.6
		c-0.4,0-3-0.1-3.3-0.1c-0.1,0-0.1,0.1-0.1,0.2v6c0,0.1,0,0.2,0.1,0.2c0.3,0,3.3,0,3.9,0c0.5,0,0.9-0.1,1.1-0.3
		c0.1-0.1,0.2-0.3,0.3-0.3s0.1,0,0.1,0.2c0,0.1-0.1,0.5-0.2,1.2c0,0.4-0.1,1.3-0.1,1.4c0,0.2,0,0.4-0.2,0.4c-0.1,0-0.1-0.1-0.1-0.2
		c0-0.2,0-0.4-0.1-0.8c-0.1-0.3-0.3-0.5-1.2-0.6c-0.6-0.1-3.1-0.1-3.4-0.1c-0.1,0-0.1,0.1-0.1,0.1v1.8c0,0.8,0,3.3,0,3.8
		c0,1.5,0.4,1.7,2.7,1.7c0.6,0,1.7,0,2.3-0.2c0.6-0.2,0.9-0.6,1.1-1.5c0-0.2,0.1-0.3,0.2-0.3s0.1,0.2,0.1,0.3c0,0.1-0.2,1.6-0.3,2.1
		c-0.1,0.5-0.4,0.5-1.3,0.5c-1.7,0-3,0-4-0.1c-1,0-1.6,0-1.9,0c0,0-0.5,0-1,0c-0.4,0-1,0-1.3,0c-0.2,0-0.3,0-0.3-0.2
		c0-0.1,0-0.2,0.2-0.2s0.5-0.1,0.8-0.1c0.4-0.1,0.5-0.5,0.6-1.2c0.1-0.9,0.1-2.7,0.1-4.8v-3.7H231z"/>
	<path d="M250.4,85.7c0,2.1,0,3.9,0.1,4.8c0.1,0.6,0.2,1.1,0.9,1.2c0.3,0,0.9,0.1,1.1,0.1c0.1,0,0.2,0.1,0.2,0.2
		c0,0.1-0.1,0.2-0.3,0.2c-1.3,0-2.7-0.1-2.8-0.1s-1.7,0.1-2.4,0.1c-0.2,0-0.3,0-0.3-0.2c0-0.1,0-0.1,0.2-0.1s0.4,0,0.6-0.1
		c0.4-0.1,0.6-0.5,0.6-1.2c0.1-0.9,0.1-2.7,0.1-4.8v-9.2h-3.3c-1.4,0-1.9,0.2-2.4,0.8c-0.2,0.4-0.3,0.5-0.3,0.8
		c0,0.2-0.1,0.2-0.2,0.2c0,0-0.1,0-0.1-0.2c0-0.2,0.4-2.3,0.5-2.4c0-0.1,0.1-0.4,0.2-0.4c0.1,0,0.4,0.2,1,0.2
		c0.6,0.1,1.5,0.1,1.8,0.1h8.6c0.8,0,1.3,0,1.6-0.1c0.3,0,0.5-0.1,0.6-0.1s0.1,0.1,0.1,0.2c0,0.6-0.1,2.3-0.1,2.5
		c0,0.2-0.1,0.3-0.2,0.3c-0.1,0-0.1-0.1-0.2-0.4v-0.2c-0.1-0.6-0.5-1.2-2.8-1.2h-2.9V85.7z"/>
</g>
</svg>
