<svg id="Layer_1" data-name="Layer 1" xmlns="http://www.w3.org/2000/svg" viewBox="0 0 300 186"><defs><style>.cls-1{fill-rule:evenodd;}</style></defs><title>xoxo-logo</title><path class="cls-1" d="M199.74,74.52c9.58,0,17.36,8.28,17.36,18.48s-7.78,18.48-17.36,18.48S182.38,103.21,182.38,93s7.77-18.48,17.36-18.48Zm-45.09,36.23,9.94-14,9.07,14h8l-12.9-19.89L179.89,75.2h-4.13l-8.94,12.65-8.2-12.65h-8l12,18.54-12,17Zm-67.72,0,9.93-14,9.07,14h8L101,90.86,112.17,75.2H108L99.1,87.85,90.9,75.2h-8l12,18.54-12,17ZM132,74.52c9.58,0,17.35,8.28,17.35,18.48s-7.77,18.48-17.35,18.48S114.67,103.21,114.67,93,122.44,74.52,132,74.52ZM121.63,93c0-9.13,3.46-16.54,10.39-16.54s10.39,7.4,10.39,16.54S139,109.54,132,109.54s-10.39-7.4-10.39-16.54Zm67.72,0c0-9.13,3.46-16.54,10.4-16.54s10.39,7.4,10.39,16.54-3.46,16.54-10.39,16.54-10.4-7.4-10.4-16.54Z"/></svg>