<svg id="Layer_1" data-name="Layer 1" xmlns="http://www.w3.org/2000/svg" viewBox="0 0 65.87 18.14"><defs><style>.cls-1{fill-rule:evenodd;}</style></defs><title>Artboard 1</title><path class="cls-1" d="M57.35,0a8.81,8.81,0,0,1,8.52,9.07,8.54,8.54,0,1,1-17,0A8.81,8.81,0,0,1,57.35,0ZM35.22,17.78l4.88-6.87,4.45,6.87h3.93L42.15,8,47.6.34h-2L41.19,6.54l-4-6.21H33.24l5.9,9.1-5.9,8.34ZM2,17.78l4.88-6.87,4.45,6.87h3.93L8.91,8,14.37.34h-2L7.95,6.54,3.93.34H0l5.9,9.1L0,17.78ZM24.11,0a8.81,8.81,0,0,1,8.52,9.07,8.81,8.81,0,0,1-8.52,9.07,8.81,8.81,0,0,1-8.52-9.07A8.81,8.81,0,0,1,24.11,0ZM19,9.07C19,4.59,20.71,1,24.11,1s5.1,3.63,5.1,8.12-1.7,8.12-5.1,8.12S19,13.55,19,9.07Zm33.24,0c0-4.48,1.7-8.12,5.1-8.12s5.1,3.63,5.1,8.12-1.7,8.12-5.1,8.12-5.1-3.63-5.1-8.12Z"/></svg>