<?xml version="1.0" encoding="utf-8"?>
<!-- Generator: Adobe Illustrator 18.0.0, SVG Export Plug-In . SVG Version: 6.00 Build 0)  -->
<!DOCTYPE svg PUBLIC "-//W3C//DTD SVG 1.1//EN" "http://www.w3.org/Graphics/SVG/1.1/DTD/svg11.dtd">
<svg version="1.1" id="Layer_1" xmlns="http://www.w3.org/2000/svg" xmlns:xlink="http://www.w3.org/1999/xlink" x="0px" y="0px"
	 viewBox="0 0 265 164.6" enable-background="new 0 0 265 164.6" xml:space="preserve">
<g>
	<path fill-rule="evenodd" clip-rule="evenodd" d="M171.9,67.6c7.6,0,13.8,6.6,13.8,14.7c0,8.1-6.2,14.7-13.8,14.7
		c-7.6,0-13.8-6.6-13.8-14.7C158.2,74.2,164.3,67.6,171.9,67.6L171.9,67.6z M136.2,96.4l7.9-11.1l7.2,11.1h6.3l-10.2-15.8l8.8-12.4
		h-3.3l-7.1,10l-6.5-10H133l9.5,14.7L133,96.4H136.2L136.2,96.4z M82.5,96.4l7.9-11.1l7.2,11.1h6.3L93.7,80.6l8.8-12.4h-3.3l-7.1,10
		l-6.5-10h-6.3l9.5,14.7l-9.5,13.5H82.5L82.5,96.4z M118.2,67.6c7.6,0,13.8,6.6,13.8,14.7c0,8.1-6.2,14.7-13.8,14.7
		c-7.6,0-13.8-6.6-13.8-14.7C104.5,74.2,110.6,67.6,118.2,67.6L118.2,67.6z M110,82.3c0-7.2,2.7-13.1,8.2-13.1
		c5.5,0,8.2,5.9,8.2,13.1c0,7.2-2.7,13.1-8.2,13.1C112.7,95.4,110,89.5,110,82.3L110,82.3z M163.7,82.3c0-7.2,2.7-13.1,8.2-13.1
		c5.5,0,8.2,5.9,8.2,13.1c0,7.2-2.7,13.1-8.2,13.1C166.4,95.4,163.7,89.5,163.7,82.3L163.7,82.3z"/>
</g>
</svg>
