<?xml version="1.0" encoding="utf-8"?>
<!-- Generator: Adobe Illustrator 18.0.0, SVG Export Plug-In . SVG Version: 6.00 Build 0)  -->
<!DOCTYPE svg PUBLIC "-//W3C//DTD SVG 1.1//EN" "http://www.w3.org/Graphics/SVG/1.1/DTD/svg11.dtd">
<svg version="1.1" id="Layer_1" xmlns="http://www.w3.org/2000/svg" xmlns:xlink="http://www.w3.org/1999/xlink" x="0px" y="0px"
	 viewBox="0 0 400 248" enable-background="new 0 0 400 248" xml:space="preserve">
<g>
	<path fill-rule="evenodd" clip-rule="evenodd" d="M272.9,96.9c14,0,25.4,12.1,25.4,27.1c0,15-11.4,27.1-25.4,27.1
		c-14,0-25.4-12.1-25.4-27.1C247.4,109,258.8,96.9,272.9,96.9L272.9,96.9z M206.8,150l14.6-20.5l13.3,20.5h11.7l-18.9-29.1
		l16.3-22.9h-6l-13.1,18.5l-12-18.5h-11.7l17.6,27.2L200.9,150H206.8L206.8,150z M107.6,150l14.6-20.5l13.3,20.5h11.7l-18.9-29.1
		l16.3-22.9h-6.1l-13.1,18.5l-12-18.5h-11.7l17.6,27.2L101.7,150H107.6L107.6,150z M173.7,96.9c14,0,25.4,12.1,25.4,27.1
		c0,15-11.4,27.1-25.4,27.1c-14,0-25.4-12.1-25.4-27.1C148.2,109,159.6,96.9,173.7,96.9L173.7,96.9z M158.4,124
		c0-13.4,5.1-24.2,15.2-24.2c10.2,0,15.2,10.8,15.2,24.2c0,13.4-5.1,24.2-15.2,24.2C163.5,148.2,158.4,137.4,158.4,124L158.4,124z
		 M257.6,124c0-13.4,5.1-24.2,15.2-24.2c10.2,0,15.2,10.8,15.2,24.2c0,13.4-5.1,24.2-15.2,24.2C262.7,148.2,257.6,137.4,257.6,124
		L257.6,124z"/>
</g>
</svg>
