<?xml version="1.0" encoding="utf-8"?>
<!-- Generator: Adobe Illustrator 18.0.0, SVG Export Plug-In . SVG Version: 6.00 Build 0)  -->
<!DOCTYPE svg PUBLIC "-//W3C//DTD SVG 1.1//EN" "http://www.w3.org/Graphics/SVG/1.1/DTD/svg11.dtd">
<svg version="1.1" id="Layer_1" xmlns="http://www.w3.org/2000/svg" xmlns:xlink="http://www.w3.org/1999/xlink" x="0px" y="0px"
	 viewBox="0 0 265 150" enable-background="new 0 0 265 150" xml:space="preserve">
<g>
	<path fill-rule="evenodd" clip-rule="evenodd" d="M176.2,58.8c8.4,0,15.2,7.3,15.2,16.2c0,9-6.8,16.2-15.2,16.2
		c-8.4,0-15.2-7.3-15.2-16.2C160.9,66,167.7,58.8,176.2,58.8L176.2,58.8z M136.6,90.6l8.7-12.3l8,12.3h7L149,73.1l9.8-13.7h-3.6
		l-7.8,11.1l-7.2-11.1h-7l10.5,16.3L133,90.6H136.6L136.6,90.6z M77.2,90.6l8.7-12.3l8,12.3h7L89.5,73.1l9.8-13.7h-3.6l-7.8,11.1
		l-7.2-11.1h-7l10.6,16.3L73.6,90.6H77.2L77.2,90.6z M116.7,58.8c8.4,0,15.2,7.3,15.2,16.2c0,9-6.8,16.2-15.2,16.2
		c-8.4,0-15.2-7.3-15.2-16.2C101.5,66,108.3,58.8,116.7,58.8L116.7,58.8z M107.6,75c0-8,3-14.5,9.1-14.5c6.1,0,9.1,6.5,9.1,14.5
		c0,8-3,14.5-9.1,14.5C110.6,89.5,107.6,83,107.6,75L107.6,75z M167,75c0-8,3-14.5,9.1-14.5c6.1,0,9.1,6.5,9.1,14.5
		c0,8-3,14.5-9.1,14.5C170.1,89.5,167,83,167,75L167,75z"/>
</g>
</svg>
